<svg width="41" height="40" viewBox="0 0 41 40" fill="none" xmlns="http://www.w3.org/2000/svg">
  <rect x="0.444682" y="0.28062" width="39.4388" height="39.4388" rx="9.71938" fill="#F9FAFC" />
  <rect x="0.444682" y="0.28062" width="39.4388" height="39.4388" rx="9.71938" stroke="#EDEFF5" stroke-width="0.56124" />
  <path d="M19.1015 14.6968C19.1015 17.0376 17.2046 18.936 14.8639 18.936C12.5232 18.936 10.625 17.0376 10.625 14.6968C10.625 12.3564 12.5232 10.459 14.8639 10.459C17.2046 10.459 19.1015 12.3564 19.1015 14.6968Z" fill="#00AAFF" />
  <path d="M29.7071 24.3852C29.7071 27.2331 27.3978 29.5412 24.55 29.5412C21.7035 29.5412 19.3965 27.2331 19.3965 24.3852C19.3965 21.5372 21.7035 19.2287 24.55 19.2287C27.3978 19.2287 29.7071 21.5372 29.7071 24.3852Z" fill="#97CF26" />
  <path d="M27.8697 14.6969C27.8697 16.5302 26.3835 18.017 24.5499 18.017C22.7185 18.017 21.2327 16.5302 21.2327 14.6969C21.2327 12.8645 22.7189 11.3786 24.5499 11.3786C26.3835 11.3786 27.8697 12.8645 27.8697 14.6969Z" fill="#FF6163" />
  <path d="M17.2651 24.385C17.2651 25.7111 16.1895 26.7841 14.8639 26.7841C13.5382 26.7841 12.4626 25.7111 12.4626 24.385C12.4626 23.0588 13.5382 21.9858 14.8639 21.9858C16.1895 21.9858 17.2651 23.0588 17.2651 24.385Z" fill="#A169F7" />
</svg>