<svg width="20" height="20" viewBox="0 0 20 20" fill="none" xmlns="http://www.w3.org/2000/svg">
  <rect x="0.14031" y="0.14031" width="19.7194" height="19.7194" rx="4.85969" fill="#F9FAFC" />
  <rect x="0.14031" y="0.14031" width="19.7194" height="19.7194" rx="4.85969" stroke="#EDEFF5" stroke-width="0.28062" />
  <path d="M9.46483 7.34742C9.46483 8.51784 8.51638 9.46701 7.34603 9.46701C6.17568 9.46701 5.22656 8.51784 5.22656 7.34742C5.22656 6.17723 6.17568 5.22852 7.34603 5.22852C8.51638 5.22852 9.46483 6.17723 9.46483 7.34742Z" fill="#00AAFF" />
  <path d="M14.7676 12.1916C14.7676 13.6156 13.613 14.7696 12.1891 14.7696C10.7658 14.7696 9.61231 13.6156 9.61231 12.1916C9.61231 10.7676 10.7658 9.61339 12.1891 9.61339C13.613 9.61339 14.7676 10.7676 14.7676 12.1916Z" fill="#97CF26" />
  <path d="M13.8489 7.34747C13.8489 8.2641 13.1058 9.00751 12.189 9.00751C11.2733 9.00751 10.5304 8.2641 10.5304 7.34747C10.5304 6.43129 11.2735 5.68834 12.189 5.68834C13.1058 5.68834 13.8489 6.43129 13.8489 7.34747Z" fill="#FF6163" />
  <path d="M8.54663 12.1915C8.54663 12.8546 8.0088 13.3911 7.34599 13.3911C6.68318 13.3911 6.14535 12.8546 6.14535 12.1915C6.14535 11.5284 6.68318 10.9919 7.34599 10.9919C8.0088 10.9919 8.54663 11.5284 8.54663 12.1915Z" fill="#A169F7" />
</svg>