<svg width="21" height="20" viewBox="0 0 21 20" fill="none" xmlns="http://www.w3.org/2000/svg">
<path d="M8.05312 4.52109C8.01621 4.48065 7.99057 4.43123 7.97877 4.37777C7.96697 4.32431 7.96942 4.26869 7.98587 4.21647C8.00233 4.16426 8.03221 4.11728 8.07253 4.08025C8.11285 4.04322 8.16219 4.01743 8.21562 4.00546C8.96497 3.83422 9.73132 3.74851 10.5 3.74999C13.225 3.74999 15.7008 4.78593 17.6609 6.74609C19.132 8.21718 19.7937 9.68515 19.8211 9.74687C19.8566 9.8268 19.875 9.9133 19.875 10.0008C19.875 10.0882 19.8566 10.1747 19.8211 10.2547C19.7937 10.3164 19.132 11.7836 17.6609 13.2547C17.438 13.4766 17.2091 13.6867 16.9742 13.8851C16.9124 13.9376 16.8326 13.964 16.7517 13.9588C16.6708 13.9535 16.5951 13.917 16.5406 13.857L8.05312 4.52109ZM17.2125 16.4547C17.2688 16.5152 17.3126 16.5863 17.3413 16.6639C17.37 16.7415 17.3829 16.824 17.3795 16.9066C17.376 16.9893 17.3562 17.0704 17.3212 17.1453C17.2861 17.2202 17.2366 17.2874 17.1754 17.3431C17.1142 17.3987 17.0425 17.4416 16.9646 17.4694C16.8867 17.4971 16.804 17.5091 16.7215 17.5046C16.6389 17.5002 16.558 17.4794 16.4835 17.4435C16.409 17.4075 16.3424 17.3572 16.2875 17.2953L14.5625 15.4008C13.2832 15.9666 11.8988 16.256 10.5 16.25C7.77499 16.25 5.29921 15.2141 3.33905 13.2547C1.86796 11.7836 1.20312 10.3164 1.1789 10.2547C1.14336 10.1747 1.125 10.0882 1.125 10.0008C1.125 9.9133 1.14336 9.8268 1.1789 9.74687C1.20312 9.68749 1.86796 8.21718 3.33905 6.74609C3.92678 6.15565 4.58239 5.63693 5.29218 5.20077L3.78749 3.5453C3.73114 3.48477 3.68736 3.41365 3.65869 3.33607C3.63003 3.25849 3.61704 3.17599 3.6205 3.09336C3.62395 3.01072 3.64377 2.92959 3.67881 2.85467C3.71384 2.77976 3.7634 2.71254 3.82461 2.65691C3.88582 2.60129 3.95746 2.55837 4.03537 2.53063C4.11329 2.5029 4.19594 2.49091 4.27853 2.49535C4.36111 2.49979 4.442 2.52058 4.51649 2.55652C4.59099 2.59245 4.65761 2.64281 4.71249 2.70468L17.2125 16.4547ZM12.0961 12.6851L7.97968 8.1539C7.55551 8.73507 7.34488 9.4448 7.38335 10.1633C7.42182 10.8817 7.70703 11.5649 8.19083 12.0975C8.67463 12.63 9.32737 12.9793 10.0389 13.0864C10.7503 13.1935 11.477 13.0517 12.0961 12.6851Z" fill="#9098B4"/>
</svg>
