<svg width="50" height="50" viewBox="0 0 50 50" fill="none" xmlns="http://www.w3.org/2000/svg">
  <path d="M42.1875 7.8125H7.8125C6.9837 7.8125 6.18884 8.14174 5.60279 8.72779C5.01674 9.31384 4.6875 10.1087 4.6875 10.9375V39.0625C4.6875 39.8913 5.01674 40.6862 5.60279 41.2722C6.18884 41.8583 6.9837 42.1875 7.8125 42.1875H42.1875C43.0163 42.1875 43.8112 41.8583 44.3972 41.2722C44.9833 40.6862 45.3125 39.8913 45.3125 39.0625V10.9375C45.3125 10.1087 44.9833 9.31384 44.3972 8.72779C43.8112 8.14174 43.0163 7.8125 42.1875 7.8125ZM13.2812 18.75C12.8177 18.75 12.3646 18.6125 11.9791 18.355C11.5937 18.0975 11.2933 17.7314 11.1159 17.3032C10.9385 16.8749 10.8921 16.4036 10.9825 15.949C11.073 15.4944 11.2962 15.0767 11.624 14.749C11.9517 14.4212 12.3694 14.198 12.824 14.1075C13.2786 14.0171 13.7499 14.0635 14.1782 14.2409C14.6064 14.4183 14.9725 14.7187 15.23 15.1041C15.4875 15.4896 15.625 15.9427 15.625 16.4062C15.625 17.0279 15.3781 17.624 14.9385 18.0635C14.499 18.5031 13.9029 18.75 13.2812 18.75ZM21.0938 18.75C20.6302 18.75 20.1771 18.6125 19.7916 18.355C19.4062 18.0975 19.1058 17.7314 18.9284 17.3032C18.751 16.8749 18.7046 16.4036 18.795 15.949C18.8855 15.4944 19.1087 15.0767 19.4365 14.749C19.7642 14.4212 20.1819 14.198 20.6365 14.1075C21.0912 14.0171 21.5624 14.0635 21.9907 14.2409C22.4189 14.4183 22.785 14.7187 23.0425 15.1041C23.3 15.4896 23.4375 15.9427 23.4375 16.4062C23.4375 17.0279 23.1906 17.624 22.751 18.0635C22.3115 18.5031 21.7154 18.75 21.0938 18.75Z" fill="#5898FF" />
</svg>