<svg width="50" height="50" viewBox="0 0 50 50" fill="none" xmlns="http://www.w3.org/2000/svg">
  <path d="M25.0044 4.6875C21.4975 4.68674 18.0502 5.59392 14.9979 7.32076C11.9456 9.0476 9.39242 11.5353 7.5868 14.5416C5.78119 17.5479 4.78467 20.9706 4.69425 24.4763C4.60384 27.982 5.4226 31.4515 7.07084 34.5469L4.85404 41.1973C4.67042 41.7479 4.64377 42.3388 4.77709 42.9037C4.9104 43.4686 5.19841 43.9852 5.60883 44.3956C6.01925 44.806 6.53587 45.094 7.10078 45.2273C7.66568 45.3607 8.25656 45.334 8.80717 45.1504L15.4576 42.9336C18.1817 44.3825 21.2002 45.1918 24.2838 45.3C27.3674 45.4082 30.4352 44.8125 33.2542 43.5581C36.0732 42.3036 38.5694 40.4235 40.5533 38.0603C42.5372 35.6971 43.9566 32.9131 44.7039 29.9194C45.4512 26.9257 45.5066 23.8012 44.866 20.7829C44.2254 17.7646 42.9056 14.9319 41.0068 12.4998C39.108 10.0678 36.6801 8.10023 33.9074 6.74659C31.1346 5.39295 28.09 4.68877 25.0044 4.6875ZM35.4849 22.9805L29.2349 29.2305C29.0898 29.3757 28.9175 29.491 28.7278 29.5696C28.5381 29.6483 28.3348 29.6887 28.1294 29.6887C27.9241 29.6887 27.7208 29.6483 27.5311 29.5696C27.3414 29.491 27.1691 29.3757 27.024 29.2305L21.8794 24.084L16.7349 29.2305C16.4417 29.5237 16.0441 29.6884 15.6294 29.6884C15.2148 29.6884 14.8172 29.5237 14.524 29.2305C14.2308 28.9373 14.0661 28.5396 14.0661 28.125C14.0661 27.7104 14.2308 27.3127 14.524 27.0195L20.774 20.7695C20.9191 20.6243 21.0914 20.509 21.2811 20.4304C21.4708 20.3517 21.6741 20.3113 21.8794 20.3113C22.0848 20.3113 22.2881 20.3517 22.4778 20.4304C22.6675 20.509 22.8398 20.6243 22.9849 20.7695L28.1294 25.916L33.274 20.7695C33.4191 20.6244 33.5915 20.5092 33.7812 20.4306C33.9708 20.3521 34.1741 20.3116 34.3794 20.3116C34.5847 20.3116 34.788 20.3521 34.9777 20.4306C35.1674 20.5092 35.3397 20.6244 35.4849 20.7695C35.6301 20.9147 35.7452 21.087 35.8238 21.2767C35.9024 21.4664 35.9428 21.6697 35.9428 21.875C35.9428 22.0803 35.9024 22.2836 35.8238 22.4733C35.7452 22.663 35.6301 22.8353 35.4849 22.9805Z" fill="#5898FF" />
</svg>