<svg width="50" height="50" viewBox="0 0 50 50" fill="none" xmlns="http://www.w3.org/2000/svg">
  <path d="M47.8728 11.8513C46.3787 9.27514 42.4334 8.69507 36.447 10.1599C33.5109 7.89826 29.9703 6.55752 26.2725 6.30704C22.5747 6.05656 18.8857 6.90758 15.6713 8.7526C12.4569 10.5976 9.86145 13.3539 8.21272 16.6732C6.56399 19.9925 5.93597 23.726 6.40798 27.4021C0.99392 33.0076 1.07204 36.3279 2.12869 38.1482C3.12478 39.8748 5.2029 40.6248 7.93728 40.6248C9.83576 40.5855 11.723 40.3233 13.5603 39.8435C16.4962 42.1033 20.0357 43.4426 23.7321 43.6926C27.4285 43.9425 31.1161 43.0917 34.3294 41.2477C37.5428 39.4036 40.1378 36.649 41.7869 33.3314C43.436 30.0139 44.0654 26.2821 43.5955 22.6072C46.0388 20.0681 47.6638 17.656 48.2166 15.5916C48.5994 14.1619 48.4842 12.9041 47.8728 11.8513ZM45.199 14.781C44.0056 19.2302 35.697 25.9744 28.1052 30.3357C14.8611 37.9529 5.91384 38.4451 4.83181 36.5857C4.54665 36.0955 4.70486 35.1716 5.2654 34.0466C5.8206 32.9936 6.49424 32.0074 7.27322 31.1072C7.60319 32.0618 8.01012 32.988 8.49001 33.8767C8.56317 34.0166 8.67697 34.131 8.81643 34.2049C8.95588 34.2788 9.11446 34.3087 9.27126 34.2908C10.3887 34.153 11.495 33.9363 12.5818 33.6423C16.7283 32.5583 21.6892 30.4236 26.5506 27.6306C31.4119 24.8376 35.7302 21.6423 38.7478 18.6169C39.5418 17.8315 40.2799 16.9916 40.9568 16.1033C41.0508 15.9767 41.1042 15.8246 41.1102 15.667C41.1161 15.5094 41.0742 15.3538 40.99 15.2205C40.4636 14.363 39.8693 13.5492 39.2127 12.7869C41.9881 12.3279 44.5584 12.363 45.1697 13.4197C45.3494 13.7263 45.3592 14.1853 45.199 14.783V14.781Z" fill="#5898FF" />
</svg>