<svg width="101" height="100" viewBox="0 0 101 100" fill="none" xmlns="http://www.w3.org/2000/svg">
  <g opacity="0.8">
    <path d="M50.75 9.53906C42.7152 9.53906 34.8607 11.912 28.18 16.3577C21.4992 20.8034 16.2922 27.1222 13.2174 34.5152C10.1426 41.9081 9.33809 50.0431 10.9056 57.8914C12.4731 65.7398 16.3423 72.9489 22.0238 78.6072C27.7053 84.2655 34.944 88.1189 42.8245 89.68C50.705 91.2411 58.8733 90.4399 66.2965 87.3777C73.7198 84.3154 80.0645 79.1296 84.5285 72.4762C88.9924 65.8227 91.375 58.0003 91.375 49.9982C91.3636 39.2713 87.0799 28.9869 79.4637 21.4018C71.8475 13.8167 61.521 9.55039 50.75 9.53906ZM66.5899 52.5581L46.2774 66.5632C45.8084 66.8861 45.2597 67.0751 44.6907 67.1098C44.1216 67.1444 43.5539 67.0233 43.0489 66.7597C42.544 66.496 42.1211 66.0998 41.8261 65.614C41.531 65.1281 41.375 64.5712 41.375 64.0034V35.9931C41.375 35.4253 41.531 34.8684 41.8261 34.3825C42.1211 33.8967 42.544 33.5005 43.0489 33.2368C43.5539 32.9732 44.1216 32.8521 44.6907 32.8867C45.2597 32.9214 45.8084 33.1104 46.2774 33.4333L66.5899 47.4384C67.0056 47.7248 67.3454 48.1072 67.5801 48.5531C67.8149 48.9989 67.9375 49.4948 67.9375 49.9982C67.9375 50.5017 67.8149 50.9976 67.5801 51.4434C67.3454 51.8893 67.0056 52.2717 66.5899 52.5581Z" fill="white" />
  </g>
</svg>