<svg width="20" height="20" viewBox="0 0 20 20" fill="none" xmlns="http://www.w3.org/2000/svg">
  <rect width="20" height="20" rx="5" fill="#2894D9" />
  <path fill-rule="evenodd" clip-rule="evenodd" d="M8.27514 11.7396C9.35294 12.3899 10.7351 12.3727 11.7949 11.6967C12.8569 11.0186 13.3992 9.81145 13.1794 8.61505C12.9573 7.4165 12.017 6.45508 10.7769 6.16323C9.53783 5.86922 8.23343 6.30165 7.44988 7.26199C7.01132 7.79956 6.77344 8.40259 6.77344 9.58827L6.77344 13.9297H8.27514V11.7396ZM8.27514 9.14404C8.27514 6.94974 11.734 6.95189 11.734 9.14619C11.7318 10.055 10.9584 10.7922 10.0023 10.789C9.04629 10.789 8.27289 10.0529 8.27514 9.14404Z" fill="white" />
</svg>