<svg width="50" height="50" viewBox="0 0 50 50" fill="none" xmlns="http://www.w3.org/2000/svg">
  <path d="M45.7631 22.4314L36.974 30.0154L39.6517 41.3572C39.7995 41.9728 39.7614 42.6185 39.5424 43.2126C39.3234 43.8067 38.9332 44.3225 38.4211 44.695C37.9091 45.0674 37.2982 45.2797 36.6655 45.3051C36.0328 45.3305 35.4068 45.1678 34.8666 44.8376L25.0033 38.7673L15.1342 44.8376C14.594 45.1659 13.9687 45.3271 13.3372 45.3007C12.7056 45.2744 12.0959 45.0618 11.5849 44.6897C11.074 44.3176 10.6845 43.8026 10.4656 43.2095C10.2467 42.6165 10.2082 41.972 10.3549 41.3572L13.0424 30.0154L4.2533 22.4314C3.77536 22.0183 3.42971 21.4736 3.25951 20.8652C3.08931 20.2569 3.10211 19.6119 3.29629 19.0108C3.49048 18.4097 3.85746 17.8791 4.3514 17.4853C4.84534 17.0915 5.44434 16.852 6.07361 16.7966L17.597 15.8669L22.0424 5.1091C22.283 4.52281 22.6925 4.02131 23.2189 3.66836C23.7452 3.31541 24.3647 3.12695 24.9984 3.12695C25.6322 3.12695 26.2516 3.31541 26.778 3.66836C27.3043 4.02131 27.7139 4.52281 27.9545 5.1091L32.3978 15.8669L43.9213 16.7966C44.5518 16.8499 45.1525 17.0881 45.6483 17.4814C46.144 17.8746 46.5127 18.4054 46.7081 19.0073C46.9035 19.6091 46.9169 20.2552 46.7467 20.8647C46.5765 21.4741 46.2303 22.0198 45.7513 22.4333L45.7631 22.4314Z" fill="#5898FF" />
</svg>