<svg width="20" height="20" viewBox="0 0 20 20" fill="none" xmlns="http://www.w3.org/2000/svg">
  <rect width="20" height="20" rx="5" fill="#00AF8F" />
  <path d="M8.64355 7.61523C7.47671 7.61523 6.87681 8.25806 6.87681 8.97818C6.87681 9.70471 7.31855 10.0585 8.13613 10.2641L8.72939 10.412C9.31626 10.5598 9.58632 10.6949 9.58632 11.0034C9.58632 11.4342 9.11161 11.5886 8.70947 11.5886C8.04365 11.5886 7.65454 11.3055 7.41079 10.9199L6.63281 11.3377C7.048 12.0835 7.81294 12.3858 8.59091 12.3858C9.42177 12.3858 10.5028 12.0451 10.5028 10.9199C10.5028 10.0457 9.79071 9.7628 9.05898 9.58923L8.57124 9.47352C8.07685 9.35781 7.78662 9.21625 7.78662 8.92697C7.78662 8.44467 8.39316 8.38041 8.59091 8.38041C9.32265 8.38041 9.56664 8.82406 9.69184 9.03628L10.4568 8.59263C9.90263 7.73118 9.05898 7.61523 8.64355 7.61523Z" fill="white" />
  <path d="M13.3674 7.61523H12.5127V10.5906C12.5127 11.0586 12.4864 11.4307 11.8159 11.4307C11.6843 11.4307 11.5923 11.4179 11.3557 11.3667V12.1809C11.612 12.2388 11.7829 12.2388 11.8948 12.2388C13.2294 12.2388 13.3677 11.4565 13.3677 10.7959L13.3674 7.61523Z" fill="white" />
</svg>