<svg width="50" height="50" viewBox="0 0 50 50" fill="none" xmlns="http://www.w3.org/2000/svg">
  <path d="M43.75 9.375H6.25C5.4212 9.375 4.62634 9.70424 4.04029 10.2903C3.45424 10.8763 3.125 11.6712 3.125 12.5V37.5C3.125 38.3288 3.45424 39.1237 4.04029 39.7097C4.62634 40.2958 5.4212 40.625 6.25 40.625H43.75C44.5788 40.625 45.3737 40.2958 45.9597 39.7097C46.5458 39.1237 46.875 38.3288 46.875 37.5V12.5C46.875 11.6712 46.5458 10.8763 45.9597 10.2903C45.3737 9.70424 44.5788 9.375 43.75 9.375ZM21.875 32.8125H15.625C13.553 32.8125 11.5659 31.9894 10.1007 30.5243C8.6356 29.0591 7.8125 27.072 7.8125 25C7.8125 22.928 8.6356 20.9409 10.1007 19.4757C11.5659 18.0106 13.553 17.1875 15.625 17.1875H21.875C22.2894 17.1875 22.6868 17.3521 22.9799 17.6451C23.2729 17.9382 23.4375 18.3356 23.4375 18.75C23.4375 19.1644 23.2729 19.5618 22.9799 19.8549C22.6868 20.1479 22.2894 20.3125 21.875 20.3125H15.625C14.3818 20.3125 13.1895 20.8064 12.3104 21.6854C11.4314 22.5645 10.9375 23.7568 10.9375 25C10.9375 26.2432 11.4314 27.4355 12.3104 28.3146C13.1895 29.1936 14.3818 29.6875 15.625 29.6875H21.875C22.2894 29.6875 22.6868 29.8521 22.9799 30.1451C23.2729 30.4382 23.4375 30.8356 23.4375 31.25C23.4375 31.6644 23.2729 32.0618 22.9799 32.3549C22.6868 32.6479 22.2894 32.8125 21.875 32.8125ZM31.25 23.4375C31.6644 23.4375 32.0618 23.6021 32.3549 23.8951C32.6479 24.1882 32.8125 24.5856 32.8125 25C32.8125 25.4144 32.6479 25.8118 32.3549 26.1049C32.0618 26.3979 31.6644 26.5625 31.25 26.5625H18.75C18.3356 26.5625 17.9382 26.3979 17.6451 26.1049C17.3521 25.8118 17.1875 25.4144 17.1875 25C17.1875 24.5856 17.3521 24.1882 17.6451 23.8951C17.9382 23.6021 18.3356 23.4375 18.75 23.4375H31.25ZM34.375 32.8125H28.125C27.7106 32.8125 27.3132 32.6479 27.0201 32.3549C26.7271 32.0618 26.5625 31.6644 26.5625 31.25C26.5625 30.8356 26.7271 30.4382 27.0201 30.1451C27.3132 29.8521 27.7106 29.6875 28.125 29.6875H34.375C35.6182 29.6875 36.8105 29.1936 37.6896 28.3146C38.5686 27.4355 39.0625 26.2432 39.0625 25C39.0625 23.7568 38.5686 22.5645 37.6896 21.6854C36.8105 20.8064 35.6182 20.3125 34.375 20.3125H28.125C27.7106 20.3125 27.3132 20.1479 27.0201 19.8549C26.7271 19.5618 26.5625 19.1644 26.5625 18.75C26.5625 18.3356 26.7271 17.9382 27.0201 17.6451C27.3132 17.3521 27.7106 17.1875 28.125 17.1875H34.375C36.447 17.1875 38.4341 18.0106 39.8993 19.4757C41.3644 20.9409 42.1875 22.928 42.1875 25C42.1875 27.072 41.3644 29.0591 39.8993 30.5243C38.4341 31.9894 36.447 32.8125 34.375 32.8125Z" fill="#5898FF" />
</svg>