<svg width="41" height="40" viewBox="0 0 41 40" fill="none" xmlns="http://www.w3.org/2000/svg">
  <rect x="0.835938" width="40" height="40" rx="10" fill="url(#paint0_radial_5058_16363)" />
  <path d="M21.2077 26.9205C22.2012 23.8285 24.614 21.4017 27.6655 20.377C27.8784 20.3051 27.9849 20.0714 27.9139 19.8737C27.8784 19.7478 27.7897 19.658 27.6655 19.622C24.5963 18.6153 22.2012 16.1885 21.2077 13.0785C21.1367 12.8628 20.906 12.755 20.7109 12.8269C20.5867 12.8628 20.498 12.9527 20.4625 13.0785C19.4513 16.1885 17.0562 18.6153 14.0046 19.622C13.7918 19.6939 13.6853 19.9276 13.7563 20.1253C13.7918 20.2512 13.8805 20.3411 14.0046 20.377C17.0562 21.3837 19.4513 23.8105 20.4625 26.9205C20.5335 27.1362 20.7641 27.244 20.9593 27.1721C21.0657 27.1362 21.1544 27.0463 21.2077 26.9205Z" fill="white" />
  <path opacity="0.8" d="M14 20.3779C17.0515 21.3846 19.4466 23.8114 20.4579 26.9214C20.5288 27.1371 20.7595 27.245 20.9546 27.1731C21.0788 27.1371 21.1675 27.0472 21.203 26.9214C22.1965 23.8294 24.6094 21.4026 27.6609 20.3779C26.2061 20.8633 23.7578 21.2408 20.8304 21.2408C17.9031 21.2408 15.4371 20.8633 14 20.3779Z" fill="white" />
  <defs>
    <radialGradient id="paint0_radial_5058_16363" cx="0" cy="0" r="1" gradientUnits="userSpaceOnUse" gradientTransform="translate(39.6756 -0.830261) scale(44.5863)">
      <stop offset="0.2281" stop-color="#00FFFE" />
      <stop offset="0.3047" stop-color="#11F3FE" />
      <stop offset="0.4569" stop-color="#3ED3FE" />
      <stop offset="0.6706" stop-color="#86A0FF" />
      <stop offset="0.9352" stop-color="#E95AFF" />
      <stop offset="0.9531" stop-color="#F055FF" />
    </radialGradient>
  </defs>
</svg>