<svg width="50" height="50" viewBox="0 0 50 50" fill="none" xmlns="http://www.w3.org/2000/svg">
  <rect width="50" height="50" rx="10" fill="url(#paint0_radial_5154_12431)" />
  <path d="M25.4666 33.6506C26.7085 29.7856 29.7245 26.7521 33.5389 25.4713C33.805 25.3814 33.9381 25.0893 33.8494 24.8421C33.805 24.6848 33.6942 24.5724 33.5389 24.5275C29.7023 23.2691 26.7085 20.2356 25.4666 16.3482C25.3779 16.0785 25.0896 15.9437 24.8456 16.0336C24.6904 16.0785 24.5795 16.1909 24.5352 16.3482C23.2711 20.2356 20.2772 23.2691 16.4628 24.5275C16.1967 24.6174 16.0637 24.9095 16.1524 25.1567C16.1967 25.314 16.3076 25.4263 16.4628 25.4713C20.2772 26.7296 23.2711 29.7632 24.5352 33.6506C24.6239 33.9202 24.9122 34.0551 25.1561 33.9652C25.2892 33.9202 25.4001 33.8079 25.4666 33.6506Z" fill="white" />
  <path opacity="0.8" d="M16.4609 25.4727C20.2753 26.731 23.2692 29.7646 24.5333 33.652C24.622 33.9216 24.9103 34.0564 25.1542 33.9666C25.3095 33.9216 25.4203 33.8093 25.4647 33.652C26.7066 29.787 29.7226 26.7535 33.537 25.4727C31.7185 26.0794 28.6581 26.5512 24.999 26.5512C21.3398 26.5512 18.2573 26.0794 16.4609 25.4727Z" fill="white" />
  <defs>
    <radialGradient id="paint0_radial_5154_12431" cx="0" cy="0" r="1" gradientUnits="userSpaceOnUse" gradientTransform="translate(48.5495 -1.03783) scale(55.7329)">
      <stop offset="0.2281" stop-color="#00FFFE" />
      <stop offset="0.3047" stop-color="#11F3FE" />
      <stop offset="0.4569" stop-color="#3ED3FE" />
      <stop offset="0.6706" stop-color="#86A0FF" />
      <stop offset="0.9352" stop-color="#E95AFF" />
      <stop offset="0.9531" stop-color="#F055FF" />
    </radialGradient>
  </defs>
</svg>