<svg width="20" height="20" viewBox="0 0 20 20" fill="none" xmlns="http://www.w3.org/2000/svg">
  <rect width="20" height="20" rx="5" fill="#FFCD28" />
  <path d="M6.91406 13.2554V12.0844C6.91406 11.9157 7.06918 11.8021 7.20837 11.8691C7.85748 12.1824 8.56949 12.3336 9.34439 12.3336C10.4059 12.3336 11.0205 12.0083 11.0205 11.4347C11.0205 10.923 10.6156 10.675 9.79142 10.675H8.6361C8.51801 10.675 8.4226 10.5688 8.4226 10.4382V9.33069C8.4226 9.19992 8.51814 9.09375 8.6361 9.09375H9.79142C10.4619 9.09375 10.7972 8.86152 10.7972 8.41193C10.7972 7.91582 10.3222 7.66783 9.37252 7.66783C8.64167 7.66783 7.98274 7.79344 7.39599 8.05395C7.25852 8.11491 7.10991 8.00137 7.10991 7.83674V6.71977C7.10991 6.57443 7.19085 6.44631 7.31213 6.39153C7.9911 6.08494 8.82929 5.93164 9.80535 5.93164C10.6575 5.93164 11.3698 6.13309 11.9423 6.53614C12.515 6.9389 12.8082 7.45062 12.8082 8.05527C12.8082 8.84664 12.5194 9.38414 11.9418 9.65569C11.8975 9.67645 11.8994 9.74876 11.9444 9.76775C12.6006 10.0453 13.0877 10.6465 13.0877 11.5581C13.0877 12.2871 12.7666 12.8917 12.1242 13.3716C11.4954 13.8373 10.6573 14.0696 9.62383 14.0696C8.62004 14.0696 7.78968 13.9024 7.11137 13.5805C6.99301 13.5246 6.91406 13.3981 6.91406 13.2554Z" fill="black" />
</svg>