<svg width="243" height="16" viewBox="0 0 243 16" fill="none" xmlns="http://www.w3.org/2000/svg">
  <path fill-rule="evenodd" clip-rule="evenodd" d="M37.4648 7.75336C37.4648 12.0352 33.9939 15.5067 29.7129 15.5067C25.4319 15.5067 21.9609 12.0352 21.9609 7.75336C21.9609 3.47157 25.4319 0 29.7129 0C33.9939 0 37.4648 3.47157 37.4648 7.75336Z" fill="#495583" />
  <path fill-rule="evenodd" clip-rule="evenodd" d="M34.5572 8.72265C34.5572 10.8637 32.8216 12.5996 30.6809 12.5996C28.5403 12.5996 26.8047 10.8637 26.8047 8.72265C26.8047 6.58161 28.5403 4.8457 30.6809 4.8457C32.8216 4.8457 34.5572 6.58161 34.5572 8.72265Z" fill="#5D6996" />
  <path fill-rule="evenodd" clip-rule="evenodd" d="M8.39256 7.75097C8.39256 9.8905 6.65613 11.6269 4.51659 11.6269C2.37706 11.6269 0.640625 9.8905 0.640625 7.75097C0.640625 5.61143 2.37706 3.875 4.51659 3.875C6.65613 3.875 8.39256 5.61143 8.39256 7.75097Z" fill="#495583" />
  <path fill-rule="evenodd" clip-rule="evenodd" d="M242.604 7.75097C242.604 9.89223 240.869 11.6269 238.728 11.6269C236.588 11.6269 234.852 9.89223 234.852 7.75097C234.852 5.60971 236.588 3.875 238.728 3.875C240.869 3.875 242.604 5.60971 242.604 7.75097Z" fill="#495583" />
  <path fill-rule="evenodd" clip-rule="evenodd" d="M226.128 7.75145C226.128 10.9627 223.525 13.5654 220.314 13.5654C217.103 13.5654 214.5 10.9627 214.5 7.75145C214.5 4.54021 217.103 1.9375 220.314 1.9375C223.525 1.9375 226.128 4.54021 226.128 7.75145Z" fill="#495583" />
  <rect x="103.352" y="4.41016" width="54.2636" height="6.78295" rx="3.39147" fill="#49547F" />
</svg>