<svg width="21" height="20" viewBox="0 0 21 20" fill="none" xmlns="http://www.w3.org/2000/svg">
  <path d="M17.375 3.75H14.5625V2.8125C14.5625 2.23234 14.332 1.67594 13.9218 1.2657C13.5116 0.855468 12.9552 0.625 12.375 0.625H8.625C8.04484 0.625 7.48844 0.855468 7.0782 1.2657C6.66797 1.67594 6.4375 2.23234 6.4375 2.8125V3.75H3.625C3.37636 3.75 3.1379 3.84877 2.96209 4.02459C2.78627 4.2004 2.6875 4.43886 2.6875 4.6875C2.6875 4.93614 2.78627 5.1746 2.96209 5.35041C3.1379 5.52623 3.37636 5.625 3.625 5.625H3.9375V16.25C3.9375 16.6644 4.10212 17.0618 4.39515 17.3549C4.68817 17.6479 5.0856 17.8125 5.5 17.8125H15.5C15.9144 17.8125 16.3118 17.6479 16.6049 17.3549C16.8979 17.0618 17.0625 16.6644 17.0625 16.25V5.625H17.375C17.6236 5.625 17.8621 5.52623 18.0379 5.35041C18.2137 5.1746 18.3125 4.93614 18.3125 4.6875C18.3125 4.43886 18.2137 4.2004 18.0379 4.02459C17.8621 3.84877 17.6236 3.75 17.375 3.75ZM8.3125 2.8125C8.3125 2.72962 8.34542 2.65013 8.40403 2.59153C8.46263 2.53292 8.54212 2.5 8.625 2.5H12.375C12.4579 2.5 12.5374 2.53292 12.596 2.59153C12.6546 2.65013 12.6875 2.72962 12.6875 2.8125V3.75H8.3125V2.8125ZM15.1875 15.9375H5.8125V5.625H15.1875V15.9375ZM9.5625 8.125V13.125C9.5625 13.3736 9.46373 13.6121 9.28791 13.7879C9.1121 13.9637 8.87364 14.0625 8.625 14.0625C8.37636 14.0625 8.1379 13.9637 7.96209 13.7879C7.78627 13.6121 7.6875 13.3736 7.6875 13.125V8.125C7.6875 7.87636 7.78627 7.6379 7.96209 7.46209C8.1379 7.28627 8.37636 7.1875 8.625 7.1875C8.87364 7.1875 9.1121 7.28627 9.28791 7.46209C9.46373 7.6379 9.5625 7.87636 9.5625 8.125ZM13.3125 8.125V13.125C13.3125 13.3736 13.2137 13.6121 13.0379 13.7879C12.8621 13.9637 12.6236 14.0625 12.375 14.0625C12.1264 14.0625 11.8879 13.9637 11.7121 13.7879C11.5363 13.6121 11.4375 13.3736 11.4375 13.125V8.125C11.4375 7.87636 11.5363 7.6379 11.7121 7.46209C11.8879 7.28627 12.1264 7.1875 12.375 7.1875C12.6236 7.1875 12.8621 7.28627 13.0379 7.46209C13.2137 7.6379 13.3125 7.87636 13.3125 8.125Z" fill="#8D47FF" />
</svg>