<svg width="21" height="20" viewBox="0 0 21 20" fill="none" xmlns="http://www.w3.org/2000/svg">
  <path d="M18.3125 10C18.3127 12.054 17.504 14.0254 16.0614 15.4876C14.6188 16.9498 12.6585 17.785 10.6047 17.8125H10.5C8.50552 17.8167 6.58591 17.0533 5.13906 15.6805C4.95828 15.5097 4.85273 15.2742 4.84562 15.0256C4.83851 14.7771 4.93044 14.5359 5.10117 14.3551C5.27191 14.1743 5.50746 14.0688 5.75602 14.0616C6.00458 14.0545 6.24578 14.1465 6.42656 14.3172C7.27519 15.1184 8.34111 15.6517 9.49112 15.8505C10.6411 16.0493 11.8242 15.9048 12.8926 15.435C13.9609 14.9653 14.8671 14.191 15.498 13.2091C16.1288 12.2273 16.4563 11.0812 16.4395 9.91428C16.4227 8.74733 16.0623 7.61121 15.4035 6.64789C14.7446 5.68458 13.8165 4.93679 12.7351 4.49798C11.6536 4.05916 10.4668 3.94879 9.32303 4.18064C8.17922 4.41249 7.12911 4.97629 6.30391 5.80157C6.29375 5.81173 6.28438 5.82111 6.27344 5.83048L4.78828 7.18751H6.125C6.37364 7.18751 6.6121 7.28628 6.78791 7.4621C6.96373 7.63791 7.0625 7.87637 7.0625 8.12501C7.0625 8.37365 6.96373 8.61211 6.78791 8.78792C6.6121 8.96374 6.37364 9.06251 6.125 9.06251H2.375C2.12636 9.06251 1.8879 8.96374 1.71209 8.78792C1.53627 8.61211 1.4375 8.37365 1.4375 8.12501V4.37501C1.4375 4.12637 1.53627 3.88791 1.71209 3.7121C1.8879 3.53628 2.12636 3.43751 2.375 3.43751C2.62364 3.43751 2.8621 3.53628 3.03791 3.7121C3.21373 3.88791 3.3125 4.12637 3.3125 4.37501V5.99376L4.99062 4.45782C6.08508 3.36925 7.47748 2.6293 8.99209 2.33136C10.5067 2.03341 12.0756 2.19084 13.5008 2.78376C14.9261 3.37668 16.1437 4.37853 17.0001 5.66284C17.8564 6.94716 18.3131 8.45638 18.3125 10Z" fill="#8D47FF" />
</svg>