<svg width="17" height="16" viewBox="0 0 17 16" fill="none" xmlns="http://www.w3.org/2000/svg">
  <path d="M14.0326 6.53122L9.03255 11.5312C8.96287 11.6011 8.88008 11.6566 8.78892 11.6945C8.69775 11.7323 8.60001 11.7518 8.5013 11.7518C8.40259 11.7518 8.30485 11.7323 8.21369 11.6945C8.12252 11.6566 8.03973 11.6011 7.97005 11.5312L2.97005 6.53122C2.82915 6.39033 2.75 6.19923 2.75 5.99997C2.75 5.80072 2.82915 5.60962 2.97005 5.46872C3.11095 5.32783 3.30204 5.24867 3.5013 5.24867C3.70056 5.24867 3.89165 5.32783 4.03255 5.46872L8.50193 9.9381L12.9713 5.4681C13.1122 5.3272 13.3033 5.24805 13.5026 5.24805C13.7018 5.24805 13.8929 5.3272 14.0338 5.4681C14.1747 5.60899 14.2539 5.80009 14.2539 5.99935C14.2539 6.19861 14.1747 6.3897 14.0338 6.5306L14.0326 6.53122Z" fill="currentColor" />
</svg>