<svg width="17" height="18" viewBox="0 0 17 18" fill="none" xmlns="http://www.w3.org/2000/svg">
  <path d="M15.1413 9.00072C15.1413 9.21206 15.0573 9.41475 14.9079 9.56419C14.7584 9.71364 14.5557 9.79759 14.3444 9.79759H4.58266L8.00391 13.2182C8.15361 13.3679 8.23771 13.5709 8.23771 13.7826C8.23771 13.9943 8.15361 14.1974 8.00391 14.3471C7.85421 14.4968 7.65117 14.5809 7.43946 14.5809C7.22775 14.5809 7.02471 14.4968 6.875 14.3471L2.09375 9.56583C2.01946 9.4918 1.96052 9.40383 1.9203 9.30697C1.88008 9.21011 1.85938 9.10626 1.85938 9.00138C1.85937 8.8965 1.88008 8.79265 1.9203 8.69579C1.96052 8.59893 2.01946 8.51096 2.09375 8.43693L6.875 3.65568C6.94913 3.58155 7.03713 3.52275 7.13398 3.48264C7.23083 3.44252 7.33463 3.42188 7.43946 3.42188C7.54428 3.42188 7.64809 3.44252 7.74494 3.48264C7.84179 3.52275 7.92978 3.58155 8.00391 3.65568C8.07803 3.7298 8.13683 3.8178 8.17695 3.91465C8.21707 4.0115 8.23771 4.1153 8.23771 4.22013C8.23771 4.32496 8.21707 4.42876 8.17695 4.52561C8.13683 4.62246 8.07803 4.71046 8.00391 4.78459L4.58266 8.20384H14.3444C14.5557 8.20384 14.7584 8.2878 14.9079 8.43724C15.0573 8.58669 15.1413 8.78937 15.1413 9.00072Z" fill="#5898FF" />
</svg>