<svg width="17" height="16" viewBox="0 0 17 16" fill="none" xmlns="http://www.w3.org/2000/svg">
  <path d="M2.96745 9.46878L7.96745 4.46878C8.03713 4.39886 8.11992 4.34338 8.21109 4.30553C8.30225 4.26767 8.39999 4.24818 8.4987 4.24818C8.59741 4.24818 8.69515 4.26767 8.78631 4.30553C8.87748 4.34338 8.96027 4.39886 9.02995 4.46878L14.0299 9.46878C14.1708 9.60967 14.25 9.80077 14.25 10C14.25 10.1993 14.1708 10.3904 14.0299 10.5313C13.8891 10.6722 13.698 10.7513 13.4987 10.7513C13.2994 10.7513 13.1083 10.6722 12.9674 10.5313L8.49807 6.0619L4.0287 10.5319C3.8878 10.6728 3.69671 10.752 3.49745 10.752C3.29819 10.752 3.1071 10.6728 2.9662 10.5319C2.8253 10.391 2.74615 10.1999 2.74615 10.0007C2.74615 9.80139 2.8253 9.6103 2.9662 9.4694L2.96745 9.46878Z" fill="currentColor" />
</svg>