<svg width="16" height="15" viewBox="0 0 16 15" fill="none" xmlns="http://www.w3.org/2000/svg">
  <path d="M12.4549 3.75V9.84375C12.4549 10.0302 12.3809 10.2091 12.249 10.3409C12.1171 10.4728 11.9383 10.5469 11.7518 10.5469C11.5653 10.5469 11.3865 10.4728 11.2546 10.3409C11.1228 10.2091 11.0487 10.0302 11.0487 9.84375V5.44922L4.74927 11.7475C4.61718 11.8796 4.43802 11.9538 4.25122 11.9538C4.06442 11.9538 3.88526 11.8796 3.75317 11.7475C3.62108 11.6154 3.54688 11.4362 3.54688 11.2494C3.54687 11.0626 3.62108 10.8835 3.75317 10.7514L10.0526 4.45312H5.65806C5.47158 4.45312 5.29273 4.37905 5.16087 4.24718C5.02901 4.11532 4.95493 3.93648 4.95493 3.75C4.95493 3.56352 5.02901 3.38468 5.16087 3.25282C5.29273 3.12095 5.47158 3.04688 5.65806 3.04688H11.7518C11.9383 3.04688 12.1171 3.12095 12.249 3.25282C12.3809 3.38468 12.4549 3.56352 12.4549 3.75Z" fill="#79869A" />
</svg>