<svg width="21" height="20" viewBox="0 0 21 20" fill="none" xmlns="http://www.w3.org/2000/svg">
  <path d="M18.3132 10.0008C18.3132 10.2495 18.2145 10.4879 18.0387 10.6638C17.8628 10.8396 17.6244 10.9383 17.3757 10.9383H5.89136L9.91636 14.9626C10.0925 15.1387 10.1914 15.3776 10.1914 15.6266C10.1914 15.8757 10.0925 16.1146 9.91636 16.2907C9.74024 16.4668 9.50137 16.5658 9.2523 16.5658C9.00323 16.5658 8.76436 16.4668 8.58824 16.2907L2.96324 10.6657C2.87584 10.5786 2.80649 10.4751 2.75917 10.3611C2.71186 10.2472 2.6875 10.125 2.6875 10.0016C2.6875 9.87824 2.71186 9.75606 2.75917 9.64211C2.80649 9.52815 2.87584 9.42466 2.96324 9.33756L8.58824 3.71256C8.67544 3.62536 8.77897 3.55618 8.89291 3.50899C9.00685 3.46179 9.12897 3.4375 9.2523 3.4375C9.37563 3.4375 9.49775 3.46179 9.61169 3.50899C9.72563 3.55618 9.82916 3.62536 9.91636 3.71256C10.0036 3.79977 10.0727 3.9033 10.1199 4.01724C10.1671 4.13118 10.1914 4.2533 10.1914 4.37663C10.1914 4.49995 10.1671 4.62207 10.1199 4.73601C10.0727 4.84995 10.0036 4.95348 9.91636 5.04069L5.89136 9.06334H17.3757C17.6244 9.06335 17.8628 9.16212 18.0387 9.33793C18.2145 9.51375 18.3132 9.7522 18.3132 10.0008Z" fill="currentColor" />
</svg>