<svg width="18" height="17" viewBox="0 0 18 17" fill="none" xmlns="http://www.w3.org/2000/svg">
  <path d="M14.8438 3.1875H12.1875V2.65625C12.1875 2.23356 12.0196 1.82818 11.7207 1.5293C11.4218 1.23041 11.0164 1.0625 10.5938 1.0625H7.40625C6.98356 1.0625 6.57818 1.23041 6.2793 1.5293C5.98041 1.82818 5.8125 2.23356 5.8125 2.65625V3.1875H3.15625C3.01535 3.1875 2.88023 3.24347 2.7806 3.3431C2.68097 3.44273 2.625 3.57785 2.625 3.71875C2.625 3.85965 2.68097 3.99477 2.7806 4.0944C2.88023 4.19403 3.01535 4.25 3.15625 4.25H3.6875V13.8125C3.6875 14.0943 3.79944 14.3645 3.9987 14.5638C4.19796 14.7631 4.46821 14.875 4.75 14.875H13.25C13.5318 14.875 13.802 14.7631 14.0013 14.5638C14.2006 14.3645 14.3125 14.0943 14.3125 13.8125V4.25H14.8438C14.9846 4.25 15.1198 4.19403 15.2194 4.0944C15.319 3.99477 15.375 3.85965 15.375 3.71875C15.375 3.57785 15.319 3.44273 15.2194 3.3431C15.1198 3.24347 14.9846 3.1875 14.8438 3.1875ZM7.9375 11.1562C7.9375 11.2971 7.88153 11.4323 7.7819 11.5319C7.68227 11.6315 7.54715 11.6875 7.40625 11.6875C7.26535 11.6875 7.13023 11.6315 7.0306 11.5319C6.93097 11.4323 6.875 11.2971 6.875 11.1562V6.90625C6.875 6.76535 6.93097 6.63023 7.0306 6.5306C7.13023 6.43097 7.26535 6.375 7.40625 6.375C7.54715 6.375 7.68227 6.43097 7.7819 6.5306C7.88153 6.63023 7.9375 6.76535 7.9375 6.90625V11.1562ZM11.125 11.1562C11.125 11.2971 11.069 11.4323 10.9694 11.5319C10.8698 11.6315 10.7346 11.6875 10.5938 11.6875C10.4529 11.6875 10.3177 11.6315 10.2181 11.5319C10.1185 11.4323 10.0625 11.2971 10.0625 11.1562V6.90625C10.0625 6.76535 10.1185 6.63023 10.2181 6.5306C10.3177 6.43097 10.4529 6.375 10.5938 6.375C10.7346 6.375 10.8698 6.43097 10.9694 6.5306C11.069 6.63023 11.125 6.76535 11.125 6.90625V11.1562ZM11.125 3.1875H6.875V2.65625C6.875 2.51535 6.93097 2.38023 7.0306 2.2806C7.13023 2.18097 7.26535 2.125 7.40625 2.125H10.5938C10.7346 2.125 10.8698 2.18097 10.9694 2.2806C11.069 2.38023 11.125 2.51535 11.125 2.65625V3.1875Z" fill="#F50A0A" />
</svg>