<svg width="20" height="21" viewBox="0 0 20 21" fill="none" xmlns="http://www.w3.org/2000/svg">
  <path d="M13.1241 18C13.1241 18.1658 13.0582 18.3247 12.941 18.4419C12.8238 18.5592 12.6649 18.625 12.4991 18.625H7.49909C7.33333 18.625 7.17436 18.5592 7.05715 18.4419C6.93994 18.3247 6.87409 18.1658 6.87409 18C6.87409 17.8342 6.93994 17.6753 7.05715 17.5581C7.17436 17.4408 7.33333 17.375 7.49909 17.375H12.4991C12.6649 17.375 12.8238 17.4408 12.941 17.5581C13.0582 17.6753 13.1241 17.8342 13.1241 18ZM17.328 14.2453C16.8936 13.4984 16.2491 11.3852 16.2491 8.625C16.2491 6.9674 15.5906 5.37769 14.4185 4.20558C13.2464 3.03348 11.6567 2.375 9.99909 2.375C8.34149 2.375 6.75178 3.03348 5.57968 4.20558C4.40757 5.37769 3.74909 6.9674 3.74909 8.625C3.74909 11.3859 3.10378 13.4984 2.67019 14.2453C2.55946 14.4352 2.50076 14.6509 2.50001 14.8707C2.49925 15.0905 2.55647 15.3066 2.66589 15.4973C2.77531 15.6879 2.93306 15.8463 3.12324 15.9565C3.31342 16.0667 3.52929 16.1248 3.74909 16.125H16.2491C16.4688 16.1247 16.6846 16.0665 16.8747 15.9562C17.0647 15.846 17.2224 15.6875 17.3317 15.4969C17.441 15.3063 17.4982 15.0903 17.4974 14.8705C17.4966 14.6508 17.4379 14.4351 17.3272 14.2453H17.328Z" fill="white" fill-opacity="0.8" />
</svg>