<svg width="21" height="20" viewBox="0 0 21 20" fill="none" xmlns="http://www.w3.org/2000/svg">
  <path d="M14.9594 8.94219C15.4101 8.39321 15.6957 7.72751 15.7828 7.02256C15.87 6.3176 15.7551 5.6024 15.4516 4.96019C15.1481 4.31797 14.6684 3.77517 14.0684 3.39496C13.4685 3.01474 12.7728 2.81275 12.0625 2.8125H6.75C6.50136 2.8125 6.2629 2.91127 6.08709 3.08709C5.91127 3.2629 5.8125 3.50136 5.8125 3.75V15.625C5.8125 15.8736 5.91127 16.1121 6.08709 16.2879C6.2629 16.4637 6.50136 16.5625 6.75 16.5625H13C13.901 16.5621 14.7764 16.2622 15.4883 15.7099C16.2003 15.1576 16.7084 14.3843 16.9328 13.5117C17.1572 12.639 17.0851 11.7165 16.7278 10.8893C16.3706 10.0621 15.7485 9.37715 14.9594 8.94219ZM7.6875 4.6875H12.0625C12.5598 4.6875 13.0367 4.88504 13.3883 5.23667C13.74 5.58831 13.9375 6.06522 13.9375 6.5625C13.9375 7.05978 13.74 7.53669 13.3883 7.88833C13.0367 8.23996 12.5598 8.4375 12.0625 8.4375H7.6875V4.6875ZM13 14.6875H7.6875V10.3125H13C13.5802 10.3125 14.1366 10.543 14.5468 10.9532C14.957 11.3634 15.1875 11.9198 15.1875 12.5C15.1875 13.0802 14.957 13.6366 14.5468 14.0468C14.1366 14.457 13.5802 14.6875 13 14.6875Z" fill="currentColor" />
</svg>