<svg width="20" height="21" viewBox="0 0 20 21" fill="none" xmlns="http://www.w3.org/2000/svg">
  <path d="M16.25 3H14.375V2.375C14.375 2.20924 14.3092 2.05027 14.1919 1.93306C14.0747 1.81585 13.9158 1.75 13.75 1.75C13.5842 1.75 13.4253 1.81585 13.3081 1.93306C13.1908 2.05027 13.125 2.20924 13.125 2.375V3H6.875V2.375C6.875 2.20924 6.80915 2.05027 6.69194 1.93306C6.57473 1.81585 6.41576 1.75 6.25 1.75C6.08424 1.75 5.92527 1.81585 5.80806 1.93306C5.69085 2.05027 5.625 2.20924 5.625 2.375V3H3.75C3.41848 3 3.10054 3.1317 2.86612 3.36612C2.6317 3.60054 2.5 3.91848 2.5 4.25V16.75C2.5 17.0815 2.6317 17.3995 2.86612 17.6339C3.10054 17.8683 3.41848 18 3.75 18H16.25C16.5815 18 16.8995 17.8683 17.1339 17.6339C17.3683 17.3995 17.5 17.0815 17.5 16.75V4.25C17.5 3.91848 17.3683 3.60054 17.1339 3.36612C16.8995 3.1317 16.5815 3 16.25 3ZM6.5625 14.875C6.37708 14.875 6.19582 14.82 6.04165 14.717C5.88748 14.614 5.76732 14.4676 5.69636 14.2963C5.62541 14.125 5.60684 13.9365 5.64301 13.7546C5.67919 13.5727 5.76848 13.4057 5.89959 13.2746C6.0307 13.1435 6.19775 13.0542 6.3796 13.018C6.56146 12.9818 6.74996 13.0004 6.92127 13.0714C7.09257 13.1423 7.23899 13.2625 7.342 13.4167C7.44502 13.5708 7.5 13.7521 7.5 13.9375C7.5 14.1861 7.40123 14.4246 7.22541 14.6004C7.0496 14.7762 6.81114 14.875 6.5625 14.875ZM10 14.875C9.81458 14.875 9.63332 14.82 9.47915 14.717C9.32498 14.614 9.20482 14.4676 9.13386 14.2963C9.06291 14.125 9.04434 13.9365 9.08051 13.7546C9.11669 13.5727 9.20598 13.4057 9.33709 13.2746C9.4682 13.1435 9.63525 13.0542 9.8171 13.018C9.99896 12.9818 10.1875 13.0004 10.3588 13.0714C10.5301 13.1423 10.6765 13.2625 10.7795 13.4167C10.8825 13.5708 10.9375 13.7521 10.9375 13.9375C10.9375 14.1861 10.8387 14.4246 10.6629 14.6004C10.4871 14.7762 10.2486 14.875 10 14.875ZM10 11.75C9.81458 11.75 9.63332 11.695 9.47915 11.592C9.32498 11.489 9.20482 11.3426 9.13386 11.1713C9.06291 11 9.04434 10.8115 9.08051 10.6296C9.11669 10.4477 9.20598 10.2807 9.33709 10.1496C9.4682 10.0185 9.63525 9.92919 9.8171 9.89301C9.99896 9.85684 10.1875 9.87541 10.3588 9.94636C10.5301 10.0173 10.6765 10.1375 10.7795 10.2917C10.8825 10.4458 10.9375 10.6271 10.9375 10.8125C10.9375 11.0611 10.8387 11.2996 10.6629 11.4754C10.4871 11.6512 10.2486 11.75 10 11.75ZM13.4375 14.875C13.2521 14.875 13.0708 14.82 12.9167 14.717C12.7625 14.614 12.6423 14.4676 12.5714 14.2963C12.5004 14.125 12.4818 13.9365 12.518 13.7546C12.5542 13.5727 12.6435 13.4057 12.7746 13.2746C12.9057 13.1435 13.0727 13.0542 13.2546 13.018C13.4365 12.9818 13.625 13.0004 13.7963 13.0714C13.9676 13.1423 14.114 13.2625 14.217 13.4167C14.32 13.5708 14.375 13.7521 14.375 13.9375C14.375 14.1861 14.2762 14.4246 14.1004 14.6004C13.9246 14.7762 13.6861 14.875 13.4375 14.875ZM13.4375 11.75C13.2521 11.75 13.0708 11.695 12.9167 11.592C12.7625 11.489 12.6423 11.3426 12.5714 11.1713C12.5004 11 12.4818 10.8115 12.518 10.6296C12.5542 10.4477 12.6435 10.2807 12.7746 10.1496C12.9057 10.0185 13.0727 9.92919 13.2546 9.89301C13.4365 9.85684 13.625 9.87541 13.7963 9.94636C13.9676 10.0173 14.114 10.1375 14.217 10.2917C14.32 10.4458 14.375 10.6271 14.375 10.8125C14.375 11.0611 14.2762 11.2996 14.1004 11.4754C13.9246 11.6512 13.6861 11.75 13.4375 11.75ZM16.25 6.75H3.75V4.25H5.625V4.875C5.625 5.04076 5.69085 5.19973 5.80806 5.31694C5.92527 5.43415 6.08424 5.5 6.25 5.5C6.41576 5.5 6.57473 5.43415 6.69194 5.31694C6.80915 5.19973 6.875 5.04076 6.875 4.875V4.25H13.125V4.875C13.125 5.04076 13.1908 5.19973 13.3081 5.31694C13.4253 5.43415 13.5842 5.5 13.75 5.5C13.9158 5.5 14.0747 5.43415 14.1919 5.31694C14.3092 5.19973 14.375 5.04076 14.375 4.875V4.25H16.25V6.75Z" fill="currentColor" fill-opacity="0.8" />
</svg>