<svg width="20" height="21" viewBox="0 0 20 21" fill="none" xmlns="http://www.w3.org/2000/svg">
  <path d="M16.25 3H14.375V2.375C14.375 2.20924 14.3092 2.05027 14.1919 1.93306C14.0747 1.81585 13.9158 1.75 13.75 1.75C13.5842 1.75 13.4253 1.81585 13.3081 1.93306C13.1908 2.05027 13.125 2.20924 13.125 2.375V3H6.875V2.375C6.875 2.20924 6.80915 2.05027 6.69194 1.93306C6.57473 1.81585 6.41576 1.75 6.25 1.75C6.08424 1.75 5.92527 1.81585 5.80806 1.93306C5.69085 2.05027 5.625 2.20924 5.625 2.375V3H3.75C3.41848 3 3.10054 3.1317 2.86612 3.36612C2.6317 3.60054 2.5 3.91848 2.5 4.25V16.75C2.5 17.0815 2.6317 17.3995 2.86612 17.6339C3.10054 17.8683 3.41848 18 3.75 18H16.25C16.5815 18 16.8995 17.8683 17.1339 17.6339C17.3683 17.3995 17.5 17.0815 17.5 16.75V4.25C17.5 3.91848 17.3683 3.60054 17.1339 3.36612C16.8995 3.1317 16.5815 3 16.25 3ZM11.875 13H10.625V14.25C10.625 14.4158 10.5592 14.5747 10.4419 14.6919C10.3247 14.8092 10.1658 14.875 10 14.875C9.83424 14.875 9.67527 14.8092 9.55806 14.6919C9.44085 14.5747 9.375 14.4158 9.375 14.25V13H8.125C7.95924 13 7.80027 12.9342 7.68306 12.8169C7.56585 12.6997 7.5 12.5408 7.5 12.375C7.5 12.2092 7.56585 12.0503 7.68306 11.9331C7.80027 11.8158 7.95924 11.75 8.125 11.75H9.375V10.5C9.375 10.3342 9.44085 10.1753 9.55806 10.0581C9.67527 9.94085 9.83424 9.875 10 9.875C10.1658 9.875 10.3247 9.94085 10.4419 10.0581C10.5592 10.1753 10.625 10.3342 10.625 10.5V11.75H11.875C12.0408 11.75 12.1997 11.8158 12.3169 11.9331C12.4342 12.0503 12.5 12.2092 12.5 12.375C12.5 12.5408 12.4342 12.6997 12.3169 12.8169C12.1997 12.9342 12.0408 13 11.875 13ZM3.75 6.75V4.25H5.625V4.875C5.625 5.04076 5.69085 5.19973 5.80806 5.31694C5.92527 5.43415 6.08424 5.5 6.25 5.5C6.41576 5.5 6.57473 5.43415 6.69194 5.31694C6.80915 5.19973 6.875 5.04076 6.875 4.875V4.25H13.125V4.875C13.125 5.04076 13.1908 5.19973 13.3081 5.31694C13.4253 5.43415 13.5842 5.5 13.75 5.5C13.9158 5.5 14.0747 5.43415 14.1919 5.31694C14.3092 5.19973 14.375 5.04076 14.375 4.875V4.25H16.25V6.75H3.75Z" fill="currentColor" />
</svg>