<svg width="20" height="21" viewBox="0 0 20 21" fill="none" xmlns="http://www.w3.org/2000/svg">
  <path d="M16.25 3.00001H6.5086C6.34439 2.99948 6.18171 3.0316 6.03002 3.09451C5.87833 3.15741 5.74066 3.24983 5.62501 3.36641L2.86641 6.12501C2.74983 6.24066 2.65741 6.37833 2.59451 6.53002C2.5316 6.68171 2.49948 6.84439 2.50001 7.0086V16.75C2.50001 17.0815 2.6317 17.3995 2.86612 17.6339C3.10054 17.8683 3.41849 18 3.75001 18H16.25C16.5815 18 16.8995 17.8683 17.1339 17.6339C17.3683 17.3995 17.5 17.0815 17.5 16.75V4.25001C17.5 3.91849 17.3683 3.60054 17.1339 3.36612C16.8995 3.1317 16.5815 3.00001 16.25 3.00001ZM10 14.875C9.50555 14.875 9.0222 14.7284 8.61108 14.4537C8.19996 14.179 7.87953 13.7885 7.69031 13.3317C7.50109 12.8749 7.45158 12.3722 7.54804 11.8873C7.64451 11.4023 7.88261 10.9569 8.23224 10.6072C8.58187 10.2576 9.02733 10.0195 9.51228 9.92304C9.99723 9.82658 10.4999 9.87609 10.9567 10.0653C11.4135 10.2545 11.804 10.575 12.0787 10.9861C12.3534 11.3972 12.5 11.8806 12.5 12.375C12.5 13.038 12.2366 13.6739 11.7678 14.1428C11.2989 14.6116 10.663 14.875 10 14.875ZM13.4375 6.75001C13.4375 6.83289 13.4046 6.91237 13.346 6.97098C13.2874 7.02958 13.2079 7.06251 13.125 7.06251H6.87501C6.79213 7.06251 6.71264 7.02958 6.65404 6.97098C6.59543 6.91237 6.56251 6.83289 6.56251 6.75001V4.25001H13.4375V6.75001Z" fill="#5898FF" />
</svg>