<svg width="21" height="20" viewBox="0 0 21 20" fill="none" xmlns="http://www.w3.org/2000/svg">
  <path d="M10.5 1.875C8.89303 1.875 7.32214 2.35152 5.986 3.24431C4.64985 4.1371 3.60844 5.40605 2.99348 6.8907C2.37852 8.37535 2.21762 10.009 2.53112 11.5851C2.84463 13.1612 3.61846 14.6089 4.75476 15.7452C5.89106 16.8815 7.3388 17.6554 8.9149 17.9689C10.491 18.2824 12.1247 18.1215 13.6093 17.5065C15.094 16.8916 16.3629 15.8502 17.2557 14.514C18.1485 13.1779 18.625 11.607 18.625 10C18.6227 7.84581 17.766 5.78051 16.2427 4.25727C14.7195 2.73403 12.6542 1.87727 10.5 1.875ZM10.1875 5.625C10.3729 5.625 10.5542 5.67998 10.7084 5.783C10.8625 5.88601 10.9827 6.03243 11.0536 6.20373C11.1246 6.37504 11.1432 6.56354 11.107 6.7454C11.0708 6.92725 10.9815 7.0943 10.8504 7.22541C10.7193 7.35652 10.5523 7.44581 10.3704 7.48199C10.1885 7.51816 10 7.49959 9.82874 7.42864C9.65743 7.35768 9.51101 7.23752 9.408 7.08335C9.30499 6.92918 9.25 6.74792 9.25 6.5625C9.25 6.31386 9.34878 6.0754 9.52459 5.89959C9.70041 5.72377 9.93886 5.625 10.1875 5.625ZM11.125 14.375C10.7935 14.375 10.4755 14.2433 10.2411 14.0089C10.0067 13.7745 9.875 13.4565 9.875 13.125V10C9.70924 10 9.55027 9.93415 9.43306 9.81694C9.31585 9.69973 9.25 9.54076 9.25 9.375C9.25 9.20924 9.31585 9.05027 9.43306 8.93306C9.55027 8.81585 9.70924 8.75 9.875 8.75C10.2065 8.75 10.5245 8.8817 10.7589 9.11612C10.9933 9.35054 11.125 9.66848 11.125 10V13.125C11.2908 13.125 11.4497 13.1908 11.5669 13.3081C11.6842 13.4253 11.75 13.5842 11.75 13.75C11.75 13.9158 11.6842 14.0747 11.5669 14.1919C11.4497 14.3092 11.2908 14.375 11.125 14.375Z" fill="#FF6B00" />
</svg>