<svg width="50" height="50" viewBox="0 0 50 50" fill="none" xmlns="http://www.w3.org/2000/svg">
  <rect width="50" height="50" rx="10" fill="#ED7518" />
  <path d="M33.4153 17.0997C33.4153 16.6395 33.0225 16.2305 32.5808 16.2305H30.1264C29.6846 16.2305 29.2919 16.6395 29.2919 17.0997V19.5541H26.9357C26.4939 19.5541 26.1012 19.9632 26.1012 20.4234V22.8778H23.7449C23.3032 22.8778 22.9105 23.2869 22.9105 23.7471V26.1504H20.6033C20.1615 26.1504 19.7688 26.5594 19.7688 27.0196V29.4741H17.4126C16.9708 29.4741 16.5781 29.8831 16.5781 30.3433V32.9C16.5781 33.3602 16.9708 33.7693 17.4126 33.7693H32.5317C32.9735 33.7693 33.3662 33.3602 33.3662 32.9L33.4153 17.0997Z" fill="white" />
</svg>