<svg width="41" height="40" viewBox="0 0 41 40" fill="none" xmlns="http://www.w3.org/2000/svg">
  <rect x="0.5" width="40" height="40" rx="10" fill="#ED7518" />
  <path d="M27.2353 13.6798C27.2353 13.3116 26.9212 12.9844 26.5677 12.9844H24.6042C24.2508 12.9844 23.9366 13.3116 23.9366 13.6798V15.6433H22.0517C21.6982 15.6433 21.3841 15.9706 21.3841 16.3387V18.3023H19.4991C19.1457 18.3023 18.8315 18.6295 18.8315 18.9977V20.9203H16.9858C16.6324 20.9203 16.3182 21.2476 16.3182 21.6157V23.5792H14.4332C14.0798 23.5792 13.7656 23.9065 13.7656 24.2747V26.32C13.7656 26.6882 14.0798 27.0154 14.4332 27.0154H26.5285C26.8819 27.0154 27.1961 26.6882 27.1961 26.32L27.2353 13.6798Z" fill="white" />
</svg>