<svg width="20" height="21" viewBox="0 0 20 21" fill="none" xmlns="http://www.w3.org/2000/svg">
  <path d="M19.375 6.75V14.25C19.375 14.5815 19.2433 14.8995 19.0089 15.1339C18.7745 15.3683 18.4565 15.5 18.125 15.5H10.9375C10.8546 15.5 10.7751 15.4671 10.7165 15.4085C10.6579 15.3499 10.625 15.2704 10.625 15.1875V5.8125C10.625 5.72962 10.6579 5.65013 10.7165 5.59153C10.7751 5.53292 10.8546 5.5 10.9375 5.5H18.125C18.4565 5.5 18.7745 5.6317 19.0089 5.86612C19.2433 6.10054 19.375 6.41848 19.375 6.75ZM9.375 4.25V16.75C9.375 16.9158 9.30915 17.0747 9.19194 17.1919C9.07473 17.3092 8.91576 17.375 8.75 17.375C8.58424 17.375 8.42527 17.3092 8.30806 17.1919C8.19085 17.0747 8.125 16.9158 8.125 16.75V15.5H1.875C1.54348 15.5 1.22554 15.3683 0.991117 15.1339C0.756696 14.8995 0.625 14.5815 0.625 14.25V6.75C0.625 6.41848 0.756696 6.10054 0.991117 5.86612C1.22554 5.6317 1.54348 5.5 1.875 5.5H8.125V4.25C8.125 4.08424 8.19085 3.92527 8.30806 3.80806C8.42527 3.69085 8.58424 3.625 8.75 3.625C8.91576 3.625 9.07473 3.69085 9.19194 3.80806C9.30915 3.92527 9.375 4.08424 9.375 4.25ZM6.875 9.25C6.875 9.08424 6.80915 8.92527 6.69194 8.80806C6.57473 8.69085 6.41576 8.625 6.25 8.625H3.75C3.58424 8.625 3.42527 8.69085 3.30806 8.80806C3.19085 8.92527 3.125 9.08424 3.125 9.25C3.125 9.41576 3.19085 9.57473 3.30806 9.69194C3.42527 9.80915 3.58424 9.875 3.75 9.875H4.375V11.75C4.375 11.9158 4.44085 12.0747 4.55806 12.1919C4.67527 12.3092 4.83424 12.375 5 12.375C5.16576 12.375 5.32473 12.3092 5.44194 12.1919C5.55915 12.0747 5.625 11.9158 5.625 11.75V9.875H6.25C6.41576 9.875 6.57473 9.80915 6.69194 9.69194C6.80915 9.57473 6.875 9.41576 6.875 9.25Z" fill="#79869A" />
</svg>