<svg width="20" height="21" viewBox="0 0 20 21" fill="none" xmlns="http://www.w3.org/2000/svg">
  <g clip-path="url(#clip0_444_2982)">
    <path d="M6.56274 9.87485C6.56274 9.19497 6.76435 8.53037 7.14207 7.96508C7.51978 7.39978 8.05665 6.95919 8.68477 6.69901C9.31289 6.43884 10.0041 6.37076 10.6709 6.5034C11.3377 6.63604 11.9502 6.96343 12.4309 7.44417C12.9117 7.92491 13.2391 8.53742 13.3717 9.20423C13.5043 9.87103 13.4363 10.5622 13.1761 11.1903C12.9159 11.8184 12.4753 12.3553 11.91 12.733C11.3447 13.1107 10.6801 13.3123 10.0002 13.3123C9.08856 13.3123 8.21422 12.9502 7.56956 12.3055C6.92491 11.6609 6.56274 10.7865 6.56274 9.87485ZM16.419 14.342C16.2798 14.2612 16.1152 14.2357 15.958 14.2706C15.8008 14.3055 15.6625 14.3982 15.5706 14.5303C15.4359 14.7158 15.2919 14.8944 15.1393 15.0655C14.6846 14.4055 14.1069 13.8394 13.4377 13.3983C13.3807 13.3605 13.3128 13.3424 13.2445 13.3469C13.1761 13.3514 13.1112 13.3783 13.0596 13.4233C12.2106 14.158 11.1254 14.5623 10.0026 14.5623C8.87981 14.5623 7.79459 14.158 6.94556 13.4233C6.8936 13.3772 6.82776 13.3497 6.75844 13.3451C6.68911 13.3406 6.62025 13.3593 6.56274 13.3983C5.89349 13.8386 5.31548 14.4039 4.8604 15.0631C3.88435 13.9671 3.28622 12.5865 3.15415 11.1248H4.35728C4.45844 11.1264 4.55854 11.1041 4.64939 11.0595C4.74023 11.015 4.81924 10.9495 4.87993 10.8686C4.968 10.7482 5.0101 10.6003 4.99864 10.4516C4.98718 10.3029 4.9229 10.1631 4.81743 10.0577L2.94243 8.18266C2.88439 8.12455 2.81545 8.07845 2.73958 8.047C2.66371 8.01555 2.58238 7.99936 2.50024 7.99936C2.41811 7.99936 2.33678 8.01555 2.26091 8.047C2.18503 8.07845 2.1161 8.12455 2.05806 8.18266L0.183056 10.0577C0.0775837 10.1631 0.013311 10.3029 0.0018489 10.4516C-0.00961317 10.6003 0.0324913 10.7482 0.120556 10.8686C0.181249 10.9495 0.260254 11.015 0.351099 11.0595C0.441945 11.1041 0.542048 11.1264 0.643212 11.1248H1.89868C2.02651 12.7865 2.66221 14.3686 3.7196 15.6568C4.77699 16.9449 6.20491 17.8768 7.80979 18.326C9.41466 18.7751 11.1188 18.72 12.6913 18.1679C14.2638 17.6158 15.6284 16.5935 16.6002 15.2397C16.6504 15.1699 16.6856 15.0905 16.7037 15.0065C16.7217 14.9225 16.7223 14.8356 16.7053 14.7514C16.6883 14.6671 16.6541 14.5873 16.6048 14.5169C16.5555 14.4464 16.4923 14.3869 16.419 14.342ZM19.9526 10.2608C19.9053 10.1466 19.8252 10.0489 19.7225 9.98025C19.6197 9.91155 19.4989 9.87487 19.3752 9.87485H18.1018C17.974 8.21321 17.3383 6.63106 16.2809 5.34292C15.2235 4.05477 13.7956 3.12294 12.1907 2.67374C10.5858 2.22455 8.88164 2.27974 7.30919 2.83181C5.73673 3.38389 4.37208 4.40615 3.40024 5.76C3.30348 5.89468 3.26418 6.06229 3.29099 6.22594C3.31781 6.3896 3.40853 6.5359 3.54321 6.63266C3.67789 6.72942 3.8455 6.76872 4.00915 6.74191C4.1728 6.7151 4.31911 6.62437 4.41587 6.48969C5.23351 5.35129 6.37956 4.48998 7.70045 4.02121C9.02134 3.55243 10.454 3.49857 11.8063 3.86686C13.1587 4.23514 14.3661 5.00797 15.267 6.08177C16.1678 7.15558 16.7188 8.47905 16.8463 9.87485H15.6252C15.5016 9.87475 15.3806 9.91135 15.2778 9.98002C15.1749 10.0487 15.0947 10.1463 15.0474 10.2606C15 10.3749 14.9876 10.5006 15.0118 10.6219C15.0359 10.7432 15.0955 10.8546 15.1831 10.942L17.0581 12.817C17.1161 12.8751 17.185 12.9212 17.2609 12.9527C17.3368 12.9842 17.4181 13.0003 17.5002 13.0003C17.5824 13.0003 17.6637 12.9842 17.7396 12.9527C17.8155 12.9212 17.8844 12.8751 17.9424 12.817L19.8174 10.942C19.9048 10.8546 19.9643 10.7432 19.9883 10.6219C20.0124 10.5006 20 10.375 19.9526 10.2608Z" fill="currentColor" />
  </g>
  <defs>
    <clipPath id="clip0_444_2982">
      <rect width="20" height="20" fill="white" transform="translate(0 0.5)" />
    </clipPath>
  </defs>
</svg>