<svg width="16" height="16" viewBox="0 0 16 16" fill="none" xmlns="http://www.w3.org/2000/svg">
  <g clip-path="url(#clip0_5002_16266)">
    <path d="M14.9288 5.82584L7.40533 13.3493C7.22953 13.525 6.99117 13.6236 6.74263 13.6236C6.4941 13.6236 6.25573 13.525 6.07994 13.3493L1.88345 9.13052C1.70795 8.95475 1.60938 8.71651 1.60938 8.46812C1.60938 8.21973 1.70795 7.98149 1.88345 7.80572L3.05533 6.63384C3.23103 6.45888 3.46889 6.36064 3.71685 6.36064C3.96481 6.36064 4.20267 6.45888 4.37837 6.63384L6.76607 8.94947L12.4356 3.34966C12.6113 3.17452 12.8493 3.07617 13.0974 3.07617C13.3455 3.07617 13.5835 3.17452 13.7592 3.34966L14.9282 4.49459C15.0161 4.5817 15.0859 4.68536 15.1335 4.79958C15.1812 4.9138 15.2057 5.03633 15.2058 5.16009C15.2058 5.28385 15.1814 5.4064 15.1338 5.52066C15.0863 5.63493 15.0166 5.73865 14.9288 5.82584Z" fill="#04B600" />
  </g>
  <defs>
    <clipPath id="clip0_5002_16266">
      <rect width="15" height="15" fill="white" transform="translate(0.671875 0.5)" />
    </clipPath>
  </defs>
</svg>