<svg width="50" height="50" viewBox="0 0 50 50" fill="none" xmlns="http://www.w3.org/2000/svg">
  <path d="M47.523 17.7554L22.4448 42.8335C21.8589 43.4191 21.0643 43.7481 20.2359 43.7481C19.4074 43.7481 18.6129 43.4191 18.0269 42.8335L4.03859 28.771C3.45358 28.1851 3.125 27.391 3.125 26.563C3.125 25.735 3.45358 24.9409 4.03859 24.355L7.94484 20.4488C8.53051 19.8655 9.32339 19.5381 10.1499 19.5381C10.9765 19.5381 11.7693 19.8655 12.355 20.4488L20.314 28.1675L39.2124 9.50149C39.7982 8.91767 40.5915 8.58984 41.4185 8.58984C42.2455 8.58984 43.0388 8.91767 43.6245 9.50149L47.521 13.3179C47.814 13.6083 48.0467 13.9538 48.2055 14.3345C48.3643 14.7153 48.4462 15.1237 48.4464 15.5362C48.4465 15.9488 48.365 16.3573 48.2066 16.7381C48.0481 17.119 47.8157 17.4648 47.523 17.7554Z" fill="#04B600" />
</svg>