<svg width="20" height="20" viewBox="0 0 20 20" fill="none" xmlns="http://www.w3.org/2000/svg">
  <path d="M16.6011 10.6625L10.1901 17.0687C9.31077 17.9478 8.11822 18.4415 6.87484 18.4413C5.63146 18.441 4.4391 17.9469 3.56005 17.0675C2.681 16.1882 2.18728 14.9956 2.1875 13.7523C2.18772 12.5089 2.68186 11.3165 3.56122 10.4375L11.23 2.78981C11.8162 2.20385 12.6113 1.87478 13.4402 1.875C13.8506 1.87511 14.257 1.95606 14.6361 2.11322C15.0153 2.27039 15.3598 2.50069 15.6499 2.79098C15.94 3.08127 16.1702 3.42587 16.3271 3.8051C16.4841 4.18433 16.5648 4.59076 16.5647 5.00118C16.5646 5.41161 16.4836 5.818 16.3265 6.19714C16.1693 6.57629 15.939 6.92076 15.6487 7.2109L15.6354 7.2234L8.15106 14.4281C8.06232 14.5134 7.95763 14.5805 7.84297 14.6254C7.72832 14.6703 7.60594 14.6922 7.48283 14.6898C7.35972 14.6874 7.23829 14.6608 7.12547 14.6114C7.01264 14.5621 6.91064 14.4911 6.82528 14.4023C6.73992 14.3136 6.67288 14.2089 6.62798 14.0942C6.58308 13.9796 6.5612 13.8572 6.56359 13.7341C6.56599 13.611 6.59261 13.4895 6.64193 13.3767C6.69126 13.2639 6.76232 13.1619 6.85106 13.0765L14.3284 5.87965C14.5621 5.64448 14.6929 5.32609 14.6918 4.99454C14.6908 4.66298 14.5581 4.34541 14.3229 4.11168C14.2065 3.99596 14.0684 3.9043 13.9165 3.84194C13.7647 3.77959 13.602 3.74775 13.4378 3.74826C13.1063 3.74929 12.7887 3.88198 12.555 4.11715L4.88622 11.7625C4.35879 12.2901 4.06257 13.0056 4.06271 13.7517C4.06279 14.1211 4.13562 14.4869 4.27705 14.8281C4.41848 15.1694 4.62574 15.4794 4.887 15.7406C5.14826 16.0017 5.4584 16.2089 5.79971 16.3502C6.14102 16.4915 6.50682 16.5642 6.87623 16.5641C7.62227 16.5639 8.3377 16.2674 8.86513 15.7398L15.2761 9.33356C15.3633 9.24635 15.4668 9.17718 15.5807 9.12998C15.6947 9.08279 15.8168 9.0585 15.9401 9.0585C16.0635 9.0585 16.1856 9.08279 16.2995 9.12998C16.4135 9.17718 16.517 9.24635 16.6042 9.33356C16.6914 9.42077 16.7606 9.52429 16.8078 9.63823C16.855 9.75217 16.8793 9.87429 16.8793 9.99762C16.8793 10.1209 16.855 10.2431 16.8078 10.357C16.7606 10.471 16.6914 10.5745 16.6042 10.6617L16.6011 10.6625Z" fill="currentColor" />
</svg>