<svg width="18" height="18" viewBox="0 0 18 18" fill="none" xmlns="http://www.w3.org/2000/svg">
  <path d="M5.54688 4.75C5.54688 4.53866 5.63083 4.33597 5.78027 4.18652C5.92972 4.03708 6.13241 3.95312 6.34375 3.95312H14.8438C15.0551 3.95312 15.2578 4.03708 15.4072 4.18652C15.5567 4.33597 15.6406 4.53866 15.6406 4.75C15.6406 4.96134 15.5567 5.16403 15.4072 5.31348C15.2578 5.46292 15.0551 5.54688 14.8438 5.54688H6.34375C6.13241 5.54688 5.92972 5.46292 5.78027 5.31348C5.63083 5.16403 5.54688 4.96134 5.54688 4.75ZM14.8438 8.20312H6.34375C6.13241 8.20312 5.92972 8.28708 5.78027 8.43652C5.63083 8.58597 5.54688 8.78866 5.54688 9C5.54688 9.21134 5.63083 9.41403 5.78027 9.56348C5.92972 9.71292 6.13241 9.79688 6.34375 9.79688H14.8438C15.0551 9.79688 15.2578 9.71292 15.4072 9.56348C15.5567 9.41403 15.6406 9.21134 15.6406 9C15.6406 8.78866 15.5567 8.58597 15.4072 8.43652C15.2578 8.28708 15.0551 8.20312 14.8438 8.20312ZM14.8438 12.4531H6.34375C6.13241 12.4531 5.92972 12.5371 5.78027 12.6865C5.63083 12.836 5.54688 13.0387 5.54688 13.25C5.54688 13.4613 5.63083 13.664 5.78027 13.8135C5.92972 13.9629 6.13241 14.0469 6.34375 14.0469H14.8438C15.0551 14.0469 15.2578 13.9629 15.4072 13.8135C15.5567 13.664 15.6406 13.4613 15.6406 13.25C15.6406 13.0387 15.5567 12.836 15.4072 12.6865C15.2578 12.5371 15.0551 12.4531 14.8438 12.4531ZM3.42188 7.9375C3.21173 7.9375 3.00631 7.99981 2.83158 8.11656C2.65685 8.23331 2.52067 8.39925 2.44025 8.5934C2.35984 8.78755 2.33879 9.00118 2.37979 9.20728C2.42079 9.41339 2.52198 9.60271 2.67057 9.7513C2.81917 9.89989 3.00849 10.0011 3.21459 10.0421C3.4207 10.0831 3.63433 10.062 3.82848 9.98162C4.02262 9.9012 4.18856 9.76502 4.30531 9.59029C4.42206 9.41557 4.48438 9.21014 4.48438 9C4.48438 8.71821 4.37243 8.44796 4.17318 8.2487C3.97392 8.04944 3.70367 7.9375 3.42188 7.9375ZM3.42188 3.6875C3.21173 3.6875 3.00631 3.74981 2.83158 3.86656C2.65685 3.98331 2.52067 4.14925 2.44025 4.3434C2.35984 4.53755 2.33879 4.75118 2.37979 4.95728C2.42079 5.16339 2.52198 5.35271 2.67057 5.5013C2.81917 5.64989 3.00849 5.75109 3.21459 5.79208C3.4207 5.83308 3.63433 5.81204 3.82848 5.73162C4.02262 5.6512 4.18856 5.51502 4.30531 5.34029C4.42206 5.16557 4.48438 4.96014 4.48438 4.75C4.48438 4.46821 4.37243 4.19796 4.17318 3.9987C3.97392 3.79944 3.70367 3.6875 3.42188 3.6875ZM3.42188 12.1875C3.21173 12.1875 3.00631 12.2498 2.83158 12.3666C2.65685 12.4833 2.52067 12.6493 2.44025 12.8434C2.35984 13.0375 2.33879 13.2512 2.37979 13.4573C2.42079 13.6634 2.52198 13.8527 2.67057 14.0013C2.81917 14.1499 3.00849 14.2511 3.21459 14.2921C3.4207 14.3331 3.63433 14.312 3.82848 14.2316C4.02262 14.1512 4.18856 14.015 4.30531 13.8403C4.42206 13.6656 4.48438 13.4601 4.48438 13.25C4.48438 12.9682 4.37243 12.698 4.17318 12.4987C3.97392 12.2994 3.70367 12.1875 3.42188 12.1875Z" fill="#79869A" />
</svg>