<svg width="15" height="15" viewBox="0 0 15 15" fill="none" xmlns="http://www.w3.org/2000/svg">
  <path d="M12.218 11.2217C12.3501 11.3538 12.4243 11.533 12.4243 11.7198C12.4243 11.9066 12.3501 12.0857 12.218 12.2178C12.0859 12.3499 11.9068 12.4241 11.72 12.4241C11.5332 12.4241 11.354 12.3499 11.2219 12.2178L7.50181 8.49653L3.78052 12.2166C3.64843 12.3487 3.46927 12.4229 3.28247 12.4229C3.09567 12.4229 2.91651 12.3487 2.78442 12.2166C2.65233 12.0846 2.57813 11.9054 2.57812 11.7186C2.57812 11.5318 2.65233 11.3526 2.78442 11.2206L6.50571 7.50044L2.78559 3.77915C2.6535 3.64706 2.5793 3.46791 2.5793 3.2811C2.5793 3.0943 2.6535 2.91515 2.78559 2.78306C2.91768 2.65097 3.09684 2.57676 3.28364 2.57676C3.47045 2.57676 3.6496 2.65097 3.78169 2.78306L7.50181 6.50434L11.2231 2.78247C11.3552 2.65038 11.5343 2.57617 11.7211 2.57617C11.9079 2.57617 12.0871 2.65038 12.2192 2.78247C12.3513 2.91456 12.4255 3.09371 12.4255 3.28052C12.4255 3.46732 12.3513 3.64647 12.2192 3.77856L8.4979 7.50044L12.218 11.2217Z" fill="#79869A" />
</svg>