<svg width="26" height="26" viewBox="0 0 26 26" fill="none" xmlns="http://www.w3.org/2000/svg">
  <path d="M21.3652 8.54102L15.8965 3.07227C15.8239 2.99974 15.7377 2.94223 15.6429 2.90302C15.548 2.86381 15.4464 2.84367 15.3438 2.84375H5.96875C5.55435 2.84375 5.15692 3.00837 4.8639 3.3014C4.57087 3.59442 4.40625 3.99185 4.40625 4.40625V21.5938C4.40625 22.0082 4.57087 22.4056 4.8639 22.6986C5.15692 22.9916 5.55435 23.1562 5.96875 23.1562H20.0312C20.4457 23.1562 20.8431 22.9916 21.1361 22.6986C21.4291 22.4056 21.5938 22.0082 21.5938 21.5938V9.09375C21.5938 8.99112 21.5737 8.88949 21.5345 8.79465C21.4953 8.69981 21.4378 8.61362 21.3652 8.54102ZM16.125 17.6875H9.875C9.6678 17.6875 9.46909 17.6052 9.32257 17.4587C9.17606 17.3122 9.09375 17.1135 9.09375 16.9062C9.09375 16.699 9.17606 16.5003 9.32257 16.3538C9.46909 16.2073 9.6678 16.125 9.875 16.125H16.125C16.3322 16.125 16.5309 16.2073 16.6774 16.3538C16.8239 16.5003 16.9062 16.699 16.9062 16.9062C16.9062 17.1135 16.8239 17.3122 16.6774 17.4587C16.5309 17.6052 16.3322 17.6875 16.125 17.6875ZM16.125 14.5625H9.875C9.6678 14.5625 9.46909 14.4802 9.32257 14.3337C9.17606 14.1872 9.09375 13.9885 9.09375 13.7812C9.09375 13.574 9.17606 13.3753 9.32257 13.2288C9.46909 13.0823 9.6678 13 9.875 13H16.125C16.3322 13 16.5309 13.0823 16.6774 13.2288C16.8239 13.3753 16.9062 13.574 16.9062 13.7812C16.9062 13.9885 16.8239 14.1872 16.6774 14.3337C16.5309 14.4802 16.3322 14.5625 16.125 14.5625ZM15.3438 9.09375V4.79688L19.6406 9.09375H15.3438Z" fill="#79869A" />
</svg>