<svg width="22" height="6" viewBox="0 0 22 6" fill="none" xmlns="http://www.w3.org/2000/svg">
  <path d="M13.7344 3C13.7344 3.54081 13.574 4.06947 13.2736 4.51914C12.9731 4.9688 12.546 5.31927 12.0464 5.52623C11.5468 5.73319 10.997 5.78734 10.4666 5.68184C9.93613 5.57633 9.44892 5.31591 9.06651 4.9335C8.6841 4.55109 8.42367 4.06387 8.31817 3.53345C8.21266 3.00303 8.26681 2.45324 8.47377 1.9536C8.68073 1.45396 9.0312 1.02691 9.48086 0.72645C9.93053 0.425993 10.4592 0.265625 11 0.265625C11.7252 0.265625 12.4207 0.55371 12.9335 1.06651C13.4463 1.5793 13.7344 2.2748 13.7344 3ZM3.1875 0.265625C2.64669 0.265625 2.11803 0.425993 1.66836 0.72645C1.2187 1.02691 0.868226 1.45396 0.661268 1.9536C0.45431 2.45324 0.40016 3.00303 0.505666 3.53345C0.611173 4.06387 0.871597 4.55109 1.25401 4.9335C1.63642 5.31591 2.12363 5.57633 2.65405 5.68184C3.18447 5.78734 3.73426 5.73319 4.2339 5.52623C4.73354 5.31927 5.16059 4.9688 5.46105 4.51914C5.76151 4.06947 5.92188 3.54081 5.92188 3C5.92188 2.2748 5.63379 1.5793 5.121 1.06651C4.6082 0.55371 3.9127 0.265625 3.1875 0.265625ZM18.8125 0.265625C18.2717 0.265625 17.743 0.425993 17.2934 0.72645C16.8437 1.02691 16.4932 1.45396 16.2863 1.9536C16.0793 2.45324 16.0252 3.00303 16.1307 3.53345C16.2362 4.06387 16.4966 4.55109 16.879 4.9335C17.2614 5.31591 17.7486 5.57633 18.2791 5.68184C18.8095 5.78734 19.3593 5.73319 19.8589 5.52623C20.3585 5.31927 20.7856 4.9688 21.0861 4.51914C21.3865 4.06947 21.5469 3.54081 21.5469 3C21.5469 2.64092 21.4761 2.28535 21.3387 1.9536C21.2013 1.62185 20.9999 1.32042 20.746 1.06651C20.4921 0.812595 20.1907 0.611182 19.8589 0.473767C19.5272 0.336351 19.1716 0.265625 18.8125 0.265625Z" fill="currentColor" />
</svg>