<svg width="26" height="25" viewBox="0 0 26 25" fill="none" xmlns="http://www.w3.org/2000/svg">
  <path d="M21.3652 8.04102L15.8965 2.57227C15.8239 2.49974 15.7377 2.44223 15.6429 2.40302C15.548 2.36381 15.4464 2.34367 15.3438 2.34375H5.96875C5.55435 2.34375 5.15692 2.50837 4.8639 2.8014C4.57087 3.09442 4.40625 3.49185 4.40625 3.90625V21.0938C4.40625 21.5082 4.57087 21.9056 4.8639 22.1986C5.15692 22.4916 5.55435 22.6562 5.96875 22.6562H20.0312C20.4457 22.6562 20.8431 22.4916 21.1361 22.1986C21.4291 21.9056 21.5938 21.5082 21.5938 21.0938V8.59375C21.5938 8.49112 21.5737 8.38949 21.5345 8.29465C21.4953 8.19981 21.4378 8.11362 21.3652 8.04102ZM15.8965 16.1777L13.5527 18.5215C13.4802 18.5941 13.394 18.6517 13.2992 18.6911C13.2043 18.7304 13.1027 18.7506 13 18.7506C12.8973 18.7506 12.7957 18.7304 12.7008 18.6911C12.606 18.6517 12.5198 18.5941 12.4473 18.5215L10.1035 16.1777C9.95692 16.0311 9.87457 15.8323 9.87457 15.625C9.87457 15.4177 9.95692 15.2189 10.1035 15.0723C10.2501 14.9257 10.4489 14.8433 10.6562 14.8433C10.8636 14.8433 11.0624 14.9257 11.209 15.0723L12.2188 16.083V11.7188C12.2188 11.5115 12.3011 11.3128 12.4476 11.1663C12.5941 11.0198 12.7928 10.9375 13 10.9375C13.2072 10.9375 13.4059 11.0198 13.5524 11.1663C13.6989 11.3128 13.7812 11.5115 13.7812 11.7188V16.083L14.791 15.0723C14.9376 14.9257 15.1364 14.8433 15.3438 14.8433C15.5511 14.8433 15.7499 14.9257 15.8965 15.0723C16.0431 15.2189 16.1254 15.4177 16.1254 15.625C16.1254 15.8323 16.0431 16.0311 15.8965 16.1777ZM15.3438 8.59375V4.29688L19.6406 8.59375H15.3438Z" fill="#79869A" />
</svg>