<svg width="18" height="18" viewBox="0 0 18 18" fill="none" xmlns="http://www.w3.org/2000/svg">
  <path d="M14.8763 5.78062L11.1575 2.06188C11.0835 1.98778 10.9956 1.92899 10.8989 1.88889C10.8022 1.84878 10.6985 1.82813 10.5938 1.82812H4.21875C3.86651 1.82812 3.5287 1.96805 3.27962 2.21712C3.03055 2.4662 2.89062 2.80401 2.89062 3.15625V14.8438C2.89063 15.196 3.03055 15.5338 3.27962 15.7829C3.5287 16.0319 3.86651 16.1719 4.21875 16.1719H13.7812C14.1335 16.1719 14.4713 16.0319 14.7204 15.7829C14.9694 15.5338 15.1094 15.196 15.1094 14.8438V6.34375C15.1094 6.13257 15.0255 5.93003 14.8763 5.78062ZM11.125 4.28516L12.6523 5.8125H11.125V4.28516ZM4.48438 14.5781V3.42188H9.53125V6.60938C9.53125 6.82072 9.61521 7.02341 9.76465 7.17285C9.91409 7.32229 10.1168 7.40625 10.3281 7.40625H13.5156V14.5781H4.48438ZM11.1575 10.5612C11.2318 10.6352 11.2908 10.7232 11.331 10.8201C11.3712 10.9169 11.3919 11.0208 11.3919 11.1257C11.3919 11.2305 11.3712 11.3344 11.331 11.4313C11.2908 11.5281 11.2318 11.6161 11.1575 11.6901L9.56379 13.2839C9.48976 13.3582 9.40179 13.4171 9.30493 13.4573C9.20806 13.4975 9.10422 13.5182 8.99934 13.5182C8.89446 13.5182 8.79061 13.4975 8.69375 13.4573C8.59688 13.4171 8.50891 13.3582 8.43488 13.2839L6.84113 11.6901C6.69143 11.5404 6.60733 11.3374 6.60733 11.1257C6.60733 10.914 6.69143 10.7109 6.84113 10.5612C6.99083 10.4115 7.19387 10.3274 7.40559 10.3274C7.6173 10.3274 7.82034 10.4115 7.97004 10.5612L8.20312 10.793V8.73438C8.20312 8.52303 8.28708 8.32034 8.43652 8.1709C8.58597 8.02146 8.78866 7.9375 9 7.9375C9.21134 7.9375 9.41403 8.02146 9.56348 8.1709C9.71292 8.32034 9.79688 8.52303 9.79688 8.73438V10.793L10.03 10.5592C10.1041 10.4853 10.1921 10.4266 10.2889 10.3867C10.3857 10.3468 10.4894 10.3263 10.5942 10.3265C10.6989 10.3267 10.8025 10.3475 10.8992 10.3878C10.9959 10.4281 11.0837 10.487 11.1575 10.5612Z" fill="#79869A" />
</svg>