<svg width="19" height="18" viewBox="0 0 19 18" fill="none" xmlns="http://www.w3.org/2000/svg">
  <path d="M15.1577 13.4655C15.3162 13.624 15.4053 13.839 15.4053 14.0631C15.4053 14.2873 15.3162 14.5023 15.1577 14.6608C14.9992 14.8193 14.7842 14.9084 14.5601 14.9084C14.3359 14.9084 14.1209 14.8193 13.9624 14.6608L9.49826 10.1953L5.03271 14.6594C4.87421 14.8179 4.65922 14.907 4.43506 14.907C4.21089 14.907 3.99591 14.8179 3.8374 14.6594C3.67889 14.5009 3.58984 14.2859 3.58984 14.0617C3.58984 13.8376 3.67889 13.6226 3.8374 13.4641L8.30295 8.99994L3.83881 4.53439C3.6803 4.37588 3.59125 4.1609 3.59125 3.93674C3.59125 3.71257 3.6803 3.49759 3.83881 3.33908C3.99732 3.18057 4.2123 3.09152 4.43646 3.09152C4.66063 3.09152 4.87561 3.18057 5.03412 3.33908L9.49826 7.80463L13.9638 3.33838C14.1223 3.17987 14.3373 3.09082 14.5615 3.09082C14.7856 3.09082 15.0006 3.17987 15.1591 3.33838C15.3176 3.49689 15.4067 3.71187 15.4067 3.93603C15.4067 4.1602 15.3176 4.37518 15.1591 4.53369L10.6936 8.99994L15.1577 13.4655Z" fill="#5898FF" />
</svg>