<svg width="19" height="18" viewBox="0 0 19 18" fill="none" xmlns="http://www.w3.org/2000/svg">
  <path d="M15.7202 7.34689L10.0952 12.9719C10.0168 13.0506 9.92368 13.113 9.82112 13.1556C9.71856 13.1981 9.60861 13.2201 9.49756 13.2201C9.38651 13.2201 9.27655 13.1981 9.17399 13.1556C9.07143 13.113 8.97829 13.0506 8.8999 12.9719L3.2749 7.34689C3.11639 7.18838 3.02734 6.9734 3.02734 6.74924C3.02734 6.52507 3.11639 6.31009 3.2749 6.15158C3.43341 5.99307 3.64839 5.90402 3.87256 5.90402C4.09672 5.90402 4.31171 5.99307 4.47021 6.15158L9.49826 11.1796L14.5263 6.15088C14.6848 5.99237 14.8998 5.90332 15.124 5.90332C15.3481 5.90332 15.5631 5.99237 15.7216 6.15088C15.8801 6.30939 15.9692 6.52437 15.9692 6.74853C15.9692 6.9727 15.8801 7.18768 15.7216 7.34619L15.7202 7.34689Z" fill="currentColor" />
</svg>