<svg width="18" height="18" viewBox="0 0 18 18" fill="none" xmlns="http://www.w3.org/2000/svg">
  <path d="M14.7015 8.83154L7.26395 16.8003C7.18514 16.8844 7.0811 16.9406 6.96754 16.9604C6.85399 16.9802 6.73707 16.9625 6.63444 16.91C6.53181 16.8576 6.44903 16.7731 6.3986 16.6695C6.34816 16.5658 6.33281 16.4486 6.35485 16.3354L7.32837 11.4659L3.50138 10.0288C3.41919 9.9981 3.34589 9.94747 3.28804 9.88149C3.23019 9.81551 3.18959 9.73623 3.16985 9.65072C3.15012 9.56522 3.15188 9.47615 3.17497 9.39149C3.19805 9.30683 3.24175 9.22921 3.30216 9.16556L10.7397 1.19681C10.8185 1.1127 10.9225 1.0565 11.0361 1.0367C11.1496 1.01691 11.2665 1.03458 11.3692 1.08706C11.4718 1.13953 11.5546 1.22397 11.605 1.32762C11.6554 1.43127 11.6708 1.54851 11.6488 1.66166L10.6726 6.53654L14.4996 7.97158C14.5812 8.00253 14.6539 8.0531 14.7113 8.11882C14.7687 8.18454 14.809 8.26338 14.8287 8.34839C14.8484 8.4334 14.8468 8.52195 14.8242 8.60621C14.8015 8.69048 14.7585 8.76787 14.6988 8.83154H14.7015Z" fill="#8D47FF" />
</svg>