<svg width="20" height="21" viewBox="0 0 20 21" fill="none" xmlns="http://www.w3.org/2000/svg">
  <path d="M16.875 3.625H3.125C2.79348 3.625 2.47554 3.7567 2.24112 3.99112C2.0067 4.22554 1.875 4.54348 1.875 4.875V17.375C1.87506 17.4815 1.90234 17.5863 1.95426 17.6793C2.00618 17.7723 2.08101 17.8505 2.17165 17.9065C2.26228 17.9624 2.36572 17.9943 2.47214 17.999C2.57856 18.0038 2.68442 17.9813 2.77969 17.9336L5 16.8234L7.22031 17.9336C7.30714 17.977 7.4029 17.9997 7.5 17.9997C7.5971 17.9997 7.69286 17.977 7.77969 17.9336L10 16.8234L12.2203 17.9336C12.3071 17.977 12.4029 17.9997 12.5 17.9997C12.5971 17.9997 12.6929 17.977 12.7797 17.9336L15 16.8234L17.2203 17.9336C17.3156 17.9813 17.4214 18.0038 17.5279 17.999C17.6343 17.9943 17.7377 17.9624 17.8284 17.9065C17.919 17.8505 17.9938 17.7723 18.0457 17.6793C18.0977 17.5863 18.1249 17.4815 18.125 17.375V4.875C18.125 4.54348 17.9933 4.22554 17.7589 3.99112C17.5245 3.7567 17.2065 3.625 16.875 3.625ZM9.0625 13C9.0625 13.0829 9.02958 13.1624 8.97097 13.221C8.91237 13.2796 8.83288 13.3125 8.75 13.3125H5C4.91712 13.3125 4.83763 13.2796 4.77903 13.221C4.72042 13.1624 4.6875 13.0829 4.6875 13V8C4.6875 7.91712 4.72042 7.83763 4.77903 7.77903C4.83763 7.72042 4.91712 7.6875 5 7.6875H8.75C8.83288 7.6875 8.91237 7.72042 8.97097 7.77903C9.02958 7.83763 9.0625 7.91712 9.0625 8V13ZM15 12.375H11.25C11.0842 12.375 10.9253 12.3092 10.8081 12.1919C10.6908 12.0747 10.625 11.9158 10.625 11.75C10.625 11.5842 10.6908 11.4253 10.8081 11.3081C10.9253 11.1908 11.0842 11.125 11.25 11.125H15C15.1658 11.125 15.3247 11.1908 15.4419 11.3081C15.5592 11.4253 15.625 11.5842 15.625 11.75C15.625 11.9158 15.5592 12.0747 15.4419 12.1919C15.3247 12.3092 15.1658 12.375 15 12.375ZM15 9.875H11.25C11.0842 9.875 10.9253 9.80915 10.8081 9.69194C10.6908 9.57473 10.625 9.41576 10.625 9.25C10.625 9.08424 10.6908 8.92527 10.8081 8.80806C10.9253 8.69085 11.0842 8.625 11.25 8.625H15C15.1658 8.625 15.3247 8.69085 15.4419 8.80806C15.5592 8.92527 15.625 9.08424 15.625 9.25C15.625 9.41576 15.5592 9.57473 15.4419 9.69194C15.3247 9.80915 15.1658 9.875 15 9.875Z" fill="currentColor" />
</svg>