<svg width="21" height="20" viewBox="0 0 21 20" fill="none" xmlns="http://www.w3.org/2000/svg">
  <path d="M18.8038 3.74297C18.6813 3.46613 18.4811 3.23082 18.2274 3.06564C17.9737 2.90045 17.6776 2.81251 17.3748 2.8125H3.62485C3.32219 2.81253 3.02605 2.90046 2.77242 3.06561C2.51879 3.23075 2.31858 3.46601 2.19612 3.74279C2.07365 4.01957 2.03421 4.32595 2.08259 4.62472C2.13096 4.92349 2.26506 5.20178 2.4686 5.42578L2.47797 5.43672L7.68735 10.9961V16.875C7.68731 17.1579 7.76406 17.4355 7.90942 17.6781C8.05478 17.9208 8.26329 18.1195 8.51272 18.2529C8.76214 18.3864 9.04311 18.4496 9.32566 18.4359C9.6082 18.4222 9.88172 18.332 10.117 18.175L12.617 16.5086C12.8311 16.3658 13.0065 16.1723 13.1278 15.9454C13.2491 15.7185 13.3125 15.4651 13.3123 15.2078V10.9961L18.5209 5.43672L18.5303 5.42578C18.734 5.2019 18.8682 4.92369 18.9168 4.62495C18.9653 4.32622 18.9261 4.01981 18.8038 3.74297ZM11.6944 9.98438C11.5303 10.1575 11.4384 10.3865 11.4373 10.625V15.0406L9.56235 16.2906V10.625C9.56211 10.387 9.47134 10.1579 9.30844 9.98438L4.34594 4.6875H16.6538L11.6944 9.98438Z" fill="currentColor" />
</svg>