<svg width="18" height="18" viewBox="0 0 18 18" fill="none" xmlns="http://www.w3.org/2000/svg">
  <path d="M7.67188 5.8125C7.67188 5.54982 7.74977 5.29304 7.8957 5.07463C8.04164 4.85622 8.24907 4.686 8.49175 4.58547C8.73443 4.48495 9.00147 4.45865 9.2591 4.50989C9.51674 4.56114 9.75338 4.68763 9.93913 4.87337C10.1249 5.05912 10.2514 5.29576 10.3026 5.5534C10.3539 5.81103 10.3275 6.07807 10.227 6.32075C10.1265 6.56343 9.95628 6.77086 9.73787 6.9168C9.51946 7.06273 9.26268 7.14062 9 7.14062C8.64776 7.14062 8.30995 7.0007 8.06087 6.75163C7.8118 6.50255 7.67188 6.16474 7.67188 5.8125ZM4.48438 5.8125C4.48438 4.61488 4.96013 3.46631 5.80697 2.61947C6.65381 1.77263 7.80238 1.29688 9 1.29688C10.1976 1.29688 11.3462 1.77263 12.193 2.61947C13.0399 3.46631 13.5156 4.61488 13.5156 5.8125C13.5156 9.94629 9.56379 12.2539 9.39512 12.3482C9.27477 12.4169 9.13858 12.4531 9 12.4531C8.86142 12.4531 8.72523 12.4169 8.60488 12.3482C8.43621 12.2539 4.48438 9.94629 4.48438 5.8125ZM6.07812 5.8125C6.07812 8.34922 8.11746 10.0758 9 10.7027C9.87723 10.0725 11.9219 8.33594 11.9219 5.8125C11.9219 5.03757 11.614 4.29438 11.0661 3.74642C10.5181 3.19846 9.77493 2.89062 9 2.89062C8.22507 2.89062 7.48188 3.19846 6.93392 3.74642C6.38596 4.29438 6.07812 5.03757 6.07812 5.8125ZM14.3504 10.1688C14.2534 10.1276 14.1492 10.1061 14.0438 10.1055C13.9385 10.1048 13.834 10.1251 13.7366 10.1651C13.6391 10.2051 13.5505 10.264 13.476 10.3385C13.4014 10.4129 13.3424 10.5014 13.3023 10.5988C13.2621 10.6962 13.2417 10.8006 13.2422 10.906C13.2427 11.0114 13.2641 11.1156 13.3051 11.2126C13.3461 11.3097 13.406 11.3976 13.4812 11.4713C13.5565 11.5451 13.6456 11.6032 13.7434 11.6423C14.6817 12.0288 15.1094 12.4711 15.1094 12.7188C15.1094 12.9844 14.6359 13.4539 13.5973 13.853C12.3821 14.3178 10.7491 14.5781 9 14.5781C7.25086 14.5781 5.61793 14.3205 4.4027 13.853C3.36344 13.4539 2.89062 12.9844 2.89062 12.7188C2.89062 12.4711 3.31828 12.0288 4.2566 11.6423C4.35444 11.6032 4.44355 11.5451 4.51878 11.4713C4.59401 11.3976 4.65387 11.3097 4.69489 11.2126C4.73592 11.1156 4.75729 11.0114 4.75778 10.906C4.75826 10.8006 4.73785 10.6962 4.69773 10.5988C4.6576 10.5014 4.59856 10.4129 4.52401 10.3385C4.44947 10.264 4.3609 10.2051 4.26343 10.1651C4.16596 10.1251 4.06153 10.1048 3.95617 10.1055C3.85082 10.1061 3.74663 10.1276 3.64965 10.1688C2.57652 10.6104 1.29688 11.4112 1.29688 12.7188C1.29688 14.9859 5.17234 16.1719 9 16.1719C10.9404 16.1719 12.7759 15.877 14.1697 15.3405C15.116 14.9766 16.7031 14.1525 16.7031 12.7188C16.7031 11.4112 15.4235 10.6104 14.3504 10.1688Z" fill="#79869A" />
</svg>