<svg width="20" height="21" viewBox="0 0 20 21" fill="none" xmlns="http://www.w3.org/2000/svg">
  <path d="M17.1355 8.1925C17.5997 8.97387 17.9044 9.83953 18.0319 10.7394C18.1595 11.6393 18.1073 12.5555 17.8785 13.4351C17.6496 14.3147 17.2487 15.1402 16.6988 15.8638C16.1489 16.5875 15.4609 17.1949 14.6748 17.651C13.8886 18.107 13.0198 18.4027 12.1186 18.5208C11.2175 18.639 10.3018 18.5773 9.42467 18.3393C8.54751 18.1013 7.72625 17.6917 7.00839 17.1343C6.29053 16.5768 5.69032 15.8826 5.24248 15.0917L2.04483 9.55344C1.89272 9.26746 1.85757 8.9336 1.94678 8.62221C2.03599 8.31082 2.24259 8.04622 2.52305 7.88416C2.80352 7.7221 3.13594 7.67524 3.45027 7.75345C3.7646 7.83167 4.0363 8.02885 4.20811 8.30344L5.65811 10.8128C5.69915 10.8839 5.75379 10.9462 5.81891 10.9962C5.88403 11.0462 5.95836 11.0829 6.03765 11.1041C6.11695 11.1254 6.19965 11.1308 6.28104 11.1201C6.36243 11.1094 6.44092 11.0828 6.51202 11.0417C6.58311 11.0007 6.64543 10.946 6.69541 10.8809C6.7454 10.8158 6.78206 10.7415 6.80332 10.6622C6.82457 10.5829 6.83 10.5002 6.8193 10.4188C6.80859 10.3374 6.78196 10.2589 6.74092 10.1878L3.67373 4.87532C3.52163 4.58934 3.48648 4.25547 3.57569 3.94408C3.66489 3.63269 3.8715 3.36809 4.15196 3.20603C4.43242 3.04397 4.76484 2.99712 5.07917 3.07533C5.39351 3.15354 5.6652 3.35072 5.83702 3.62532L8.90811 8.93782C8.94794 9.01116 9.00205 9.07579 9.06726 9.12788C9.13247 9.17997 9.20745 9.21848 9.28778 9.24112C9.36811 9.26377 9.45216 9.27009 9.53498 9.25973C9.61779 9.24936 9.69769 9.22252 9.76996 9.18077C9.84224 9.13903 9.90541 9.08323 9.95577 9.01667C10.0061 8.95011 10.0426 8.87414 10.0632 8.79325C10.0837 8.71235 10.0878 8.62816 10.0753 8.54564C10.0627 8.46313 10.0338 8.38396 9.99014 8.31282L7.64639 4.25032C7.48548 3.96353 7.44406 3.62488 7.53112 3.30776C7.61818 2.99064 7.82669 2.72061 8.11148 2.55617C8.39626 2.39173 8.73437 2.34614 9.05254 2.42928C9.37071 2.51242 9.6433 2.71758 9.81123 3.00032L12.9706 8.47844C12.272 9.18248 11.879 10.1335 11.8769 11.1253C11.8745 11.9371 12.1379 12.7273 12.6269 13.3753C12.6756 13.4424 12.7372 13.4991 12.8081 13.5421C12.879 13.5851 12.9577 13.6136 13.0397 13.6259C13.1217 13.6382 13.2053 13.6341 13.2856 13.6137C13.366 13.5934 13.4416 13.5573 13.5078 13.5075C13.5741 13.4577 13.6298 13.3952 13.6717 13.3237C13.7136 13.2521 13.7409 13.1729 13.7519 13.0908C13.7629 13.0086 13.7574 12.9251 13.7358 12.845C13.7142 12.765 13.6769 12.69 13.6261 12.6245C13.4284 12.3606 13.2849 12.0601 13.2038 11.7405C13.1227 11.4208 13.1057 11.0882 13.1537 10.762C13.2017 10.4357 13.3138 10.1222 13.4835 9.83938C13.6532 9.55661 13.8771 9.31022 14.1425 9.11438C14.2659 9.02308 14.3513 8.88956 14.3826 8.73928C14.4139 8.589 14.3887 8.43248 14.312 8.29954L13.4167 6.75032C13.2558 6.46353 13.2144 6.12488 13.3014 5.80776C13.3885 5.49064 13.597 5.22061 13.8818 5.05617C14.1666 4.89173 14.5047 4.84614 14.8229 4.92928C15.141 5.01242 15.4136 5.21758 15.5815 5.50032L17.1355 8.1925ZM14.8409 3.73938C15.2788 3.85478 15.6894 4.05606 16.0489 4.33154C16.4083 4.60702 16.7094 4.9512 16.9347 5.34407L16.9605 5.3886C17.0433 5.53219 17.1799 5.63697 17.34 5.6799C17.4193 5.70116 17.502 5.70659 17.5834 5.69588C17.6648 5.68518 17.7433 5.65854 17.8144 5.61751C17.8855 5.57647 17.9478 5.52183 17.9978 5.4567C18.0477 5.39158 18.0844 5.31725 18.1057 5.23796C18.1269 5.15867 18.1323 5.07597 18.1216 4.99457C18.1109 4.91318 18.0843 4.8347 18.0433 4.7636L18.0175 4.71907C17.7103 4.1835 17.2998 3.71432 16.8097 3.33879C16.3196 2.96326 15.7598 2.68887 15.1628 2.53157C15.0031 2.49027 14.8335 2.51378 14.6911 2.59699C14.5487 2.68019 14.4449 2.81633 14.4024 2.97572C14.3599 3.13512 14.3822 3.30485 14.4643 3.4479C14.5465 3.59095 14.6818 3.69572 14.8409 3.73938ZM6.21905 18.1347C5.40917 17.4956 4.72899 16.7074 4.21514 15.8128C4.1741 15.7417 4.11946 15.6794 4.05434 15.6294C3.98922 15.5794 3.91489 15.5428 3.8356 15.5215C3.7563 15.5003 3.6736 15.4948 3.59221 15.5055C3.51082 15.5162 3.43233 15.5429 3.36123 15.5839C3.29014 15.6249 3.22782 15.6796 3.17783 15.7447C3.12785 15.8098 3.09119 15.8842 3.06993 15.9635C3.04868 16.0427 3.04325 16.1255 3.05395 16.2068C3.06466 16.2882 3.09129 16.3667 3.13233 16.4378C3.72549 17.4697 4.5104 18.3787 5.44483 19.1159C5.57516 19.2162 5.73975 19.2611 5.90293 19.2408C6.06612 19.2206 6.21474 19.1368 6.3166 19.0077C6.41845 18.8786 6.46533 18.7146 6.44707 18.5512C6.42881 18.3878 6.34688 18.2381 6.21905 18.1347Z" fill="currentColor" />
</svg>