<svg width="20" height="20" viewBox="0 0 20 20" fill="none" xmlns="http://www.w3.org/2000/svg">
  <rect x="1" y="1" width="18" height="18" rx="9" fill="#D6001C" />
  <rect x="1" y="1" width="18" height="18" rx="9" stroke="white" stroke-width="2" />
  <path d="M7.1353 7.33398V9.39179C7.47815 9.01824 7.88914 8.8302 8.36578 8.8302C8.61127 8.8302 8.83111 8.87305 9.02833 8.958C9.2261 9.04244 9.37394 9.15082 9.47379 9.2824C9.5742 9.41523 9.64205 9.56067 9.67874 9.72098C9.71515 9.88053 9.73335 10.1288 9.73335 10.4656V12.6658H8.66809V10.6841C8.66809 10.2909 8.64878 10.0419 8.60823 9.93599C8.57025 9.83228 8.49488 9.74342 8.39447 9.68393C8.29186 9.62066 8.16415 9.58941 8.00996 9.58941C7.83343 9.58941 7.6751 9.62973 7.53746 9.70989C7.39678 9.79055 7.29583 9.91103 7.23184 10.0721C7.16674 10.2334 7.13419 10.4716 7.1353 10.7869L7.13419 12.6658H6.07031V7.33398H7.13557M11.3299 7.33398V9.39179C11.673 9.01824 12.0837 8.8302 12.5601 8.8302C12.8047 8.8302 13.0262 8.87305 13.2237 8.958C13.4207 9.04244 13.5685 9.15082 13.6678 9.2824C13.768 9.41435 13.8377 9.56358 13.8727 9.72098C13.9094 9.88053 13.9276 10.1288 13.9276 10.4656V12.6658H12.8635V10.6841C12.8635 10.2909 12.8433 10.0419 12.8028 9.93599C12.7648 9.83214 12.6892 9.74323 12.5885 9.68393C12.487 9.62066 12.3582 9.58941 12.204 9.58941C12.0277 9.58941 11.8694 9.62973 11.7315 9.70989C11.5927 9.79055 11.4912 9.91103 11.4264 10.0721C11.3624 10.2334 11.3299 10.4716 11.3299 10.7869V12.6658H10.266V7.33398H11.3299Z" fill="white" />
</svg>