<svg width="41" height="40" viewBox="0 0 41 40" fill="none" xmlns="http://www.w3.org/2000/svg">
  <rect x="0.5" width="40" height="40" rx="10" fill="#D6001C" />
  <path d="M14.7706 14.668V18.7836C15.4563 18.0365 16.2783 17.6604 17.2316 17.6604C17.7225 17.6604 18.1622 17.7461 18.5567 17.916C18.9522 18.0849 19.2479 18.3016 19.4476 18.5648C19.6484 18.8305 19.7841 19.1213 19.8575 19.442C19.9303 19.7611 19.9667 20.2576 19.9667 20.9311V25.3316H17.8362V21.3682C17.8362 20.5818 17.7976 20.0837 17.7165 19.872C17.6405 19.6646 17.4898 19.4868 17.2889 19.3679C17.0837 19.2413 16.8283 19.1788 16.5199 19.1788C16.1669 19.1788 15.8502 19.2595 15.5749 19.4198C15.2936 19.5811 15.0917 19.8221 14.9637 20.1442C14.8335 20.4668 14.7684 20.9432 14.7706 21.5739L14.7684 25.3316H12.6406V14.668H14.7711M23.1597 14.668V18.7836C23.846 18.0365 24.6674 17.6604 25.6201 17.6604C26.1095 17.6604 26.5524 17.7461 26.9474 17.916C27.3413 18.0849 27.637 18.3016 27.8356 18.5648C28.036 18.8287 28.1755 19.1272 28.2455 19.442C28.3189 19.7611 28.3553 20.2576 28.3553 20.9311V25.3316H26.227V21.3682C26.227 20.5818 26.1867 20.0837 26.1056 19.872C26.0296 19.6643 25.8784 19.4865 25.677 19.3679C25.4739 19.2413 25.2163 19.1788 24.9079 19.1788C24.5554 19.1788 24.2388 19.2595 23.9629 19.4198C23.6855 19.5811 23.4824 19.8221 23.3528 20.1442C23.2248 20.4668 23.1597 20.9432 23.1597 21.5739V25.3316H21.032V14.668H23.1597Z" fill="white" />
</svg>