<svg width="21" height="20" viewBox="0 0 21 20" fill="none" xmlns="http://www.w3.org/2000/svg">
  <rect x="0.5" width="20" height="20" rx="5" fill="#D6001C" />
  <path d="M7.6353 7.33398V9.39179C7.97815 9.01824 8.38914 8.8302 8.86578 8.8302C9.11127 8.8302 9.33111 8.87305 9.52833 8.958C9.7261 9.04244 9.87394 9.15082 9.97379 9.2824C10.0742 9.41523 10.1421 9.56067 10.1787 9.72098C10.2151 9.88053 10.2334 10.1288 10.2334 10.4656V12.6658H9.16809V10.6841C9.16809 10.2909 9.14878 10.0419 9.10823 9.93599C9.07025 9.83228 8.99488 9.74342 8.89447 9.68393C8.79186 9.62066 8.66415 9.58941 8.50996 9.58941C8.33342 9.58941 8.1751 9.62973 8.03746 9.70989C7.89678 9.79055 7.79583 9.91103 7.73184 10.0721C7.66674 10.2334 7.63419 10.4716 7.6353 10.7869L7.63419 12.6658H6.57031V7.33398H7.63557M11.8299 7.33398V9.39179C12.173 9.01824 12.5837 8.8302 13.0601 8.8302C13.3047 8.8302 13.5262 8.87305 13.7237 8.958C13.9207 9.04244 14.0685 9.15082 14.1678 9.2824C14.268 9.41435 14.3377 9.56358 14.3727 9.72098C14.4094 9.88053 14.4276 10.1288 14.4276 10.4656V12.6658H13.3635V10.6841C13.3635 10.2909 13.3433 10.0419 13.3028 9.93599C13.2648 9.83214 13.1892 9.74323 13.0885 9.68393C12.987 9.62066 12.8582 9.58941 12.704 9.58941C12.5277 9.58941 12.3694 9.62973 12.2315 9.70989C12.0927 9.79055 11.9912 9.91103 11.9264 10.0721C11.8624 10.2334 11.8299 10.4716 11.8299 10.7869V12.6658H10.766V7.33398H11.8299Z" fill="white" />
</svg>