<svg width="21" height="20" viewBox="0 0 21 20" fill="none" xmlns="http://www.w3.org/2000/svg">
  <path d="M16.4375 4.375C16.4375 4.62364 16.3387 4.8621 16.1629 5.03791C15.9871 5.21373 15.7486 5.3125 15.5 5.3125H13.0508L9.92578 14.6875H11.75C11.9986 14.6875 12.2371 14.7863 12.4129 14.9621C12.5887 15.1379 12.6875 15.3764 12.6875 15.625C12.6875 15.8736 12.5887 16.1121 12.4129 16.2879C12.2371 16.4637 11.9986 16.5625 11.75 16.5625H5.5C5.25136 16.5625 5.0129 16.4637 4.83709 16.2879C4.66127 16.1121 4.5625 15.8736 4.5625 15.625C4.5625 15.3764 4.66127 15.1379 4.83709 14.9621C5.0129 14.7863 5.25136 14.6875 5.5 14.6875H7.94922L11.0742 5.3125H9.25C9.00136 5.3125 8.7629 5.21373 8.58709 5.03791C8.41127 4.8621 8.3125 4.62364 8.3125 4.375C8.3125 4.12636 8.41127 3.8879 8.58709 3.71209C8.7629 3.53627 9.00136 3.4375 9.25 3.4375H15.5C15.7486 3.4375 15.9871 3.53627 16.1629 3.71209C16.3387 3.8879 16.4375 4.12636 16.4375 4.375Z" fill="#2F353D" />
</svg>