<svg width="21" height="20" viewBox="0 0 21 20" fill="none" xmlns="http://www.w3.org/2000/svg">
  <path d="M9.65382 14.7454C9.74121 14.8325 9.81056 14.936 9.85788 15.05C9.9052 15.1639 9.92955 15.2861 9.92955 15.4095C9.92955 15.5329 9.9052 15.655 9.85788 15.769C9.81056 15.883 9.74121 15.9864 9.65382 16.0735L9.25381 16.4735C8.8292 16.8997 8.32431 17.2375 7.76834 17.4674C7.21238 17.6972 6.61636 17.8145 6.01475 17.8126C5.10876 17.8129 4.22304 17.5445 3.46965 17.0413C2.71625 16.5381 2.12903 15.8227 1.78229 14.9857C1.43554 14.1487 1.34484 13.2276 1.52167 12.3391C1.6985 11.4505 2.13491 10.6343 2.77569 9.99386L5.49053 7.27901C6.06798 6.70165 6.78926 6.28912 7.57968 6.08413C8.37011 5.87915 9.20096 5.88915 9.98623 6.11311C10.7715 6.33708 11.4826 6.76686 12.046 7.35796C12.6094 7.94906 13.0045 8.68 13.1905 9.47511C13.2213 9.596 13.2277 9.72183 13.2093 9.84521C13.1908 9.9686 13.1479 10.0871 13.0831 10.1937C13.0183 10.3003 12.9329 10.3928 12.8318 10.466C12.7308 10.5392 12.6161 10.5914 12.4946 10.6197C12.3731 10.648 12.2472 10.6517 12.1242 10.6307C12.0012 10.6097 11.8837 10.5644 11.7785 10.4974C11.6732 10.4303 11.5824 10.343 11.5114 10.2404C11.4404 10.1379 11.3905 10.0222 11.3648 9.90011C11.2544 9.43076 11.0206 8.9994 10.6877 8.65064C10.3548 8.30188 9.93476 8.04836 9.47104 7.9163C9.00733 7.78425 8.51675 7.77844 8.05004 7.89948C7.58332 8.02052 7.1574 8.26401 6.81632 8.60479L4.10147 11.3196C3.72304 11.6978 3.46524 12.1796 3.36068 12.7043C3.25611 13.2289 3.30948 13.7728 3.51403 14.2671C3.71858 14.7614 4.06512 15.184 4.50983 15.4813C4.95454 15.7787 5.47745 15.9375 6.01241 15.9376C6.36786 15.9386 6.71998 15.8691 7.04839 15.7331C7.3768 15.5972 7.67499 15.3974 7.92569 15.1454L8.32491 14.7454C8.41202 14.6579 8.51556 14.5885 8.62959 14.5411C8.74362 14.4937 8.86588 14.4693 8.98936 14.4693C9.11284 14.4693 9.23511 14.4937 9.34914 14.5411C9.46316 14.5885 9.5667 14.6579 9.65382 14.7454ZM18.2202 3.52901C17.361 2.67004 16.1957 2.1875 14.9808 2.1875C13.7658 2.1875 12.6006 2.67004 11.7413 3.52901L11.3421 3.92823C11.166 4.10435 11.067 4.34322 11.067 4.59229C11.067 4.84137 11.166 5.08024 11.3421 5.25636C11.5182 5.43248 11.7571 5.53142 12.0062 5.53142C12.2552 5.53142 12.4941 5.43248 12.6702 5.25636L13.0702 4.85636C13.5779 4.34872 14.2664 4.06353 14.9843 4.06353C15.7022 4.06353 16.3907 4.34872 16.8983 4.85636C17.406 5.364 17.6912 6.05251 17.6912 6.77042C17.6912 7.48833 17.406 8.17684 16.8983 8.68448L14.1788 11.3954C13.9282 11.6475 13.63 11.8473 13.3016 11.9833C12.9731 12.1192 12.621 12.1887 12.2655 12.1876C11.6558 12.1872 11.064 11.9808 10.5863 11.6019C10.1085 11.2229 9.77278 10.6938 9.6335 10.1001C9.57714 9.85789 9.42687 9.64798 9.21575 9.51656C9.00462 9.38514 8.74994 9.34297 8.50772 9.39933C8.2655 9.45568 8.0556 9.60596 7.92417 9.81708C7.79275 10.0282 7.75058 10.2829 7.80694 10.5251C8.04218 11.5305 8.61015 12.4269 9.41873 13.069C10.2273 13.7111 11.2291 14.0612 12.2616 14.0626H12.2655C12.8674 14.0643 13.4637 13.9466 14.0198 13.7163C14.5759 13.4861 15.0808 13.1478 15.5054 12.7212L18.2202 10.0064C18.6456 9.58108 18.983 9.07618 19.2132 8.52048C19.4434 7.96478 19.5619 7.36918 19.5619 6.76769C19.5619 6.16619 19.4434 5.57059 19.2132 5.01489C18.983 4.45919 18.6456 3.95429 18.2202 3.52901Z" fill="currentColor" />
</svg>