<svg width="62" height="62" viewBox="0 0 62 62" fill="none" xmlns="http://www.w3.org/2000/svg">
  <path d="M0.898438 61.1356L5.115 46.1597C2.4035 41.5533 0.975881 36.3122 0.975881 30.9281C0.975881 14.3503 14.4629 0.863281 31.0407 0.863281C47.6185 0.863281 61.1054 14.3503 61.1054 30.9281C61.1054 47.5059 47.6185 60.9929 31.0407 60.9929C25.8752 60.9929 20.8171 59.6707 16.3425 57.16L0.898438 61.1356ZM17.1321 51.6904L18.0524 52.2523C21.9537 54.634 26.4451 55.893 31.0407 55.893C44.8064 55.893 56.0054 44.6938 56.0054 30.9281C56.0054 17.1625 44.8064 5.96327 31.0407 5.96327C17.2751 5.96327 6.07587 17.1625 6.07587 30.9281C6.07587 35.7246 7.43908 40.3824 10.0178 44.398L10.6375 45.363L8.20937 53.9873L17.1321 51.6904Z" fill="white" />
  <path d="M22.5947 16.9361L20.6439 16.8297C20.0311 16.7963 19.4301 17.001 18.9669 17.4034C18.0211 18.2246 16.5089 19.8124 16.0444 21.8815C15.3518 24.9667 16.4222 28.7444 19.1926 32.5222C21.9631 36.3 27.1259 42.3444 36.2555 44.9259C39.1974 45.7578 41.5117 45.197 43.2973 44.0548C44.7115 43.1502 45.6863 41.6982 46.0377 40.0568L46.3491 38.602C46.4481 38.1396 46.2133 37.6704 45.7838 37.4724L39.1906 34.4334C38.7626 34.2362 38.2551 34.3608 37.9672 34.7339L35.3789 38.0893C35.1834 38.3428 34.8487 38.4433 34.5464 38.3371C32.7739 37.7142 26.8364 35.2275 23.5784 28.9518C23.4371 28.6796 23.4723 28.3493 23.6727 28.1171L26.1464 25.2555C26.3991 24.9633 26.4629 24.5524 26.3111 24.1973L23.4691 17.5482C23.3178 17.1943 22.9787 16.957 22.5947 16.9361Z" fill="white" />
</svg>