<svg width="70" height="72" viewBox="0 0 70 72" fill="none" xmlns="http://www.w3.org/2000/svg">
  <path d="M68.2289 17.3345L68.2081 17.2515C66.5298 10.4665 58.9632 3.18579 52.0144 1.67109L51.936 1.65495C40.6968 -0.48915 29.3008 -0.48915 18.0639 1.65495L17.9832 1.67109C11.0368 3.18579 3.47019 10.4665 1.78949 17.2515L1.77104 17.3345C-0.30389 26.8101 -0.30389 36.4193 1.77104 45.8949L1.78949 45.9779C3.39849 52.4733 10.4016 59.4195 17.091 61.3298V68.9038C17.091 71.645 20.4316 72.9914 22.3313 71.0133L30.0051 63.0366C31.6695 63.1297 33.3347 63.1816 35 63.1816C40.6576 63.1816 46.3176 62.6467 51.936 61.5747L52.0144 61.5585C58.9632 60.0438 66.5298 52.7631 68.2081 45.9781L68.2289 45.8951C70.3038 36.4193 70.3038 26.8101 68.2289 17.3345ZM62.1563 44.5208C61.0358 48.9473 55.2905 54.4505 50.7257 55.4672C44.7496 56.6036 38.7263 57.0894 32.709 56.9227C32.5894 56.9195 32.4743 56.9658 32.3909 57.0516C31.5369 57.9281 26.7878 62.8033 26.7878 62.8033L20.8282 68.9197C20.3924 69.3739 19.627 69.065 19.627 68.4379V55.891C19.627 55.6837 19.479 55.5076 19.2754 55.4677C19.2743 55.4675 19.2731 55.4672 19.272 55.467C14.7071 54.4503 8.96415 48.9471 7.84138 44.5206C5.97394 35.9557 5.97394 27.2732 7.84138 18.7084C8.96415 14.2818 14.7071 8.77866 19.272 7.76194C29.7089 5.77692 40.291 5.77692 50.7257 7.76194C55.2928 8.77866 61.0358 14.2818 62.1563 18.7084C64.0258 27.2735 64.0258 35.9559 62.1563 44.5208Z" fill="white" />
  <path d="M44.9311 50.3125C44.2293 50.0995 43.5605 49.9563 42.9394 49.6986C36.5034 47.0284 30.5802 43.5835 25.8883 38.3028C23.2202 35.2999 21.1318 31.9097 19.3665 28.3219C18.5294 26.6205 17.8239 24.8524 17.1049 23.0959C16.4492 21.494 17.4149 19.8391 18.4319 18.6322C19.3861 17.4995 20.614 16.6327 21.9438 15.9938C22.9818 15.4951 24.0056 15.7826 24.7637 16.6624C26.4024 18.5644 27.9077 20.5637 29.1266 22.7685C29.8761 24.1246 29.6704 25.7822 28.312 26.7051C27.9819 26.9294 27.681 27.1927 27.3735 27.4461C27.1037 27.6681 26.8499 27.8924 26.665 28.193C26.327 28.7431 26.3109 29.3919 26.5285 29.9899C28.2037 34.5935 31.0272 38.1733 35.6608 40.1013C36.4022 40.4098 37.1469 40.769 38.0011 40.6694C39.4316 40.5023 39.8948 38.9331 40.8972 38.1133C41.877 37.3122 43.1292 37.3016 44.1846 37.9694C45.2403 38.6376 46.2637 39.3548 47.2809 40.0797C48.2794 40.7911 49.2735 41.4872 50.1945 42.2982C51.0801 43.0782 51.3851 44.1013 50.8864 45.1598C49.9734 47.0982 48.645 48.7109 46.7287 49.7403C46.1876 50.0306 45.5414 50.1246 44.9311 50.3125C45.5414 50.1246 44.2293 50.0993 44.9311 50.3125Z" fill="white" />
  <path d="M35.0178 13.7769C43.4362 14.0128 50.3506 19.5997 51.8323 27.9225C52.0848 29.3406 52.1747 30.7905 52.287 32.2298C52.3342 32.8352 51.9914 33.4104 51.338 33.4183C50.6632 33.4263 50.3596 32.8617 50.3158 32.2565C50.2291 31.0586 50.1689 29.8554 50.0039 28.6674C49.1324 22.3962 44.1318 17.208 37.8897 16.0946C36.9504 15.927 35.989 15.883 35.0376 15.7832C34.4361 15.72 33.6483 15.6836 33.515 14.9359C33.4032 14.309 33.9323 13.8099 34.5292 13.7779C34.6915 13.7689 34.8548 13.7762 35.0178 13.7769C43.4362 14.0128 34.8548 13.7762 35.0178 13.7769Z" fill="white" />
  <path d="M47.812 30.3624C47.7981 30.4675 47.7907 30.7147 47.7292 30.9475C47.5058 31.7927 46.2244 31.8985 45.9293 31.0455C45.8419 30.7923 45.8288 30.5044 45.8283 30.2319C45.8253 28.4488 45.4378 26.6676 44.5386 25.1162C43.6144 23.5218 42.2023 22.1814 40.546 21.3703C39.5445 20.8799 38.4614 20.5751 37.3637 20.3935C36.884 20.3142 36.3991 20.266 35.917 20.1989C35.3328 20.1177 35.0209 19.7454 35.0486 19.1697C35.0744 18.6302 35.4686 18.2422 36.0565 18.2754C37.9885 18.3852 39.8546 18.8027 41.5722 19.7122C45.065 21.5619 47.0601 24.4815 47.6425 28.3801C47.6688 28.5567 47.7112 28.7317 47.7246 28.909C47.7575 29.3468 47.7783 29.7851 47.812 30.3624C47.7981 30.4675 47.7783 29.7851 47.812 30.3624Z" fill="white" />
  <path d="M42.5742 30.158C41.8699 30.1707 41.493 29.7808 41.4203 29.135C41.3698 28.6848 41.33 28.2285 41.2225 27.7905C41.0109 26.9278 40.5523 26.1282 39.8266 25.5996C39.484 25.3499 39.0957 25.168 38.689 25.0506C38.1724 24.9015 37.6359 24.9425 37.1204 24.8162C36.5606 24.679 36.251 24.2257 36.3391 23.7006C36.4191 23.2226 36.8841 22.8496 37.4063 22.8874C40.6701 23.123 43.0028 24.8104 43.3357 28.6527C43.3592 28.9239 43.3869 29.2104 43.3267 29.4698C43.2237 29.9138 42.8949 30.1363 42.5742 30.158C42.8949 30.1363 41.8699 30.1707 42.5742 30.158Z" fill="white" />
</svg>