<svg width="26" height="26" viewBox="0 0 26 26" fill="none" xmlns="http://www.w3.org/2000/svg">
  <path d="M13 2.45312C10.2028 2.45313 7.52016 3.56431 5.54223 5.54223C3.56431 7.52016 2.45313 10.2028 2.45312 13C2.45313 15.7972 3.56431 18.4798 5.54223 20.4578C7.52016 22.4357 10.2028 23.5469 13 23.5469C15.1748 23.5469 17.4619 22.8896 19.1172 21.7891C19.3762 21.617 19.5562 21.349 19.6177 21.0442C19.6791 20.7393 19.6169 20.4226 19.4448 20.1636C19.2727 19.9046 19.0048 19.7246 18.6999 19.6631C18.3951 19.6017 18.0783 19.6638 17.8193 19.8359C16.5498 20.6787 14.7051 21.2031 13 21.2031C11.3776 21.2031 9.79158 20.722 8.44259 19.8206C7.09359 18.9193 6.04218 17.6381 5.4213 16.1392C4.80043 14.6403 4.63798 12.9909 4.9545 11.3996C5.27102 9.8084 6.05229 8.34674 7.19951 7.19951C8.34674 6.05229 9.8084 5.27102 11.3996 4.9545C12.9909 4.63798 14.6403 4.80043 16.1392 5.4213C17.6381 6.04218 18.9193 7.09359 19.8206 8.44259C20.722 9.79158 21.2031 11.3776 21.2031 13C21.2031 13.9072 21.04 14.668 20.7451 15.1436C20.4873 15.5576 20.1592 15.7344 19.6406 15.7344C19.1221 15.7344 18.7939 15.5576 18.5361 15.1436C18.2432 14.668 18.0781 13.9072 18.0781 13V9.09375C18.0781 8.81256 17.977 8.54075 17.7932 8.32793C17.6094 8.11512 17.3552 7.97548 17.077 7.9345C16.7988 7.89353 16.5152 7.95394 16.2778 8.10473C16.0405 8.25552 15.8653 8.48662 15.7842 8.75586C14.9785 8.22643 14.0387 7.93731 13.0747 7.92228C12.1107 7.90726 11.1624 8.16697 10.3405 8.67103C9.51871 9.1751 8.85735 9.90269 8.43378 10.7688C8.01021 11.6348 7.84194 12.6036 7.94863 13.5618C8.05532 14.5199 8.43257 15.4279 9.03627 16.1796C9.63997 16.9313 10.4452 17.4956 11.3578 17.8066C12.2703 18.1175 13.2526 18.1622 14.1896 17.9355C15.1267 17.7088 15.9799 17.2201 16.6494 16.5264C17.3262 17.5215 18.3525 18.0781 19.6406 18.0781C22.0498 18.0781 23.5469 16.1328 23.5469 13C23.5438 10.2037 22.4316 7.52291 20.4543 5.54566C18.4771 3.56841 15.7963 2.45623 13 2.45312ZM13 15.7344C12.4592 15.7344 11.9305 15.574 11.4809 15.2735C11.0312 14.9731 10.6807 14.546 10.4738 14.0464C10.2668 13.5468 10.2127 12.997 10.3182 12.4665C10.4237 11.9361 10.6841 11.4489 11.0665 11.0665C11.4489 10.6841 11.9361 10.4237 12.4665 10.3182C12.997 10.2127 13.5468 10.2668 14.0464 10.4738C14.546 10.6807 14.9731 11.0312 15.2735 11.4809C15.574 11.9305 15.7344 12.4592 15.7344 13C15.7344 13.7252 15.4463 14.4207 14.9335 14.9335C14.4207 15.4463 13.7252 15.7344 13 15.7344Z" fill="#FFBA08" />
</svg>