<svg width="18" height="18" viewBox="0 0 18 18" fill="none" xmlns="http://www.w3.org/2000/svg">
  <path d="M14.3125 2.35938H12.9844V2.09375C12.9844 1.88241 12.9004 1.67972 12.751 1.53027C12.6015 1.38083 12.3988 1.29688 12.1875 1.29688C11.9762 1.29688 11.7735 1.38083 11.624 1.53027C11.4746 1.67972 11.3906 1.88241 11.3906 2.09375V2.35938H6.60938V2.09375C6.60938 1.88241 6.52542 1.67972 6.37598 1.53027C6.22653 1.38083 6.02384 1.29688 5.8125 1.29688C5.60116 1.29688 5.39847 1.38083 5.24902 1.53027C5.09958 1.67972 5.01562 1.88241 5.01562 2.09375V2.35938H3.6875C3.33526 2.35938 2.99745 2.4993 2.74837 2.74837C2.4993 2.99745 2.35938 3.33526 2.35938 3.6875V14.3125C2.35938 14.6647 2.4993 15.0026 2.74837 15.2516C2.99745 15.5007 3.33526 15.6406 3.6875 15.6406H14.3125C14.6647 15.6406 15.0026 15.5007 15.2516 15.2516C15.5007 15.0026 15.6406 14.6647 15.6406 14.3125V3.6875C15.6406 3.33526 15.5007 2.99745 15.2516 2.74837C15.0026 2.4993 14.6647 2.35938 14.3125 2.35938ZM5.01562 3.95312C5.01562 4.16447 5.09958 4.36716 5.24902 4.5166C5.39847 4.66604 5.60116 4.75 5.8125 4.75C6.02384 4.75 6.22653 4.66604 6.37598 4.5166C6.52542 4.36716 6.60938 4.16447 6.60938 3.95312H11.3906C11.3906 4.16447 11.4746 4.36716 11.624 4.5166C11.7735 4.66604 11.9762 4.75 12.1875 4.75C12.3988 4.75 12.6015 4.66604 12.751 4.5166C12.9004 4.36716 12.9844 4.16447 12.9844 3.95312H14.0469V5.54688H3.95312V3.95312H5.01562ZM3.95312 14.0469V7.14062H14.0469V14.0469H3.95312ZM11.9544 8.43621C12.0287 8.51024 12.0876 8.59821 12.1279 8.69507C12.1681 8.79194 12.1888 8.89578 12.1888 9.00066C12.1888 9.10554 12.1681 9.20939 12.1279 9.30625C12.0876 9.40312 12.0287 9.49108 11.9544 9.56512L8.76691 12.7526C8.69288 12.8269 8.60491 12.8859 8.50805 12.9261C8.41119 12.9663 8.30734 12.987 8.20246 12.987C8.09758 12.987 7.99373 12.9663 7.89687 12.9261C7.80001 12.8859 7.71204 12.8269 7.63801 12.7526L6.04426 11.1589C5.89456 11.0092 5.81045 10.8061 5.81045 10.5944C5.81045 10.3827 5.89456 10.1797 6.04426 10.03C6.19396 9.88026 6.397 9.79616 6.60871 9.79616C6.82042 9.79616 7.02346 9.88026 7.17316 10.03L8.20312 11.0586L10.8268 8.43422C10.901 8.36026 10.989 8.30164 11.0858 8.26171C11.1826 8.22177 11.2863 8.20132 11.391 8.2015C11.4958 8.20169 11.5994 8.22251 11.6961 8.26278C11.7928 8.30306 11.8805 8.36199 11.9544 8.43621Z" fill="#79869A" />
</svg>