<svg width="26" height="26" viewBox="0 0 26 26" fill="none" xmlns="http://www.w3.org/2000/svg">
  <path d="M14.791 10.1033L16.583 8.3123L14.791 6.52129C14.6444 6.37469 14.5621 6.17587 14.5621 5.96855C14.5621 5.76124 14.6444 5.56241 14.791 5.41582C14.9376 5.26922 15.1364 5.18687 15.3438 5.18687C15.5511 5.18687 15.7499 5.26922 15.8965 5.41582L17.6875 7.20781L19.4785 5.41582C19.6251 5.26922 19.8239 5.18687 20.0313 5.18687C20.2386 5.18687 20.4374 5.26922 20.584 5.41582C20.7306 5.56241 20.8129 5.76124 20.8129 5.96855C20.8129 6.17587 20.7306 6.37469 20.584 6.52129L18.793 8.3123L20.584 10.1033C20.6566 10.1759 20.7142 10.2621 20.7534 10.3569C20.7927 10.4518 20.8129 10.5534 20.8129 10.6561C20.8129 10.7587 20.7927 10.8604 20.7534 10.9552C20.7142 11.05 20.6566 11.1362 20.584 11.2088C20.5114 11.2814 20.4252 11.339 20.3304 11.3782C20.2356 11.4175 20.1339 11.4377 20.0313 11.4377C19.9286 11.4377 19.827 11.4175 19.7321 11.3782C19.6373 11.339 19.5511 11.2814 19.4785 11.2088L17.6875 9.41679L15.8965 11.2088C15.7499 11.3554 15.5511 11.4377 15.3438 11.4377C15.1364 11.4377 14.9376 11.3554 14.791 11.2088C14.6444 11.0622 14.5621 10.8634 14.5621 10.6561C14.5621 10.4487 14.6444 10.2499 14.791 10.1033ZM21.4316 16.7557L16.8311 14.6941L16.8184 14.6883C16.5795 14.5861 16.319 14.5451 16.0603 14.569C15.8017 14.5929 15.553 14.6809 15.3369 14.825C15.3115 14.8418 15.287 14.8601 15.2637 14.8797L12.8897 16.9061C11.3838 16.1746 9.82911 14.6316 9.09767 13.1453L11.127 10.7322C11.1465 10.7078 11.165 10.6834 11.1826 10.657C11.3237 10.4415 11.4092 10.1945 11.4317 9.93786C11.4542 9.68127 11.4129 9.4231 11.3115 9.18633V9.17461L9.24415 4.56621C9.11011 4.2569 8.87962 3.99923 8.58711 3.83168C8.29459 3.66412 7.95572 3.59566 7.6211 3.63652C6.29783 3.81065 5.08319 4.46051 4.20405 5.46474C3.3249 6.46897 2.84137 7.75888 2.84376 9.09355C2.84376 16.8475 9.15235 23.1561 16.9063 23.1561C18.2409 23.1584 19.5308 22.6749 20.5351 21.7958C21.5393 20.9166 22.1892 19.702 22.3633 18.3787C22.4042 18.0442 22.3359 17.7054 22.1685 17.4129C22.0012 17.1204 21.7437 16.8899 21.4346 16.7557H21.4316Z" fill="#F50A0A" />
</svg>