<svg width="18" height="18" viewBox="0 0 18 18" fill="none" xmlns="http://www.w3.org/2000/svg">
  <path d="M8.28406 13.0336C8.35835 13.1076 8.4173 13.1956 8.45752 13.2925C8.49774 13.3893 8.51844 13.4932 8.51844 13.5981C8.51844 13.7029 8.49774 13.8068 8.45752 13.9037C8.4173 14.0005 8.35835 14.0885 8.28406 14.1625L7.94406 14.5025C7.58314 14.8648 7.15399 15.1519 6.68141 15.3473C6.20884 15.5426 5.70222 15.6424 5.19086 15.6407C4.42077 15.641 3.66791 15.4128 3.02752 14.9851C2.38713 14.5573 1.888 13.9493 1.59326 13.2378C1.29853 12.5264 1.22144 11.7435 1.37174 10.9882C1.52205 10.2329 1.893 9.53919 2.43766 8.99478L4.74527 6.68716C5.23611 6.1964 5.84919 5.84575 6.52105 5.67151C7.19292 5.49727 7.89914 5.50578 8.56661 5.69615C9.23409 5.88652 9.83855 6.25183 10.3174 6.75426C10.7963 7.2567 11.1322 7.878 11.2903 8.55384C11.3165 8.6566 11.3219 8.76355 11.3062 8.86843C11.2905 8.97331 11.2541 9.074 11.199 9.16461C11.1439 9.25522 11.0713 9.33392 10.9854 9.39611C10.8995 9.45829 10.802 9.5027 10.6987 9.52674C10.5955 9.55079 10.4884 9.55397 10.3839 9.53611C10.2794 9.51826 10.1794 9.47972 10.09 9.42275C10.0006 9.36579 9.92339 9.29154 9.86301 9.20437C9.80262 9.1172 9.76025 9.01885 9.73836 8.91509C9.64454 8.51614 9.44587 8.14949 9.16288 7.85304C8.8799 7.5566 8.52287 7.34111 8.12871 7.22886C7.73455 7.11661 7.31756 7.11167 6.92085 7.21455C6.52414 7.31744 6.16211 7.52441 5.87219 7.81408L3.56457 10.1217C3.24291 10.4431 3.02378 10.8527 2.9349 11.2986C2.84602 11.7446 2.89138 12.2069 3.06524 12.627C3.23911 13.0472 3.53367 13.4064 3.91168 13.6591C4.28968 13.9119 4.73415 14.0468 5.18887 14.047C5.491 14.0478 5.7903 13.9887 6.06945 13.8732C6.3486 13.7576 6.60206 13.5878 6.81516 13.3736L7.15449 13.0336C7.22854 12.9592 7.31655 12.9002 7.41347 12.8599C7.51039 12.8196 7.61432 12.7989 7.71928 12.7989C7.82424 12.7989 7.92816 12.8196 8.02509 12.8599C8.12201 12.9002 8.21002 12.9592 8.28406 13.0336ZM15.5655 3.49966C14.8351 2.76954 13.8447 2.35938 12.812 2.35938C11.7792 2.35938 10.7888 2.76954 10.0584 3.49966L9.7191 3.839C9.5694 3.9887 9.4853 4.19174 9.4853 4.40345C9.4853 4.61516 9.5694 4.8182 9.7191 4.9679C9.8688 5.11761 10.0718 5.20171 10.2836 5.20171C10.4953 5.20171 10.6983 5.11761 10.848 4.9679L11.188 4.6279C11.6195 4.19641 12.2047 3.954 12.815 3.954C13.4252 3.954 14.0104 4.19641 14.4419 4.6279C14.8734 5.0594 15.1158 5.64463 15.1158 6.25486C15.1158 6.86508 14.8734 7.45032 14.4419 7.88181L12.1303 10.1861C11.9173 10.4003 11.6638 10.5702 11.3846 10.6858C11.1055 10.8013 10.8062 10.8604 10.504 10.8595C9.98572 10.8591 9.48274 10.6837 9.07665 10.3616C8.67056 10.0395 8.38519 9.58969 8.2668 9.08509C8.21889 8.87921 8.09116 8.70078 7.91171 8.58908C7.73225 8.47737 7.51577 8.44152 7.30988 8.48943C7.104 8.53733 6.92558 8.66506 6.81387 8.84452C6.70216 9.02397 6.66631 9.24046 6.71422 9.44634C6.91417 10.3009 7.39694 11.0629 8.08424 11.6087C8.77154 12.1544 9.62306 12.4521 10.5007 12.4532H10.504C11.0156 12.4546 11.5224 12.3546 11.9951 12.1589C12.4678 11.9631 12.897 11.6757 13.2579 11.313L15.5655 9.0054C15.9271 8.64392 16.2139 8.21475 16.4096 7.74241C16.6052 7.27007 16.706 6.7638 16.706 6.25253C16.706 5.74126 16.6052 5.235 16.4096 4.76266C16.2139 4.29031 15.9271 3.86115 15.5655 3.49966Z" fill="#79869A" />
</svg>