<svg width="19" height="18" viewBox="0 0 19 18" fill="none" xmlns="http://www.w3.org/2000/svg">
  <path d="M18.0904 7.37544C18.073 7.28743 18.0369 7.2042 17.9844 7.1314C17.932 7.05861 17.8645 6.99795 17.7865 6.95357L15.4561 5.62544L15.4467 2.99888C15.4464 2.90842 15.4265 2.8191 15.3883 2.73709C15.3501 2.65508 15.2946 2.58234 15.2256 2.52388C14.3802 1.8088 13.4067 1.2608 12.3568 0.909035C12.2742 0.88105 12.1865 0.870694 12.0996 0.878633C12.0127 0.886571 11.9284 0.91263 11.8522 0.955128L9.50137 2.26919L7.14824 0.952785C7.07196 0.910046 6.98755 0.883792 6.90048 0.875717C6.81341 0.867643 6.72562 0.877929 6.64278 0.905909C5.59353 1.25994 4.62109 1.81005 3.77715 2.527C3.70822 2.58538 3.65276 2.658 3.61459 2.73986C3.57642 2.82173 3.55645 2.9109 3.55606 3.00122L3.54434 5.63013L1.21387 6.95825C1.1359 7.00264 1.0684 7.06329 1.01596 7.13609C0.963525 7.20888 0.927372 7.29212 0.909963 7.38013C0.696679 8.45191 0.696679 9.55522 0.909963 10.627C0.927372 10.715 0.963525 10.7982 1.01596 10.871C1.0684 10.9438 1.1359 11.0045 1.21387 11.0489L3.54434 12.377L3.55371 15.0043C3.554 15.0948 3.57391 15.1841 3.61208 15.2661C3.65026 15.3481 3.70578 15.4209 3.77481 15.4793C4.62017 16.1944 5.59368 16.7424 6.64356 17.0942C6.72623 17.1222 6.81386 17.1325 6.90078 17.1246C6.98771 17.1167 7.072 17.0906 7.14824 17.0481L9.50137 15.7301L11.8545 17.0465C11.9476 17.0984 12.0526 17.1253 12.1592 17.1247C12.2274 17.1246 12.2952 17.1136 12.36 17.0918C13.4089 16.738 14.3813 16.1884 15.2256 15.4723C15.2945 15.4139 15.35 15.3413 15.3881 15.2595C15.4263 15.1776 15.4463 15.0884 15.4467 14.9981L15.4584 12.3692L17.7889 11.0411C17.8668 10.9967 17.9343 10.936 17.9868 10.8632C18.0392 10.7904 18.0754 10.7072 18.0928 10.6192C18.3049 9.54826 18.3041 8.44606 18.0904 7.37544ZM9.50137 12.1247C8.8833 12.1247 8.27912 11.9414 7.76521 11.598C7.25131 11.2546 6.85077 10.7666 6.61425 10.1955C6.37772 9.62453 6.31584 8.99619 6.43641 8.39C6.55699 7.78381 6.85462 7.22699 7.29166 6.78995C7.7287 6.35291 8.28552 6.05528 8.89171 5.93471C9.4979 5.81413 10.1262 5.87601 10.6973 6.11254C11.2683 6.34906 11.7563 6.7496 12.0997 7.2635C12.4431 7.77741 12.6264 8.38159 12.6264 8.99966C12.6264 9.82846 12.2971 10.6233 11.7111 11.2094C11.125 11.7954 10.3302 12.1247 9.50137 12.1247Z" fill="#79869A" />
</svg>