<svg width="18" height="18" viewBox="0 0 18 18" fill="none" xmlns="http://www.w3.org/2000/svg">
  <path d="M14.3125 2.35938H12.9844V2.09375C12.9844 1.88241 12.9004 1.67972 12.751 1.53027C12.6015 1.38083 12.3988 1.29688 12.1875 1.29688C11.9762 1.29688 11.7735 1.38083 11.624 1.53027C11.4746 1.67972 11.3906 1.88241 11.3906 2.09375V2.35938H6.60938V2.09375C6.60938 1.88241 6.52542 1.67972 6.37598 1.53027C6.22653 1.38083 6.02384 1.29688 5.8125 1.29688C5.60116 1.29688 5.39847 1.38083 5.24902 1.53027C5.09958 1.67972 5.01562 1.88241 5.01562 2.09375V2.35938H3.6875C3.33526 2.35938 2.99745 2.4993 2.74837 2.74837C2.4993 2.99745 2.35938 3.33526 2.35938 3.6875V14.3125C2.35938 14.6647 2.4993 15.0026 2.74837 15.2516C2.99745 15.5007 3.33526 15.6406 3.6875 15.6406H14.3125C14.6647 15.6406 15.0026 15.5007 15.2516 15.2516C15.5007 15.0026 15.6406 14.6647 15.6406 14.3125V3.6875C15.6406 3.33526 15.5007 2.99745 15.2516 2.74837C15.0026 2.4993 14.6647 2.35938 14.3125 2.35938ZM5.01562 3.95312C5.01562 4.16447 5.09958 4.36716 5.24902 4.5166C5.39847 4.66604 5.60116 4.75 5.8125 4.75C6.02384 4.75 6.22653 4.66604 6.37598 4.5166C6.52542 4.36716 6.60938 4.16447 6.60938 3.95312H11.3906C11.3906 4.16447 11.4746 4.36716 11.624 4.5166C11.7735 4.66604 11.9762 4.75 12.1875 4.75C12.3988 4.75 12.6015 4.66604 12.751 4.5166C12.9004 4.36716 12.9844 4.16447 12.9844 3.95312H14.0469V5.54688H3.95312V3.95312H5.01562ZM3.95312 14.0469V7.14062H14.0469V14.0469H3.95312ZM10.0625 9C10.0625 9.21014 10.0002 9.41557 9.88344 9.59029C9.76669 9.76502 9.60075 9.9012 9.4066 9.98162C9.21245 10.062 8.99882 10.0831 8.79272 10.0421C8.58661 10.0011 8.39729 9.89989 8.2487 9.7513C8.10011 9.60271 7.99891 9.41339 7.95792 9.20728C7.91692 9.00118 7.93796 8.78755 8.01838 8.5934C8.0988 8.39925 8.23498 8.23331 8.40971 8.11656C8.58443 7.99981 8.78986 7.9375 9 7.9375C9.28179 7.9375 9.55204 8.04944 9.7513 8.2487C9.95056 8.44796 10.0625 8.71821 10.0625 9ZM13.25 9C13.25 9.21014 13.1877 9.41557 13.0709 9.59029C12.9542 9.76502 12.7882 9.9012 12.5941 9.98162C12.4 10.062 12.1863 10.0831 11.9802 10.0421C11.7741 10.0011 11.5848 9.89989 11.4362 9.7513C11.2876 9.60271 11.1864 9.41339 11.1454 9.20728C11.1044 9.00118 11.1255 8.78755 11.2059 8.5934C11.2863 8.39925 11.4225 8.23331 11.5972 8.11656C11.7719 7.99981 11.9774 7.9375 12.1875 7.9375C12.4693 7.9375 12.7395 8.04944 12.9388 8.2487C13.1381 8.44796 13.25 8.71821 13.25 9ZM6.875 12.1875C6.875 12.3976 6.81269 12.6031 6.69594 12.7778C6.57919 12.9525 6.41325 13.0887 6.2191 13.1691C6.02495 13.2495 5.81132 13.2706 5.60522 13.2296C5.39911 13.1886 5.20979 13.0874 5.0612 12.9388C4.91261 12.7902 4.81141 12.6009 4.77042 12.3948C4.72942 12.1887 4.75046 11.975 4.83088 11.7809C4.9113 11.5868 5.04748 11.4208 5.22221 11.3041C5.39693 11.1873 5.60236 11.125 5.8125 11.125C6.09429 11.125 6.36454 11.2369 6.5638 11.4362C6.76306 11.6355 6.875 11.9057 6.875 12.1875ZM10.0625 12.1875C10.0625 12.3976 10.0002 12.6031 9.88344 12.7778C9.76669 12.9525 9.60075 13.0887 9.4066 13.1691C9.21245 13.2495 8.99882 13.2706 8.79272 13.2296C8.58661 13.1886 8.39729 13.0874 8.2487 12.9388C8.10011 12.7902 7.99891 12.6009 7.95792 12.3948C7.91692 12.1887 7.93796 11.975 8.01838 11.7809C8.0988 11.5868 8.23498 11.4208 8.40971 11.3041C8.58443 11.1873 8.78986 11.125 9 11.125C9.28179 11.125 9.55204 11.2369 9.7513 11.4362C9.95056 11.6355 10.0625 11.9057 10.0625 12.1875ZM13.25 12.1875C13.25 12.3976 13.1877 12.6031 13.0709 12.7778C12.9542 12.9525 12.7882 13.0887 12.5941 13.1691C12.4 13.2495 12.1863 13.2706 11.9802 13.2296C11.7741 13.1886 11.5848 13.0874 11.4362 12.9388C11.2876 12.7902 11.1864 12.6009 11.1454 12.3948C11.1044 12.1887 11.1255 11.975 11.2059 11.7809C11.2863 11.5868 11.4225 11.4208 11.5972 11.3041C11.7719 11.1873 11.9774 11.125 12.1875 11.125C12.4693 11.125 12.7395 11.2369 12.9388 11.4362C13.1381 11.6355 13.25 11.9057 13.25 12.1875Z" fill="#79869A" />
</svg>