<svg width="20" height="21" viewBox="0 0 20 21" fill="none" xmlns="http://www.w3.org/2000/svg">
  <path d="M19.5568 8.85541L18.7397 13.7882C18.6991 14.0335 18.5627 14.2526 18.3605 14.3973C18.1583 14.542 17.9069 14.6005 17.6616 14.5599L12.7288 13.7428C12.4835 13.7022 12.2644 13.5657 12.1197 13.3636C11.975 13.1614 11.9165 12.91 11.9571 12.6647C11.9978 12.4194 12.1342 12.2003 12.3364 12.0556C12.5385 11.9108 12.7899 11.8524 13.0352 11.893L15.7251 12.3386L14.7282 10.9563C13.9731 9.90042 12.9217 9.09223 11.7072 8.63395C10.4926 8.17568 9.16946 8.0879 7.90502 8.38173C6.64058 8.67556 5.49169 9.3378 4.60367 10.2847C3.71565 11.2315 3.1284 12.4205 2.91621 13.7012C2.87557 13.9465 2.73916 14.1656 2.53698 14.3103C2.33479 14.455 2.0834 14.5135 1.8381 14.4729C1.59281 14.4322 1.3737 14.2958 1.22898 14.0936C1.08425 13.8915 1.02578 13.6401 1.06641 13.3948C1.33905 11.7484 2.09381 10.2198 3.23522 9.00232C4.37664 7.78487 5.85345 6.93324 7.47889 6.55514C9.10433 6.17704 10.8054 6.28944 12.3669 6.87813C13.9285 7.46683 15.2804 8.50537 16.2517 9.86243L17.2581 11.2589L17.707 8.549C17.7476 8.3037 17.884 8.08459 18.0862 7.93987C18.2884 7.79515 18.5398 7.73667 18.7851 7.7773C19.0304 7.81794 19.2495 7.95435 19.3942 8.15653C19.5389 8.35872 19.5974 8.61011 19.5568 8.85541Z" fill="currentColor" />
</svg>