<svg width="40" height="40" viewBox="0 0 40 40" fill="none" xmlns="http://www.w3.org/2000/svg">
<rect width="40" height="40" rx="10" fill="#FF7700"/>
<path d="M20.0018 19.6048C22.3733 19.6048 24.2953 17.6824 24.2953 15.3105C24.2953 12.9386 22.3733 11.0166 20.0018 11.0166C17.6295 11.0166 15.7067 12.9386 15.7067 15.3105C15.7067 17.6824 17.6295 19.6048 20.0018 19.6048ZM20.0018 13.1979C21.1683 13.1979 22.114 14.1436 22.114 15.3105C22.114 16.4774 21.1683 17.423 20.0018 17.423C18.8341 17.423 17.8889 16.4774 17.8889 15.3105C17.8889 14.1436 18.8341 13.1979 20.0018 13.1979ZM24.951 20.1288C24.7091 19.6417 24.0376 19.2366 23.1449 19.9395C21.9383 20.8898 20.0018 20.8898 20.0018 20.8898C20.0018 20.8898 18.064 20.8898 16.8574 19.9395C15.9651 19.2366 15.2941 19.6417 15.0518 20.1288C14.6284 20.9776 15.106 21.3881 16.1839 22.0799C17.1043 22.671 18.3693 22.8917 19.1858 22.9742L18.504 23.656C17.5438 24.6157 16.6172 25.5432 15.9739 26.1865C15.589 26.5709 15.589 27.1944 15.9739 27.5788L16.0894 27.6952C16.4742 28.0796 17.0973 28.0796 17.482 27.6952L20.0122 25.1646C20.9732 26.1248 21.8998 27.0519 22.5431 27.6952C22.9279 28.0796 23.5509 28.0796 23.9357 27.6952L24.0513 27.5788C24.4361 27.1939 24.4361 26.5709 24.0513 26.1861L21.5211 23.656L20.8377 22.9721C21.655 22.8876 22.9059 22.666 23.8189 22.0799C24.8967 21.388 25.3735 20.9775 24.951 20.1288Z" fill="white"/>
</svg>
