<svg width="20" height="20" viewBox="0 0 20 20" fill="none" xmlns="http://www.w3.org/2000/svg">
  <path d="M14.4157 10.6637L8.16569 16.9137C7.98957 17.0899 7.7507 17.1888 7.50163 17.1888C7.25255 17.1888 7.01368 17.0899 6.83756 16.9137C6.66144 16.7376 6.5625 16.4987 6.5625 16.2497C6.5625 16.0006 6.66144 15.7617 6.83756 15.5856L12.4243 10.0005L6.83913 4.41374C6.75192 4.32653 6.68274 4.223 6.63555 4.10906C6.58835 3.99512 6.56406 3.873 6.56406 3.74967C6.56406 3.62635 6.58835 3.50423 6.63555 3.39028C6.68274 3.27634 6.75192 3.17282 6.83913 3.08561C6.92633 2.9984 7.02986 2.92923 7.1438 2.88203C7.25774 2.83484 7.37986 2.81055 7.50319 2.81055C7.62652 2.81055 7.74864 2.83484 7.86258 2.88203C7.97652 2.92923 8.08005 2.9984 8.16725 3.08561L14.4173 9.33561C14.5045 9.42281 14.5738 9.52639 14.621 9.6404C14.6681 9.75441 14.6924 9.87661 14.6922 10C14.6921 10.1234 14.6676 10.2455 14.6201 10.3594C14.5727 10.4733 14.5032 10.5767 14.4157 10.6637Z" fill="currentColor" />
</svg>