<svg width="20" height="20" viewBox="0 0 20 20" fill="none" xmlns="http://www.w3.org/2000/svg">
  <path d="M5.58431 9.33626L11.8343 3.08626C12.0104 2.91014 12.2493 2.8112 12.4984 2.8112C12.7474 2.8112 12.9863 2.91014 13.1624 3.08626C13.3386 3.26238 13.4375 3.50125 13.4375 3.75033C13.4375 3.9994 13.3386 4.23827 13.1624 4.41439L7.57572 9.99954L13.1609 15.5863C13.2481 15.6735 13.3173 15.777 13.3645 15.8909C13.4116 16.0049 13.4359 16.127 13.4359 16.2503C13.4359 16.3737 13.4116 16.4958 13.3645 16.6097C13.3173 16.7237 13.2481 16.8272 13.1609 16.9144C13.0737 17.0016 12.9701 17.0708 12.8562 17.118C12.7423 17.1652 12.6201 17.1895 12.4968 17.1895C12.3735 17.1895 12.2514 17.1652 12.1374 17.118C12.0235 17.0708 11.92 17.0016 11.8327 16.9144L5.58275 10.6644C5.49545 10.5772 5.42623 10.4736 5.37904 10.3596C5.33186 10.2456 5.30765 10.1234 5.30779 10C5.30794 9.87661 5.33244 9.75447 5.37989 9.64057C5.42734 9.52667 5.49681 9.42326 5.58431 9.33626Z" fill="currentColor" />
</svg>