<svg width="18" height="18" viewBox="0 0 18 18" fill="none" xmlns="http://www.w3.org/2000/svg">
  <path d="M10.8594 6.60938C10.8594 6.39803 10.9433 6.19534 11.0928 6.0459C11.2422 5.89646 11.4449 5.8125 11.6562 5.8125H15.9062C16.1176 5.8125 16.3203 5.89646 16.4697 6.0459C16.6192 6.19534 16.7031 6.39803 16.7031 6.60938C16.7031 6.82072 16.6192 7.02341 16.4697 7.17285C16.3203 7.32229 16.1176 7.40625 15.9062 7.40625H11.6562C11.4449 7.40625 11.2422 7.32229 11.0928 7.17285C10.9433 7.02341 10.8594 6.82072 10.8594 6.60938ZM15.9062 8.46875H11.6562C11.4449 8.46875 11.2422 8.55271 11.0928 8.70215C10.9433 8.85159 10.8594 9.05428 10.8594 9.26562C10.8594 9.47697 10.9433 9.67966 11.0928 9.8291C11.2422 9.97854 11.4449 10.0625 11.6562 10.0625H15.9062C16.1176 10.0625 16.3203 9.97854 16.4697 9.8291C16.6192 9.67966 16.7031 9.47697 16.7031 9.26562C16.7031 9.05428 16.6192 8.85159 16.4697 8.70215C16.3203 8.55271 16.1176 8.46875 15.9062 8.46875ZM15.9062 11.125H5.8125C5.60116 11.125 5.39847 11.209 5.24902 11.3584C5.09958 11.5078 5.01562 11.7105 5.01562 11.9219C5.01562 12.1332 5.09958 12.3359 5.24902 12.4854C5.39847 12.6348 5.60116 12.7188 5.8125 12.7188H15.9062C16.1176 12.7188 16.3203 12.6348 16.4697 12.4854C16.6192 12.3359 16.7031 12.1332 16.7031 11.9219C16.7031 11.7105 16.6192 11.5078 16.4697 11.3584C16.3203 11.209 16.1176 11.125 15.9062 11.125ZM15.9062 13.7812H5.8125C5.60116 13.7812 5.39847 13.8652 5.24902 14.0146C5.09958 14.1641 5.01562 14.3668 5.01562 14.5781C5.01562 14.7895 5.09958 14.9922 5.24902 15.1416C5.39847 15.291 5.60116 15.375 5.8125 15.375H15.9062C16.1176 15.375 16.3203 15.291 16.4697 15.1416C16.6192 14.9922 16.7031 14.7895 16.7031 14.5781C16.7031 14.3668 16.6192 14.1641 16.4697 14.0146C16.3203 13.8652 16.1176 13.7812 15.9062 13.7812ZM6.875 10.0625C7.08634 10.0625 7.28903 9.97854 7.43848 9.8291C7.58792 9.67966 7.67188 9.47697 7.67188 9.26562C7.67188 9.05428 7.58792 8.85159 7.43848 8.70215C7.28903 8.55271 7.08634 8.46875 6.875 8.46875H6.60938V5.01562H8.20312V5.28125C8.20312 5.49259 8.28708 5.69528 8.43652 5.84473C8.58597 5.99417 8.78866 6.07812 9 6.07812C9.21134 6.07812 9.41403 5.99417 9.56348 5.84473C9.71292 5.69528 9.79688 5.49259 9.79688 5.28125V4.21875C9.79688 4.00741 9.71292 3.80472 9.56348 3.65527C9.41403 3.50583 9.21134 3.42188 9 3.42188H2.625C2.41366 3.42188 2.21097 3.50583 2.06152 3.65527C1.91208 3.80472 1.82812 4.00741 1.82812 4.21875V5.28125C1.82812 5.49259 1.91208 5.69528 2.06152 5.84473C2.21097 5.99417 2.41366 6.07812 2.625 6.07812C2.83634 6.07812 3.03903 5.99417 3.18848 5.84473C3.33792 5.69528 3.42188 5.49259 3.42188 5.28125V5.01562H5.01562V8.46875H4.75C4.53866 8.46875 4.33597 8.55271 4.18652 8.70215C4.03708 8.85159 3.95312 9.05428 3.95312 9.26562C3.95312 9.47697 4.03708 9.67966 4.18652 9.8291C4.33597 9.97854 4.53866 10.0625 4.75 10.0625H6.875Z" fill="#79869A" />
</svg>