<svg width="21" height="20" viewBox="0 0 21 20" fill="none" xmlns="http://www.w3.org/2000/svg">
  <path d="M18.2586 5.73262L14.768 2.24122C14.6519 2.12511 14.5141 2.03301 14.3624 1.97018C14.2107 1.90734 14.0482 1.875 13.884 1.875C13.7198 1.875 13.5572 1.90734 13.4056 1.97018C13.2539 2.03301 13.1161 2.12511 13 2.24122L3.36641 11.8756C3.24983 11.9912 3.15741 12.1289 3.09451 12.2806C3.0316 12.4323 2.99948 12.595 3.00001 12.7592V16.2506C3.00001 16.5821 3.1317 16.9001 3.36612 17.1345C3.60054 17.3689 3.91849 17.5006 4.25001 17.5006H7.74141C7.90563 17.5011 8.0683 17.469 8.21999 17.4061C8.37168 17.3432 8.50935 17.2508 8.62501 17.1342L18.2586 7.50059C18.3747 7.38452 18.4668 7.2467 18.5296 7.09503C18.5925 6.94335 18.6248 6.78078 18.6248 6.61661C18.6248 6.45243 18.5925 6.28986 18.5296 6.13819C18.4668 5.98651 18.3747 5.8487 18.2586 5.73262ZM4.5086 12.5006L11.5672 5.442L12.8703 6.7459L5.81251 13.8037L4.5086 12.5006ZM4.25001 14.0092L6.49141 16.2506H4.25001V14.0092ZM8.00001 15.992L6.6961 14.6881L13.7547 7.6295L15.0578 8.9334L8.00001 15.992Z" fill="currentColor" />
</svg>