<svg width="18" height="17" viewBox="0 0 18 17" fill="none" xmlns="http://www.w3.org/2000/svg">
  <path d="M9 0.375C7.39303 0.375 5.82214 0.851523 4.486 1.74431C3.14985 2.6371 2.10844 3.90605 1.49348 5.3907C0.87852 6.87535 0.717618 8.50901 1.03112 10.0851C1.34463 11.6612 2.11846 13.1089 3.25476 14.2452C4.39106 15.3815 5.8388 16.1554 7.4149 16.4689C8.99099 16.7824 10.6247 16.6215 12.1093 16.0065C13.594 15.3916 14.8629 14.3502 15.7557 13.014C16.6485 11.6779 17.125 10.107 17.125 8.5C17.1223 6.34594 16.2654 4.28088 14.7423 2.75773C13.2191 1.23457 11.1541 0.377688 9 0.375ZM12.125 9.125H9.625V11.625C9.625 11.7908 9.55916 11.9497 9.44195 12.0669C9.32474 12.1842 9.16576 12.25 9 12.25C8.83424 12.25 8.67527 12.1842 8.55806 12.0669C8.44085 11.9497 8.375 11.7908 8.375 11.625V9.125H5.875C5.70924 9.125 5.55027 9.05915 5.43306 8.94194C5.31585 8.82473 5.25 8.66576 5.25 8.5C5.25 8.33424 5.31585 8.17527 5.43306 8.05806C5.55027 7.94085 5.70924 7.875 5.875 7.875H8.375V5.375C8.375 5.20924 8.44085 5.05027 8.55806 4.93306C8.67527 4.81585 8.83424 4.75 9 4.75C9.16576 4.75 9.32474 4.81585 9.44195 4.93306C9.55916 5.05027 9.625 5.20924 9.625 5.375V7.875H12.125C12.2908 7.875 12.4497 7.94085 12.5669 8.05806C12.6842 8.17527 12.75 8.33424 12.75 8.5C12.75 8.66576 12.6842 8.82473 12.5669 8.94194C12.4497 9.05915 12.2908 9.125 12.125 9.125Z" fill="#79869A" />
</svg>