<svg width="20" height="21" viewBox="0 0 20 21" fill="none" xmlns="http://www.w3.org/2000/svg">
  <g opacity="0.8">
    <path d="M19.0625 10.5C19.0625 10.7486 18.9637 10.9871 18.7879 11.1629C18.6121 11.3387 18.3736 11.4375 18.125 11.4375H16.2047L13.3383 17.1695C13.2604 17.3252 13.1407 17.4561 12.9927 17.5475C12.8446 17.639 12.674 17.6875 12.5 17.6875H12.4531C12.2713 17.6783 12.0961 17.6164 11.9489 17.5093C11.8017 17.4022 11.6889 17.2545 11.6242 17.0844L7.42188 6.0586L5.22812 10.8906C5.15327 11.0539 5.03307 11.1923 4.88182 11.2893C4.73057 11.3862 4.55465 11.4377 4.375 11.4375H1.875C1.62636 11.4375 1.3879 11.3387 1.21209 11.1629C1.03627 10.9871 0.9375 10.7486 0.9375 10.5C0.9375 10.2514 1.03627 10.0129 1.21209 9.83709C1.3879 9.66128 1.62636 9.5625 1.875 9.5625H3.77109L6.64688 3.23438C6.72357 3.06617 6.84828 2.9244 7.00533 2.82687C7.16238 2.72935 7.34476 2.68044 7.52953 2.68628C7.7143 2.69213 7.89322 2.75247 8.0438 2.85972C8.19437 2.96697 8.30987 3.11635 8.37578 3.28907L12.6164 14.4188L14.7867 10.0781C14.8649 9.92293 14.9847 9.79252 15.1328 9.70147C15.2808 9.61042 15.4512 9.56231 15.625 9.5625H18.125C18.3736 9.5625 18.6121 9.66128 18.7879 9.83709C18.9637 10.0129 19.0625 10.2514 19.0625 10.5Z" fill="white" />
  </g>
</svg>