<svg width="18" height="17" viewBox="0 0 18 17" fill="none" xmlns="http://www.w3.org/2000/svg">
  <rect x="0.5" width="17" height="17" rx="8.5" fill="#B5C2D6" />
  <path d="M8.09243 10.0642V9.93482C8.0949 9.4908 8.13326 9.13685 8.2075 8.87298C8.28421 8.6091 8.39557 8.39597 8.54157 8.23359C8.68758 8.0712 8.86328 7.92404 9.06867 7.7921C9.2221 7.69061 9.35944 7.58532 9.4807 7.47621C9.60195 7.36711 9.69847 7.24659 9.77023 7.11465C9.84199 6.98018 9.87788 6.83048 9.87788 6.66556C9.87788 6.49049 9.83705 6.33698 9.75538 6.20504C9.67372 6.07311 9.5636 5.97161 9.42502 5.90057C9.28891 5.82953 9.13796 5.79401 8.97216 5.79401C8.81131 5.79401 8.65912 5.8308 8.51559 5.90438C8.37206 5.97542 8.25452 6.08199 8.16295 6.22407C8.07139 6.36362 8.0219 6.53742 8.01448 6.74548H6.5C6.51237 6.23803 6.63116 5.81938 6.85635 5.48953C7.08154 5.15715 7.37973 4.90977 7.75093 4.74738C8.12212 4.58246 8.53168 4.5 8.97958 4.5C9.47204 4.5 9.90757 4.58373 10.2862 4.75119C10.6648 4.91611 10.9618 5.15588 11.1771 5.4705C11.3924 5.78513 11.5 6.16445 11.5 6.60847C11.5 6.90533 11.4517 7.1692 11.3552 7.4001C11.2612 7.62845 11.1288 7.83143 10.9581 8.00904C10.7873 8.18411 10.5856 8.34269 10.353 8.48478C10.1575 8.60403 9.99666 8.72835 9.87045 8.85775C9.74672 8.98716 9.65392 9.13685 9.59206 9.30685C9.53267 9.47685 9.50173 9.68617 9.49926 9.93482V10.0642H8.09243ZM8.82739 12.5C8.57993 12.5 8.36835 12.4112 8.19265 12.2336C8.01943 12.0534 7.93405 11.8378 7.93653 11.5866C7.93405 11.3379 8.01943 11.1248 8.19265 10.9472C8.36835 10.7696 8.57993 10.6808 8.82739 10.6808C9.06248 10.6808 9.26912 10.7696 9.44729 10.9472C9.62546 11.1248 9.71579 11.3379 9.71826 11.5866C9.71579 11.754 9.67248 11.9075 9.58834 12.0471C9.50668 12.1841 9.39903 12.2945 9.2654 12.3782C9.13177 12.4594 8.98577 12.5 8.82739 12.5Z" fill="white" />
</svg>