<svg width="41" height="40" viewBox="0 0 41 40" fill="none" xmlns="http://www.w3.org/2000/svg">
  <rect x="0.835938" width="40" height="40" rx="10" fill="#2894D9" />
  <path fill-rule="evenodd" clip-rule="evenodd" d="M17.3862 23.4773C19.5418 24.7778 22.3062 24.7435 24.4257 23.3915C26.5498 22.0352 27.6343 19.6209 27.1946 17.2281C26.7504 14.831 24.8699 12.9082 22.3896 12.3245C19.9116 11.7365 17.3028 12.6013 15.7357 14.522C14.8586 15.5972 14.3828 16.8032 14.3828 19.1746L14.3828 27.8574H17.3862V23.4773ZM17.3862 18.2861C17.3862 13.8975 24.304 13.9018 24.304 18.2904C24.2995 20.1081 22.7527 21.5824 20.8406 21.576C18.9285 21.576 17.3817 20.1038 17.3862 18.2861Z" fill="white" />
</svg>