<svg width="17" height="16" viewBox="0 0 17 16" fill="none" xmlns="http://www.w3.org/2000/svg">
  <path d="M4.71172 9.28828C4.62451 9.20108 4.55534 9.09755 4.50814 8.98361C4.46095 8.86967 4.43665 8.74755 4.43665 8.62422C4.43665 8.50089 4.46095 8.37877 4.50814 8.26483C4.55534 8.15089 4.62451 8.04736 4.71172 7.96016C4.79892 7.87295 4.90245 7.80377 5.01639 7.75658C5.13033 7.70938 5.25245 7.68509 5.37578 7.68509C5.49911 7.68509 5.62123 7.70938 5.73517 7.75658C5.84911 7.80377 5.95264 7.87295 6.03984 7.96016L7.25 9.17188L10.9617 5.45938C11.1378 5.28326 11.3767 5.18431 11.6258 5.18431C11.8749 5.18431 12.1137 5.28326 12.2898 5.45938C12.466 5.6355 12.5649 5.87437 12.5649 6.12344C12.5649 6.37251 12.466 6.61138 12.2898 6.7875L7.91484 11.1625C7.82775 11.2499 7.72425 11.3192 7.6103 11.3666C7.49634 11.4139 7.37417 11.4382 7.25078 11.4382C7.12739 11.4382 7.00522 11.4139 6.89126 11.3666C6.77731 11.3192 6.67382 11.2499 6.58672 11.1625L4.71172 9.28828ZM16.3125 1.75V14.25C16.3125 14.6644 16.1479 15.0618 15.8549 15.3549C15.5618 15.6479 15.1644 15.8125 14.75 15.8125H2.25C1.8356 15.8125 1.43817 15.6479 1.14515 15.3549C0.85212 15.0618 0.6875 14.6644 0.6875 14.25V1.75C0.6875 1.3356 0.85212 0.938171 1.14515 0.645146C1.43817 0.35212 1.8356 0.1875 2.25 0.1875H14.75C15.1644 0.1875 15.5618 0.35212 15.8549 0.645146C16.1479 0.938171 16.3125 1.3356 16.3125 1.75ZM14.4375 2.0625H2.5625V13.9375H14.4375V2.0625Z" fill="#79869A" />
</svg>