<svg width="18" height="16" viewBox="0 0 18 16" fill="none" xmlns="http://www.w3.org/2000/svg">
  <path d="M17.5671 8.19268L11.3171 14.4427C11.2297 14.5302 11.1183 14.5898 10.997 14.6139C10.8757 14.6381 10.75 14.6257 10.6357 14.5784C10.5214 14.531 10.4238 14.4509 10.3551 14.348C10.2865 14.2451 10.2499 14.1242 10.25 14.0005V10.8935C5.78902 11.1466 2.73042 14.0396 1.87183 14.956C1.73701 15.0999 1.56021 15.1977 1.36659 15.2354C1.17298 15.2731 0.972411 15.2487 0.793434 15.1658C0.614458 15.0829 0.466192 14.9457 0.369737 14.7736C0.273282 14.6016 0.233552 14.4035 0.256203 14.2075C0.546046 11.6872 1.92652 9.26299 4.1437 7.38174C5.98511 5.81924 8.22339 4.82784 10.25 4.6544V1.50049C10.2499 1.37681 10.2865 1.25587 10.3551 1.153C10.4238 1.05013 10.5214 0.969948 10.6357 0.922603C10.75 0.875258 10.8757 0.86288 10.997 0.887036C11.1183 0.911193 11.2297 0.970798 11.3171 1.0583L17.5671 7.3083C17.6253 7.36635 17.6714 7.43528 17.7028 7.51115C17.7343 7.58703 17.7504 7.66836 17.7504 7.75049C17.7504 7.83263 17.7343 7.91396 17.7028 7.98983C17.6714 8.0657 17.6253 8.13463 17.5671 8.19268Z" fill="#5898FF" />
</svg>