<svg width="21" height="20" viewBox="0 0 21 20" fill="none" xmlns="http://www.w3.org/2000/svg">
  <path d="M10.5 1.875C8.89303 1.875 7.32214 2.35152 5.986 3.24431C4.64985 4.1371 3.60844 5.40605 2.99348 6.8907C2.37852 8.37535 2.21762 10.009 2.53112 11.5851C2.84463 13.1612 3.61846 14.6089 4.75476 15.7452C5.89106 16.8815 7.3388 17.6554 8.91489 17.9689C10.491 18.2824 12.1247 18.1215 13.6093 17.5065C15.094 16.8916 16.3629 15.8502 17.2557 14.514C18.1485 13.1779 18.625 11.607 18.625 10C18.6227 7.84581 17.766 5.78051 16.2427 4.25727C14.7195 2.73403 12.6542 1.87727 10.5 1.875ZM13.4422 12.0578C13.5003 12.1159 13.5463 12.1848 13.5777 12.2607C13.6092 12.3366 13.6254 12.4179 13.6254 12.5C13.6254 12.5821 13.6092 12.6634 13.5777 12.7393C13.5463 12.8152 13.5003 12.8841 13.4422 12.9422C13.3841 13.0003 13.3152 13.0463 13.2393 13.0777C13.1634 13.1092 13.0821 13.1253 13 13.1253C12.9179 13.1253 12.8366 13.1092 12.7607 13.0777C12.6848 13.0463 12.6159 13.0003 12.5578 12.9422L10.5 10.8836L8.44219 12.9422C8.38412 13.0003 8.31518 13.0463 8.23931 13.0777C8.16344 13.1092 8.08213 13.1253 8 13.1253C7.91788 13.1253 7.83656 13.1092 7.76069 13.0777C7.68482 13.0463 7.61588 13.0003 7.55782 12.9422C7.49975 12.8841 7.45368 12.8152 7.42226 12.7393C7.39083 12.6634 7.37466 12.5821 7.37466 12.5C7.37466 12.4179 7.39083 12.3366 7.42226 12.2607C7.45368 12.1848 7.49975 12.1159 7.55782 12.0578L9.61641 10L7.55782 7.94219C7.44054 7.82491 7.37466 7.66585 7.37466 7.5C7.37466 7.33415 7.44054 7.17509 7.55782 7.05781C7.67509 6.94054 7.83415 6.87465 8 6.87465C8.16586 6.87465 8.32492 6.94054 8.44219 7.05781L10.5 9.11641L12.5578 7.05781C12.6159 6.99974 12.6848 6.95368 12.7607 6.92225C12.8366 6.89083 12.9179 6.87465 13 6.87465C13.0821 6.87465 13.1634 6.89083 13.2393 6.92225C13.3152 6.95368 13.3841 6.99974 13.4422 7.05781C13.5003 7.11588 13.5463 7.18482 13.5777 7.26069C13.6092 7.33656 13.6254 7.41788 13.6254 7.5C13.6254 7.58212 13.6092 7.66344 13.5777 7.73931C13.5463 7.81518 13.5003 7.88412 13.4422 7.94219L11.3836 10L13.4422 12.0578Z" fill="#5898FF" />
</svg>