<svg width="18" height="18" viewBox="0 0 18 18" fill="none" xmlns="http://www.w3.org/2000/svg">
  <path d="M15.7499 14.9992L12.425 11.6749C13.3887 10.5179 13.8692 9.03389 13.7666 7.53161C13.6641 6.02933 12.9863 4.62443 11.8743 3.60915C10.7623 2.59388 9.30163 2.0464 7.79624 2.08061C6.29085 2.11483 4.85661 2.72809 3.79186 3.79284C2.72712 4.85758 2.11385 6.29183 2.07964 7.79722C2.04542 9.30261 2.5929 10.7632 3.60817 11.8752C4.62345 12.9873 6.02835 13.6651 7.53063 13.7676C9.03291 13.8702 10.5169 13.3896 11.6739 12.4259L14.9982 15.7509C15.0476 15.8002 15.1061 15.8394 15.1706 15.8661C15.2351 15.8928 15.3042 15.9066 15.3741 15.9066C15.4439 15.9066 15.513 15.8928 15.5775 15.8661C15.642 15.8394 15.7006 15.8002 15.7499 15.7509C15.7993 15.7015 15.8384 15.6429 15.8651 15.5784C15.8918 15.514 15.9056 15.4448 15.9056 15.375C15.9056 15.3052 15.8918 15.2361 15.8651 15.1716C15.8384 15.1071 15.7993 15.0485 15.7499 14.9992ZM3.1553 7.93753C3.1553 6.99189 3.43572 6.06748 3.96109 5.28121C4.48646 4.49494 5.23319 3.88211 6.10685 3.52023C6.98051 3.15835 7.94186 3.06366 8.86933 3.24815C9.7968 3.43264 10.6487 3.88801 11.3174 4.55668C11.9861 5.22534 12.4414 6.07728 12.6259 7.00475C12.8104 7.93223 12.7157 8.89358 12.3539 9.76723C11.992 10.6409 11.3791 11.3876 10.5929 11.913C9.8066 12.4384 8.88219 12.7188 7.93655 12.7188C6.66892 12.7174 5.45361 12.2132 4.55725 11.3168C3.6609 10.4205 3.15671 9.20516 3.1553 7.93753Z" fill="#79869A" />
</svg>