<svg width="15" height="15" viewBox="0 0 15 15" fill="none" xmlns="http://www.w3.org/2000/svg">
  <path d="M8.93049 5.18975L3.68049 10.346C3.549 10.4752 3.37204 10.5476 3.18771 10.5476C3.00338 10.5476 2.82643 10.4752 2.69494 10.346L0.44494 8.13643C0.379035 8.07172 0.326522 7.99466 0.290398 7.90966C0.254274 7.82465 0.235248 7.73336 0.234404 7.641C0.232701 7.45447 0.305166 7.2749 0.435858 7.1418C0.50057 7.0759 0.577629 7.02339 0.662635 6.98726C0.747642 6.95114 0.838931 6.93211 0.931291 6.93127C1.11782 6.92957 1.29739 7.00203 1.43049 7.13272L3.1883 8.85889L7.94553 4.18663C8.07855 4.05594 8.25804 3.98344 8.44451 3.98509C8.63099 3.98674 8.80917 4.06239 8.93986 4.19542C9.07055 4.32844 9.14305 4.50793 9.1414 4.69441C9.13975 4.88088 9.06409 5.05906 8.93107 5.18975H8.93049ZM14.5643 4.19366C14.4995 4.12753 14.4224 4.07483 14.3372 4.03859C14.2521 4.00234 14.1606 3.98327 14.0681 3.98245C13.9755 3.98163 13.8837 3.99909 13.7979 4.03383C13.7122 4.06857 13.6341 4.11989 13.5682 4.18487L8.81271 8.85889L8.35099 8.40538C8.21797 8.27469 8.03848 8.20219 7.85201 8.20384C7.66553 8.20549 7.48735 8.28114 7.35666 8.41417C7.22597 8.54719 7.15347 8.72668 7.15512 8.91316C7.15677 9.09963 7.23242 9.27781 7.36545 9.4085L8.31994 10.346C8.45143 10.4752 8.62838 10.5476 8.81271 10.5476C8.99704 10.5476 9.174 10.4752 9.30549 10.346L14.5555 5.18975C14.6214 5.12504 14.6738 5.04799 14.7099 4.963C14.746 4.87801 14.765 4.78674 14.7658 4.69441C14.7666 4.60207 14.7493 4.51048 14.7147 4.42487C14.6801 4.33925 14.629 4.26128 14.5643 4.19542V4.19366Z" fill="#79869A" />
</svg>