<svg width="20" height="21" viewBox="0 0 20 21" fill="none" xmlns="http://www.w3.org/2000/svg">
  <path d="M18.5885 8.87578C18.5711 8.78777 18.5349 8.70454 18.4825 8.63174C18.43 8.55895 18.3625 8.4983 18.2846 8.45391L15.9541 7.12578L15.9447 4.49922C15.9444 4.40876 15.9245 4.31945 15.8864 4.23744C15.8482 4.15543 15.7927 4.08268 15.7236 4.02422C14.8783 3.30914 13.9048 2.76115 12.8549 2.40938C12.7722 2.38139 12.6846 2.37104 12.5977 2.37898C12.5107 2.38691 12.4264 2.41297 12.3502 2.45547L9.99942 3.76953L7.64629 2.45313C7.57 2.41039 7.4856 2.38413 7.39853 2.37606C7.31146 2.36799 7.22367 2.37827 7.14082 2.40625C6.09158 2.76028 5.11914 3.3104 4.2752 4.02735C4.20627 4.08572 4.15081 4.15834 4.11264 4.24021C4.07447 4.32207 4.0545 4.41124 4.0541 4.50157L4.04239 7.13047L1.71192 8.4586C1.63395 8.50298 1.56645 8.56364 1.51401 8.63643C1.46157 8.70923 1.42542 8.79246 1.40801 8.88047C1.19473 9.95225 1.19473 11.0556 1.40801 12.1273C1.42542 12.2154 1.46157 12.2986 1.51401 12.3714C1.56645 12.4442 1.63395 12.5048 1.71192 12.5492L4.04239 13.8773L4.05176 16.5047C4.05204 16.5951 4.07196 16.6845 4.11013 16.7665C4.1483 16.8485 4.20382 16.9212 4.27285 16.9797C5.11822 17.6948 6.09173 18.2428 7.1416 18.5945C7.22428 18.6225 7.3119 18.6329 7.39883 18.6249C7.48575 18.617 7.57005 18.5909 7.64629 18.5484L9.99942 17.2305L12.3525 18.5469C12.4457 18.5988 12.5506 18.6257 12.6572 18.625C12.7255 18.625 12.7933 18.6139 12.858 18.5922C13.907 18.2383 14.8794 17.6888 15.7236 16.9727C15.7926 16.9143 15.848 16.8417 15.8862 16.7598C15.9244 16.6779 15.9443 16.5888 15.9447 16.4984L15.9564 13.8695L18.2869 12.5414C18.3649 12.497 18.4324 12.4364 18.4848 12.3636C18.5373 12.2908 18.5734 12.2075 18.5908 12.1195C18.8029 11.0486 18.8021 9.9464 18.5885 8.87578ZM9.99942 13.625C9.38135 13.625 8.77716 13.4417 8.26326 13.0983C7.74936 12.755 7.34882 12.2669 7.11229 11.6959C6.87577 11.1249 6.81388 10.4965 6.93446 9.89035C7.05504 9.28415 7.35267 8.72733 7.78971 8.29029C8.22675 7.85325 8.78357 7.55563 9.38976 7.43505C9.99595 7.31447 10.6243 7.37636 11.1953 7.61288C11.7663 7.8494 12.2544 8.24994 12.5978 8.76385C12.9411 9.27775 13.1244 9.88194 13.1244 10.5C13.1244 11.3288 12.7952 12.1237 12.2091 12.7097C11.6231 13.2958 10.8282 13.625 9.99942 13.625Z" fill="currentColor" fill-opacity="0.8" />
</svg>