<svg width="18" height="18" viewBox="0 0 18 18" fill="none" xmlns="http://www.w3.org/2000/svg">
  <path d="M16.47 12.1557C16.5443 12.2297 16.6033 12.3177 16.6435 12.4145C16.6837 12.5114 16.7044 12.6153 16.7044 12.7201C16.7044 12.825 16.6837 12.9289 16.6435 13.0257C16.6033 13.1226 16.5443 13.2106 16.47 13.2846L14.8763 14.8783C14.7266 15.028 14.5235 15.1121 14.3118 15.1121C14.1001 15.1121 13.8971 15.028 13.7474 14.8783C13.5977 14.7286 13.5136 14.5256 13.5136 14.3139C13.5136 14.1022 13.5977 13.8991 13.7474 13.7494L13.9805 13.5163H13.8417C13.0384 13.5155 12.2469 13.3233 11.5327 12.9557C10.8185 12.5881 10.202 12.0558 9.73445 11.4026L6.96664 7.52517C6.64677 7.07819 6.22501 6.71385 5.7363 6.46234C5.24758 6.21082 4.70597 6.07936 4.15633 6.07884H2.625C2.41366 6.07884 2.21097 5.99489 2.06152 5.84544C1.91208 5.696 1.82812 5.49331 1.82812 5.28197C1.82812 5.07062 1.91208 4.86794 2.06152 4.71849C2.21097 4.56905 2.41366 4.48509 2.625 4.48509H4.15633C4.95959 4.48598 5.75109 4.67816 6.46531 5.04572C7.17954 5.41329 7.79596 5.94567 8.26356 6.5988L11.0334 10.4763C11.3532 10.9232 11.775 11.2876 12.2637 11.5391C12.7524 11.7906 13.294 11.9221 13.8437 11.9226H13.9805L13.7467 11.6895C13.597 11.5398 13.5129 11.3368 13.5129 11.1251C13.5129 10.9133 13.597 10.7103 13.7467 10.5606C13.8964 10.4109 14.0995 10.3268 14.3112 10.3268C14.5229 10.3268 14.7259 10.4109 14.8756 10.5606L16.47 12.1557ZM10.1203 7.33326C10.2793 7.47236 10.4871 7.5426 10.6979 7.52852C10.9088 7.51445 11.1054 7.41722 11.2445 7.25822C11.5687 6.88773 11.9683 6.59083 12.4165 6.38742C12.8648 6.18402 13.3514 6.0788 13.8437 6.07884H13.9805L13.7467 6.31193C13.597 6.46163 13.5129 6.66467 13.5129 6.87638C13.5129 7.08809 13.597 7.29113 13.7467 7.44083C13.8964 7.59054 14.0995 7.67464 14.3112 7.67464C14.5229 7.67464 14.7259 7.59054 14.8756 7.44083L16.4694 5.84709C16.5437 5.77305 16.6026 5.68508 16.6428 5.58822C16.6831 5.49136 16.7038 5.38751 16.7038 5.28263C16.7038 5.17775 16.6831 5.0739 16.6428 4.97704C16.6026 4.88018 16.5437 4.79221 16.4694 4.71818L14.8756 3.12443C14.7259 2.97473 14.5229 2.89062 14.3112 2.89063C14.0995 2.89063 13.8964 2.97473 13.7467 3.12443C13.597 3.27413 13.5129 3.47717 13.5129 3.68888C13.5129 3.90059 13.597 4.10363 13.7467 4.25334L13.9805 4.48509H13.8417C13.122 4.48544 12.4108 4.63968 11.7557 4.93746C11.1006 5.23525 10.5167 5.66969 10.0432 6.21166C9.90521 6.37082 9.83582 6.57817 9.85026 6.78836C9.86469 6.99854 9.96177 7.19446 10.1203 7.33326ZM7.87973 10.6682C7.72067 10.5291 7.51289 10.4588 7.30206 10.4729C7.09123 10.487 6.89462 10.5842 6.75547 10.7432C6.43133 11.1137 6.03173 11.4106 5.58345 11.614C5.13518 11.8174 4.64859 11.9226 4.15633 11.9226H2.625C2.41366 11.9226 2.21097 12.0065 2.06152 12.156C1.91208 12.3054 1.82812 12.5081 1.82812 12.7195C1.82812 12.9308 1.91208 13.1335 2.06152 13.2829C2.21097 13.4324 2.41366 13.5163 2.625 13.5163H4.15633C4.87596 13.516 5.5872 13.3618 6.24233 13.064C6.89745 12.7662 7.48132 12.3317 7.95477 11.7898C8.09304 11.6309 8.16277 11.4237 8.14871 11.2135C8.13465 11.0033 8.03794 10.8073 7.87973 10.6682Z" fill="#2F353D" />
</svg>