<svg width="21" height="21" viewBox="0 0 21 21" fill="none" xmlns="http://www.w3.org/2000/svg">
  <rect x="0.5" y="0.5" width="20" height="20" rx="5" fill="#00AF8F" />
  <path d="M9.14355 8.11523C7.97671 8.11523 7.37681 8.75806 7.37681 9.47818C7.37681 10.2047 7.81855 10.5585 8.63613 10.7641L9.22939 10.912C9.81626 11.0598 10.0863 11.1949 10.0863 11.5034C10.0863 11.9342 9.61161 12.0886 9.20947 12.0886C8.54365 12.0886 8.15454 11.8055 7.91079 11.4199L7.13281 11.8377C7.548 12.5835 8.31294 12.8858 9.09091 12.8858C9.92177 12.8858 11.0028 12.5451 11.0028 11.4199C11.0028 10.5457 10.2907 10.2628 9.55898 10.0892L9.07124 9.97352C8.57685 9.85781 8.28662 9.71625 8.28662 9.42697C8.28662 8.94467 8.89316 8.88041 9.09091 8.88041C9.82265 8.88041 10.0666 9.32406 10.1918 9.53628L10.9568 9.09263C10.4026 8.23118 9.55898 8.11523 9.14355 8.11523Z" fill="white" />
  <path d="M13.8674 8.11523H13.0127V11.0906C13.0127 11.5586 12.9864 11.9307 12.3159 11.9307C12.1843 11.9307 12.0923 11.9179 11.8557 11.8667V12.6809C12.112 12.7388 12.2829 12.7388 12.3948 12.7388C13.7294 12.7388 13.8677 11.9565 13.8677 11.2959L13.8674 8.11523Z" fill="white" />
</svg>