<svg width="18" height="18" viewBox="0 0 18 18" fill="none" xmlns="http://www.w3.org/2000/svg">
  <path d="M15.6427 9.00076C15.6427 9.2121 15.5587 9.41479 15.4093 9.56423C15.2598 9.71368 15.0571 9.79763 14.8458 9.79763H9.00205C8.7907 9.79763 8.58801 9.71368 8.43857 9.56423C8.28913 9.41479 8.20517 9.2121 8.20517 9.00076C8.20517 8.78941 8.28913 8.58672 8.43857 8.43728C8.58801 8.28784 8.7907 8.20388 9.00205 8.20388H14.8458C15.0571 8.20388 15.2598 8.28784 15.4093 8.43728C15.5587 8.58672 15.6427 8.78941 15.6427 9.00076ZM9.00205 5.54763H14.8458C15.0571 5.54763 15.2598 5.46368 15.4093 5.31423C15.5587 5.16479 15.6427 4.9621 15.6427 4.75076C15.6427 4.53941 15.5587 4.33672 15.4093 4.18728C15.2598 4.03784 15.0571 3.95388 14.8458 3.95388H9.00205C8.7907 3.95388 8.58801 4.03784 8.43857 4.18728C8.28913 4.33672 8.20517 4.53941 8.20517 4.75076C8.20517 4.9621 8.28913 5.16479 8.43857 5.31423C8.58801 5.46368 8.7907 5.54763 9.00205 5.54763ZM14.8458 12.4539H9.00205C8.7907 12.4539 8.58801 12.5378 8.43857 12.6873C8.28913 12.8367 8.20517 13.0394 8.20517 13.2508C8.20517 13.4621 8.28913 13.6648 8.43857 13.8142C8.58801 13.9637 8.7907 14.0476 9.00205 14.0476H14.8458C15.0571 14.0476 15.2598 13.9637 15.4093 13.8142C15.5587 13.6648 15.6427 13.4621 15.6427 13.2508C15.6427 13.0394 15.5587 12.8367 15.4093 12.6873C15.2598 12.5378 15.0571 12.4539 14.8458 12.4539ZM5.78201 3.12447L4.2208 4.68435L3.72209 4.18498C3.57238 4.03527 3.36934 3.95117 3.15763 3.95117C2.94592 3.95117 2.74288 4.03527 2.59318 4.18498C2.44348 4.33468 2.35938 4.53772 2.35938 4.74943C2.35938 4.96114 2.44348 5.16418 2.59318 5.31388L3.65568 6.37638C3.72971 6.45067 3.81768 6.50962 3.91454 6.54984C4.0114 6.59006 4.11525 6.61076 4.22013 6.61076C4.32501 6.61076 4.42886 6.59006 4.52572 6.54984C4.62258 6.50962 4.71055 6.45067 4.78459 6.37638L6.90958 4.25138C7.05929 4.10168 7.14339 3.89864 7.14339 3.68693C7.14339 3.47522 7.05929 3.27218 6.90958 3.12248C6.75988 2.97277 6.55684 2.88867 6.34513 2.88867C6.13342 2.88867 5.93038 2.97277 5.78068 3.12248L5.78201 3.12447ZM5.78201 7.37447L4.2208 8.93435L3.72209 8.43498C3.57238 8.28527 3.36934 8.20117 3.15763 8.20117C2.94592 8.20117 2.74288 8.28527 2.59318 8.43498C2.44348 8.58468 2.35938 8.78772 2.35938 8.99943C2.35938 9.21114 2.44348 9.41418 2.59318 9.56388L3.65568 10.6264C3.72971 10.7007 3.81768 10.7596 3.91454 10.7998C4.0114 10.8401 4.11525 10.8608 4.22013 10.8608C4.32501 10.8608 4.42886 10.8401 4.52572 10.7998C4.62258 10.7596 4.71055 10.7007 4.78459 10.6264L6.90958 8.50138C7.05929 8.35168 7.14339 8.14864 7.14339 7.93693C7.14339 7.72522 7.05929 7.52218 6.90958 7.37248C6.75988 7.22277 6.55684 7.13867 6.34513 7.13867C6.13342 7.13867 5.93038 7.22277 5.78068 7.37248L5.78201 7.37447ZM5.78201 11.6245L4.2208 13.1844L3.72209 12.685C3.64796 12.6109 3.55996 12.5521 3.46311 12.5119C3.36626 12.4718 3.26246 12.4512 3.15763 12.4512C3.0528 12.4512 2.949 12.4718 2.85215 12.5119C2.7553 12.5521 2.6673 12.6109 2.59318 12.685C2.51905 12.7591 2.46025 12.8471 2.42014 12.9439C2.38002 13.0408 2.35937 13.1446 2.35938 13.2494C2.35938 13.3543 2.38002 13.4581 2.42014 13.5549C2.46025 13.6518 2.51905 13.7398 2.59318 13.8139L3.65568 14.8764C3.72971 14.9507 3.81768 15.0096 3.91454 15.0498C4.0114 15.0901 4.11525 15.1108 4.22013 15.1108C4.32501 15.1108 4.42886 15.0901 4.52572 15.0498C4.62258 15.0096 4.71055 14.9507 4.78459 14.8764L6.90958 12.7514C7.05929 12.6017 7.14339 12.3986 7.14339 12.1869C7.14339 11.9752 7.05929 11.7722 6.90958 11.6225C6.75988 11.4728 6.55684 11.3887 6.34513 11.3887C6.13342 11.3887 5.93038 11.4728 5.78068 11.6225L5.78201 11.6245Z" fill="#79869A" />
</svg>