<svg width="16" height="15" viewBox="0 0 16 15" fill="none" xmlns="http://www.w3.org/2000/svg">
  <path d="M13.1868 6.1229L8.49927 10.8104C8.43394 10.8759 8.35632 10.928 8.27086 10.9634C8.18539 10.9989 8.09376 11.0172 8.00122 11.0172C7.90868 11.0172 7.81705 10.9989 7.73158 10.9634C7.64611 10.928 7.56849 10.8759 7.50317 10.8104L2.81567 6.1229C2.68358 5.99081 2.60937 5.81166 2.60938 5.62485C2.60938 5.43805 2.68358 5.2589 2.81567 5.12681C2.94776 4.99472 3.12692 4.92051 3.31372 4.92051C3.50052 4.92051 3.67968 4.99472 3.81177 5.12681L8.0018 9.31684L12.1918 5.12622C12.3239 4.99413 12.5031 4.91992 12.6899 4.91992C12.8767 4.91992 13.0558 4.99413 13.1879 5.12622C13.32 5.25831 13.3942 5.43746 13.3942 5.62427C13.3942 5.81107 13.32 5.99022 13.1879 6.12231L13.1868 6.1229Z" fill="#79869A" />
</svg>