<svg width="21" height="20" viewBox="0 0 21 20" fill="none" xmlns="http://www.w3.org/2000/svg">
  <path d="M10.5 10C10.5 10.2486 10.4012 10.4871 10.2254 10.6629C10.0496 10.8387 9.81114 10.9375 9.5625 10.9375H4.25C4.00136 10.9375 3.7629 10.8387 3.58709 10.6629C3.41127 10.4871 3.3125 10.2486 3.3125 10C3.3125 9.75136 3.41127 9.5129 3.58709 9.33709C3.7629 9.16127 4.00136 9.0625 4.25 9.0625H9.5625C9.81114 9.0625 10.0496 9.16127 10.2254 9.33709C10.4012 9.5129 10.5 9.75136 10.5 10ZM4.25 5.9375H14.5625C14.8111 5.9375 15.0496 5.83873 15.2254 5.66291C15.4012 5.4871 15.5 5.24864 15.5 5C15.5 4.75136 15.4012 4.5129 15.2254 4.33709C15.0496 4.16127 14.8111 4.0625 14.5625 4.0625H4.25C4.00136 4.0625 3.7629 4.16127 3.58709 4.33709C3.41127 4.5129 3.3125 4.75136 3.3125 5C3.3125 5.24864 3.41127 5.4871 3.58709 5.66291C3.7629 5.83873 4.00136 5.9375 4.25 5.9375ZM8.3125 14.0625H4.25C4.00136 14.0625 3.7629 14.1613 3.58709 14.3371C3.41127 14.5129 3.3125 14.7514 3.3125 15C3.3125 15.2486 3.41127 15.4871 3.58709 15.6629C3.7629 15.8387 4.00136 15.9375 4.25 15.9375H8.3125C8.56114 15.9375 8.7996 15.8387 8.97541 15.6629C9.15123 15.4871 9.25 15.2486 9.25 15C9.25 14.7514 9.15123 14.5129 8.97541 14.3371C8.7996 14.1613 8.56114 14.0625 8.3125 14.0625ZM18.6633 12.4617C18.5762 12.3743 18.4727 12.305 18.3587 12.2577C18.2448 12.2103 18.1226 12.186 17.9992 12.186C17.8758 12.186 17.7537 12.2103 17.6397 12.2577C17.5257 12.305 17.4223 12.3743 17.3352 12.4617L15.8125 13.9844V8.75C15.8125 8.50136 15.7137 8.2629 15.5379 8.08709C15.3621 7.91127 15.1236 7.8125 14.875 7.8125C14.6264 7.8125 14.3879 7.91127 14.2121 8.08709C14.0363 8.2629 13.9375 8.50136 13.9375 8.75V13.9844L12.4133 12.4594C12.2372 12.2833 11.9983 12.1843 11.7492 12.1843C11.5001 12.1843 11.2613 12.2833 11.0852 12.4594C10.909 12.6355 10.8101 12.8744 10.8101 13.1234C10.8101 13.3725 10.909 13.6114 11.0852 13.7875L14.2102 16.9125C14.2973 16.9999 14.4007 17.0692 14.5147 17.1166C14.6287 17.1639 14.7508 17.1882 14.8742 17.1882C14.9976 17.1882 15.1198 17.1639 15.2337 17.1166C15.3477 17.0692 15.4512 16.9999 15.5383 16.9125L18.6633 13.7875C18.8391 13.6117 18.9378 13.3732 18.9378 13.1246C18.9378 12.876 18.8391 12.6375 18.6633 12.4617Z" fill="currentColor" />
</svg>