<svg width="41" height="40" viewBox="0 0 41 40" fill="none" xmlns="http://www.w3.org/2000/svg">
  <rect x="0.164062" width="40" height="40" rx="10" fill="#00AF8F" />
  <path d="M17.4512 15.2295C15.1175 15.2295 13.9177 16.5151 13.9177 17.9554C13.9177 19.4084 14.8012 20.116 16.4363 20.5272L17.6228 20.8231C18.7966 21.1185 19.3367 21.3888 19.3367 22.0058C19.3367 22.8675 18.3873 23.1762 17.583 23.1762C16.2514 23.1762 15.4731 22.61 14.9856 21.8389L13.4297 22.6745C14.2601 24.166 15.7899 24.7706 17.3459 24.7706C19.0076 24.7706 21.1696 24.0891 21.1696 21.8389C21.1696 20.0904 19.7455 19.5246 18.282 19.1775L17.3065 18.9461C16.3178 18.7146 15.7373 18.4315 15.7373 17.853C15.7373 16.8884 16.9504 16.7598 17.3459 16.7598C18.8094 16.7598 19.2973 17.6471 19.5477 18.0716L21.0776 17.1843C19.9693 15.4614 18.282 15.2295 17.4512 15.2295Z" fill="white" />
  <path d="M26.8989 15.2295H25.1895V21.1802C25.1895 22.1163 25.1368 22.8604 23.7958 22.8604C23.5327 22.8604 23.3487 22.8348 22.8755 22.7323V24.3609C23.388 24.4766 23.7299 24.4766 23.9538 24.4766C26.6229 24.4766 26.8994 22.9121 26.8994 21.5909L26.8989 15.2295Z" fill="white" />
</svg>