<svg width="20" height="21" viewBox="0 0 20 21" fill="none" xmlns="http://www.w3.org/2000/svg">
  <path d="M16.25 3H14.375V2.375C14.375 2.20924 14.3092 2.05027 14.1919 1.93306C14.0747 1.81585 13.9158 1.75 13.75 1.75C13.5842 1.75 13.4253 1.81585 13.3081 1.93306C13.1908 2.05027 13.125 2.20924 13.125 2.375V3H6.875V2.375C6.875 2.20924 6.80915 2.05027 6.69194 1.93306C6.57473 1.81585 6.41576 1.75 6.25 1.75C6.08424 1.75 5.92527 1.81585 5.80806 1.93306C5.69085 2.05027 5.625 2.20924 5.625 2.375V3H3.75C3.41848 3 3.10054 3.1317 2.86612 3.36612C2.6317 3.60054 2.5 3.91848 2.5 4.25V16.75C2.5 17.0815 2.6317 17.3995 2.86612 17.6339C3.10054 17.8683 3.41848 18 3.75 18H16.25C16.5815 18 16.8995 17.8683 17.1339 17.6339C17.3683 17.3995 17.5 17.0815 17.5 16.75V4.25C17.5 3.91848 17.3683 3.60054 17.1339 3.36612C16.8995 3.1317 16.5815 3 16.25 3ZM13.2547 10.9422L9.50469 14.6922C9.44664 14.7503 9.37771 14.7964 9.30184 14.8279C9.22596 14.8593 9.14463 14.8755 9.0625 14.8755C8.98037 14.8755 8.89904 14.8593 8.82316 14.8279C8.74729 14.7964 8.67836 14.7503 8.62031 14.6922L6.74531 12.8172C6.62804 12.6999 6.56215 12.5409 6.56215 12.375C6.56215 12.2091 6.62804 12.0501 6.74531 11.9328C6.86259 11.8155 7.02165 11.7497 7.1875 11.7497C7.35335 11.7497 7.51241 11.8155 7.62969 11.9328L9.0625 13.3664L12.3703 10.0578C12.4284 9.99974 12.4973 9.95368 12.5732 9.92225C12.6491 9.89083 12.7304 9.87465 12.8125 9.87465C12.8946 9.87465 12.9759 9.89083 13.0518 9.92225C13.1277 9.95368 13.1966 9.99974 13.2547 10.0578C13.3128 10.1159 13.3588 10.1848 13.3902 10.2607C13.4217 10.3366 13.4378 10.4179 13.4378 10.5C13.4378 10.5821 13.4217 10.6634 13.3902 10.7393C13.3588 10.8152 13.3128 10.8841 13.2547 10.9422ZM3.75 6.75V4.25H5.625V4.875C5.625 5.04076 5.69085 5.19973 5.80806 5.31694C5.92527 5.43415 6.08424 5.5 6.25 5.5C6.41576 5.5 6.57473 5.43415 6.69194 5.31694C6.80915 5.19973 6.875 5.04076 6.875 4.875V4.25H13.125V4.875C13.125 5.04076 13.1908 5.19973 13.3081 5.31694C13.4253 5.43415 13.5842 5.5 13.75 5.5C13.9158 5.5 14.0747 5.43415 14.1919 5.31694C14.3092 5.19973 14.375 5.04076 14.375 4.875V4.25H16.25V6.75H3.75Z" fill="currentColor" />
</svg>