<svg width="31" height="31" viewBox="0 0 31 31" fill="none" xmlns="http://www.w3.org/2000/svg">
  <path d="M30.5 15.5C30.5 15.9774 30.3104 16.4352 29.9728 16.7728C29.6352 17.1104 29.1774 17.3 28.7 17.3H17.3V28.7C17.3 29.1774 17.1104 29.6352 16.7728 29.9728C16.4352 30.3104 15.9774 30.5 15.5 30.5C15.0226 30.5 14.5648 30.3104 14.2272 29.9728C13.8896 29.6352 13.7 29.1774 13.7 28.7V17.3H2.3C1.82261 17.3 1.36477 17.1104 1.02721 16.7728C0.689642 16.4352 0.5 15.9774 0.5 15.5C0.5 15.0226 0.689642 14.5648 1.02721 14.2272C1.36477 13.8896 1.82261 13.7 2.3 13.7H13.7V2.3C13.7 1.82261 13.8896 1.36477 14.2272 1.02721C14.5648 0.689642 15.0226 0.5 15.5 0.5C15.9774 0.5 16.4352 0.689642 16.7728 1.02721C17.1104 1.36477 17.3 1.82261 17.3 2.3V13.7H28.7C29.1774 13.7 29.6352 13.8896 29.9728 14.2272C30.3104 14.5648 30.5 15.0226 30.5 15.5Z" fill="currentColor" />
</svg>