<svg width="18" height="18" viewBox="0 0 18 18" fill="none" xmlns="http://www.w3.org/2000/svg">
  <path d="M14.5781 4.21875V6.34375C14.5781 6.55509 14.4942 6.75778 14.3447 6.90723C14.1953 7.05667 13.9926 7.14062 13.7812 7.14062C13.5699 7.14062 13.3672 7.05667 13.2178 6.90723C13.0683 6.75778 12.9844 6.55509 12.9844 6.34375V5.01562H9.79688V12.9844H11.125C11.3363 12.9844 11.539 13.0683 11.6885 13.2178C11.8379 13.3672 11.9219 13.5699 11.9219 13.7812C11.9219 13.9926 11.8379 14.1953 11.6885 14.3447C11.539 14.4942 11.3363 14.5781 11.125 14.5781H6.875C6.66366 14.5781 6.46097 14.4942 6.31152 14.3447C6.16208 14.1953 6.07812 13.9926 6.07812 13.7812C6.07812 13.5699 6.16208 13.3672 6.31152 13.2178C6.46097 13.0683 6.66366 12.9844 6.875 12.9844H8.20312V5.01562H5.01562V6.34375C5.01562 6.55509 4.93167 6.75778 4.78223 6.90723C4.63278 7.05667 4.43009 7.14062 4.21875 7.14062C4.00741 7.14062 3.80472 7.05667 3.65527 6.90723C3.50583 6.75778 3.42188 6.55509 3.42188 6.34375V4.21875C3.42188 4.00741 3.50583 3.80472 3.65527 3.65527C3.80472 3.50583 4.00741 3.42188 4.21875 3.42188H13.7812C13.9926 3.42188 14.1953 3.50583 14.3447 3.65527C14.4942 3.80472 14.5781 4.00741 14.5781 4.21875Z" fill="#79869A" />
</svg>