<svg width="20" height="20" viewBox="0 0 20 20" fill="none" xmlns="http://www.w3.org/2000/svg">
<rect x="1" y="1" width="18" height="18" rx="9" fill="#229ED9"/>
<rect x="1" y="1" width="18" height="18" rx="9" stroke="white" stroke-width="2"/>
<path d="M13.629 6.52336C13.629 6.52336 14.4385 6.20773 14.371 6.97425C14.3485 7.28988 14.1462 8.39457 13.9888 9.58944L13.4491 13.129C13.4491 13.129 13.4042 13.6475 12.9995 13.7377C12.5947 13.8278 11.9877 13.422 11.8752 13.3319C11.7853 13.2642 10.1889 12.2497 9.62679 11.7537C9.4694 11.6185 9.28952 11.3479 9.64927 11.0323L12.0101 8.77784C12.28 8.5073 12.5498 7.87605 11.4255 8.64257L8.27773 10.7843C8.27773 10.7843 7.91798 11.0098 7.24346 10.8069L5.78196 10.356C5.78196 10.356 5.24234 10.0178 6.1642 9.67961C8.41265 8.62001 11.1782 7.53786 13.629 6.52336Z" fill="white"/>
</svg>
