<svg width="18" height="18" viewBox="0 0 18 18" fill="none" xmlns="http://www.w3.org/2000/svg">
  <path d="M9.00205 2.89072C7.68865 2.89072 6.40476 3.28018 5.31271 4.00987C4.22067 4.73955 3.36952 5.77667 2.86691 6.99009C2.3643 8.2035 2.23279 9.53871 2.48902 10.8269C2.74525 12.115 3.37771 13.2983 4.30642 14.227C5.23512 15.1557 6.41837 15.7881 7.70652 16.0444C8.99468 16.3006 10.3299 16.1691 11.5433 15.6665C12.7567 15.1639 13.7938 14.3127 14.5235 13.2207C15.2532 12.1286 15.6427 10.8447 15.6427 9.53134C15.6407 7.77073 14.9405 6.08279 13.6955 4.83785C12.4506 3.59291 10.7627 2.89265 9.00205 2.89072ZM9.00205 14.5782C8.00387 14.5782 7.02811 14.2822 6.19815 13.7277C5.3682 13.1731 4.72133 12.3849 4.33934 11.4627C3.95736 10.5405 3.85741 9.52574 4.05215 8.54675C4.24688 7.56775 4.72755 6.66848 5.43337 5.96266C6.13918 5.25685 7.03845 4.77618 8.01745 4.58144C8.99645 4.38671 10.0112 4.48665 10.9334 4.86864C11.8556 5.25062 12.6438 5.8975 13.1984 6.72745C13.7529 7.5574 14.0489 8.53317 14.0489 9.53134C14.0475 10.8694 13.5153 12.1523 12.5692 13.0985C11.623 14.0446 10.3401 14.5768 9.00205 14.5782ZM2.65959 5.31388C2.58546 5.38801 2.49746 5.44681 2.40061 5.48692C2.30376 5.52704 2.19996 5.54769 2.09513 5.54769C1.9903 5.54769 1.8865 5.52704 1.78965 5.48692C1.6928 5.44681 1.6048 5.38801 1.53068 5.31388C1.45655 5.23976 1.39775 5.15176 1.35764 5.05491C1.31752 4.95806 1.29687 4.85426 1.29688 4.74943C1.29688 4.6446 1.31752 4.5408 1.35764 4.44395C1.39775 4.3471 1.45655 4.2591 1.53068 4.18498L3.65568 2.05998C3.80538 1.91027 4.00842 1.82617 4.22013 1.82617C4.43184 1.82617 4.63488 1.91027 4.78459 2.05998C4.93429 2.20968 5.01839 2.41272 5.01839 2.62443C5.01839 2.83614 4.93429 3.03918 4.78459 3.18888L2.65959 5.31388ZM16.4721 5.31388C16.3981 5.38817 16.3101 5.44712 16.2132 5.48734C16.1164 5.52756 16.0125 5.54826 15.9076 5.54826C15.8028 5.54826 15.6989 5.52756 15.602 5.48734C15.5052 5.44712 15.4172 5.38817 15.3432 5.31388L13.2182 3.18888C13.1441 3.11476 13.0853 3.02676 13.0451 2.92991C13.005 2.83306 12.9844 2.72926 12.9844 2.62443C12.9844 2.5196 13.005 2.4158 13.0451 2.31895C13.0853 2.2221 13.1441 2.1341 13.2182 2.05998C13.2923 1.98585 13.3803 1.92705 13.4772 1.88694C13.574 1.84682 13.6778 1.82617 13.7826 1.82617C13.8875 1.82617 13.9913 1.84682 14.0881 1.88694C14.185 1.92705 14.273 1.98585 14.3471 2.05998L16.4721 4.18498C16.5464 4.25901 16.6053 4.34698 16.6455 4.44384C16.6858 4.5407 16.7065 4.64455 16.7065 4.74943C16.7065 4.85431 16.6858 4.95816 16.6455 5.05502C16.6053 5.15188 16.5464 5.23985 16.4721 5.31388ZM12.1895 8.73447C12.4009 8.73447 12.6036 8.81842 12.753 8.96787C12.9025 9.11731 12.9864 9.32 12.9864 9.53134C12.9864 9.74269 12.9025 9.94538 12.753 10.0948C12.6036 10.2443 12.4009 10.3282 12.1895 10.3282H9.00205C8.7907 10.3282 8.58801 10.2443 8.43857 10.0948C8.28913 9.94538 8.20517 9.74269 8.20517 9.53134V6.34384C8.20517 6.1325 8.28913 5.92981 8.43857 5.78037C8.58801 5.63092 8.7907 5.54697 9.00205 5.54697C9.21339 5.54697 9.41608 5.63092 9.56552 5.78037C9.71496 5.92981 9.79892 6.1325 9.79892 6.34384V8.73447H12.1895Z" fill="#79869A" />
</svg>