<svg width="31" height="30" viewBox="0 0 31 30" fill="none" xmlns="http://www.w3.org/2000/svg">
  <path d="M25.4602 9.64922L18.8977 3.08672C18.8105 2.99969 18.7071 2.93067 18.5933 2.88362C18.4795 2.83657 18.3575 2.8124 18.2344 2.8125H6.98438C6.48709 2.8125 6.01018 3.01004 5.65855 3.36167C5.30692 3.71331 5.10938 4.19022 5.10938 4.6875V25.3125C5.10938 25.8098 5.30692 26.2867 5.65855 26.6383C6.01018 26.99 6.48709 27.1875 6.98438 27.1875H23.8594C24.3567 27.1875 24.8336 26.99 25.1852 26.6383C25.5368 26.2867 25.7344 25.8098 25.7344 25.3125V10.3125C25.7345 10.1893 25.7103 10.0674 25.6633 9.95358C25.6162 9.83977 25.5472 9.73635 25.4602 9.64922ZM19.1719 6.01289L22.534 9.375H19.1719V6.01289ZM23.8594 25.3125H6.98438V4.6875H17.2969V10.3125C17.2969 10.5611 17.3956 10.7996 17.5715 10.9754C17.7473 11.1512 17.9857 11.25 18.2344 11.25H23.8594V25.3125ZM18.8977 18.0867C18.9848 18.1738 19.054 18.2772 19.1012 18.391C19.1483 18.5048 19.1726 18.6268 19.1726 18.75C19.1726 18.8732 19.1483 18.9952 19.1012 19.109C19.054 19.2228 18.9848 19.3262 18.8977 19.4133L16.0852 22.2258C15.9981 22.3129 15.8947 22.3821 15.7809 22.4293C15.6671 22.4765 15.5451 22.5007 15.4219 22.5007C15.2987 22.5007 15.1767 22.4765 15.0629 22.4293C14.9491 22.3821 14.8457 22.3129 14.7586 22.2258L11.9461 19.4133C11.7702 19.2374 11.6714 18.9988 11.6714 18.75C11.6714 18.5012 11.7702 18.2626 11.9461 18.0867C12.122 17.9108 12.3606 17.812 12.6094 17.812C12.8582 17.812 13.0967 17.9108 13.2727 18.0867L14.4844 19.2996V14.0625C14.4844 13.8139 14.5831 13.5754 14.759 13.3996C14.9348 13.2238 15.1732 13.125 15.4219 13.125C15.6705 13.125 15.909 13.2238 16.0848 13.3996C16.2606 13.5754 16.3594 13.8139 16.3594 14.0625V19.2996L17.5711 18.0867C17.6582 17.9996 17.7616 17.9304 17.8754 17.8832C17.9892 17.836 18.1112 17.8118 18.2344 17.8118C18.3576 17.8118 18.4796 17.836 18.5934 17.8832C18.7072 17.9304 18.8106 17.9996 18.8977 18.0867Z" fill="#79869A" />
</svg>