<svg width="21" height="20" viewBox="0 0 21 20" fill="none" xmlns="http://www.w3.org/2000/svg">
  <path d="M17.1922 6.43281L12.8172 2.05781C12.7591 1.99979 12.6902 1.95378 12.6143 1.92241C12.5384 1.89105 12.4571 1.87494 12.375 1.875H4.875C4.54348 1.875 4.22554 2.0067 3.99112 2.24112C3.7567 2.47554 3.625 2.79348 3.625 3.125V16.875C3.625 17.2065 3.7567 17.5245 3.99112 17.7589C4.22554 17.9933 4.54348 18.125 4.875 18.125H16.125C16.4565 18.125 16.7745 17.9933 17.0089 17.7589C17.2433 17.5245 17.375 17.2065 17.375 16.875V6.875C17.3751 6.7929 17.359 6.71159 17.3276 6.63572C17.2962 6.55985 17.2502 6.4909 17.1922 6.43281ZM12.8172 12.9422L10.9422 14.8172C10.8841 14.8753 10.8152 14.9214 10.7393 14.9529C10.6635 14.9843 10.5821 15.0005 10.5 15.0005C10.4179 15.0005 10.3365 14.9843 10.2607 14.9529C10.1848 14.9214 10.1159 14.8753 10.0578 14.8172L8.18281 12.9422C8.06554 12.8249 7.99965 12.6659 7.99965 12.5C7.99965 12.3341 8.06554 12.1751 8.18281 12.0578C8.30009 11.9405 8.45915 11.8747 8.625 11.8747C8.79085 11.8747 8.94991 11.9405 9.06719 12.0578L9.875 12.8664V9.375C9.875 9.20924 9.94085 9.05027 10.0581 8.93306C10.1753 8.81585 10.3342 8.75 10.5 8.75C10.6658 8.75 10.8247 8.81585 10.9419 8.93306C11.0592 9.05027 11.125 9.20924 11.125 9.375V12.8664L11.9328 12.0578C12.0501 11.9405 12.2091 11.8747 12.375 11.8747C12.5409 11.8747 12.6999 11.9405 12.8172 12.0578C12.9345 12.1751 13.0003 12.3341 13.0003 12.5C13.0003 12.6659 12.9345 12.8249 12.8172 12.9422ZM12.375 6.875V3.4375L15.8125 6.875H12.375Z" fill="#5898FF" />
</svg>