<svg width="21" height="21" viewBox="0 0 21 21" fill="none" xmlns="http://www.w3.org/2000/svg">
  <rect x="0.5" y="0.5" width="20" height="20" rx="10" fill="#7B519D" />
  <path fill-rule="evenodd" clip-rule="evenodd" d="M15.1154 13.1887C14.7914 12.9279 14.4452 12.6937 14.1043 12.4546C13.4246 11.9772 12.8029 11.94 12.2957 12.7081C12.0108 13.1393 11.6121 13.1582 11.1952 12.9691C10.0458 12.4479 9.15829 11.6449 8.63841 10.4767C8.40843 9.95984 8.41146 9.49645 8.94954 9.1309C9.23442 8.93758 9.52143 8.70882 9.49848 8.2864C9.46852 7.7356 8.13117 5.8949 7.60306 5.70062C7.38453 5.62022 7.1669 5.62545 6.94457 5.70017C5.70623 6.11662 5.19331 7.13505 5.68453 8.34093C7.14998 11.9386 9.72893 14.4432 13.279 15.9719C13.4814 16.0589 13.7063 16.0937 13.8201 16.1249C14.6284 16.1331 15.5752 15.3544 15.8486 14.5816C16.1119 13.8381 15.5555 13.543 15.1154 13.1887ZM11.1349 6.06947C13.7302 6.46857 14.9272 7.70266 15.2577 10.3167C15.2883 10.5581 15.1984 10.9215 15.5429 10.9281C15.9029 10.935 15.8161 10.5771 15.8192 10.3354C15.8496 7.87346 13.703 5.59116 11.2099 5.50701C11.0218 5.53407 10.6326 5.3773 10.6084 5.79887C10.5922 6.08309 10.9199 6.0364 11.1349 6.06947Z" fill="white" />
  <path fill-rule="evenodd" clip-rule="evenodd" d="M11.6442 6.78575C11.3946 6.75568 11.065 6.63806 11.0067 6.98443C10.9458 7.34799 11.3131 7.31107 11.5491 7.3639C13.1521 7.72215 13.7102 8.30557 13.9741 9.8956C14.0127 10.1274 13.9361 10.4882 14.33 10.4284C14.622 10.384 14.5165 10.0747 14.5409 9.89404C14.5539 8.36749 13.2458 6.97806 11.6442 6.78575Z" fill="white" />
  <path fill-rule="evenodd" clip-rule="evenodd" d="M11.79 8.03347C11.6234 8.03759 11.4598 8.05563 11.3986 8.2337C11.3066 8.49986 11.5001 8.56331 11.6971 8.59495C12.3546 8.70051 12.7007 9.08824 12.7664 9.74397C12.7841 9.92193 12.897 10.0661 13.069 10.0458C13.3072 10.0174 13.3287 9.80538 13.3214 9.60401C13.3332 8.86732 12.5005 8.01584 11.79 8.03347Z" fill="white" />
</svg>