<svg width="20" height="21" viewBox="0 0 20 21" fill="none" xmlns="http://www.w3.org/2000/svg">
  <path d="M18.75 9.875C18.75 10.0408 18.6842 10.1997 18.5669 10.3169C18.4497 10.4342 18.2908 10.5 18.125 10.5H15.625V13H16.25C16.5815 13 16.8995 13.1317 17.1339 13.3661C17.3683 13.6005 17.5 13.9185 17.5 14.25V16.75C17.5 17.0815 17.3683 17.3995 17.1339 17.6339C16.8995 17.8683 16.5815 18 16.25 18H13.75C13.4185 18 13.1005 17.8683 12.8661 17.6339C12.6317 17.3995 12.5 17.0815 12.5 16.75V14.25C12.5 13.9185 12.6317 13.6005 12.8661 13.3661C13.1005 13.1317 13.4185 13 13.75 13H14.375V10.5H5.625V13H6.25C6.58152 13 6.89946 13.1317 7.13388 13.3661C7.3683 13.6005 7.5 13.9185 7.5 14.25V16.75C7.5 17.0815 7.3683 17.3995 7.13388 17.6339C6.89946 17.8683 6.58152 18 6.25 18H3.75C3.41848 18 3.10054 17.8683 2.86612 17.6339C2.6317 17.3995 2.5 17.0815 2.5 16.75V14.25C2.5 13.9185 2.6317 13.6005 2.86612 13.3661C3.10054 13.1317 3.41848 13 3.75 13H4.375V10.5H1.875C1.70924 10.5 1.55027 10.4342 1.43306 10.3169C1.31585 10.1997 1.25 10.0408 1.25 9.875C1.25 9.70924 1.31585 9.55027 1.43306 9.43306C1.55027 9.31585 1.70924 9.25 1.875 9.25H9.375V7.375H8.75C8.41848 7.375 8.10054 7.2433 7.86612 7.00888C7.6317 6.77446 7.5 6.45652 7.5 6.125V3.625C7.5 3.29348 7.6317 2.97554 7.86612 2.74112C8.10054 2.5067 8.41848 2.375 8.75 2.375H11.25C11.5815 2.375 11.8995 2.5067 12.1339 2.74112C12.3683 2.97554 12.5 3.29348 12.5 3.625V6.125C12.5 6.45652 12.3683 6.77446 12.1339 7.00888C11.8995 7.2433 11.5815 7.375 11.25 7.375H10.625V9.25H18.125C18.2908 9.25 18.4497 9.31585 18.5669 9.43306C18.6842 9.55027 18.75 9.70924 18.75 9.875Z" fill="currentColor" />
</svg>