<svg width="20" height="22" viewBox="0 0 20 22" fill="none" xmlns="http://www.w3.org/2000/svg">
  <path d="M3.50603 16.7402L3.66284 16.2415L3.34287 15.8281C2.11855 14.2464 1.46875 12.2906 1.46875 10.1902C1.46875 5.06338 5.4227 1 10.2344 1C15.0461 1 19 5.06338 19 10.1902C19 15.3171 15.0461 19.3804 10.2344 19.3804C9.07641 19.3804 7.98312 19.1399 6.94416 18.658L6.52115 18.4619L6.09896 18.6598L2.3497 20.4175L3.50603 16.7402Z" fill="#25D366" stroke="white" stroke-width="2" />
  <path d="M13.8718 12.7966C13.7072 13.3118 13.09 13.7412 12.555 13.8271C12.4316 13.87 12.3081 13.87 12.1436 13.87C11.8144 13.87 11.3206 13.7841 10.4565 13.3977C9.46891 12.9683 8.48134 12.0666 7.69952 10.9073V10.8644C7.45263 10.4779 7 9.748 7 8.97513C7 8.0305 7.45263 7.55819 7.61723 7.3435C7.82297 7.12881 8.11101 7 8.4402 7C8.52249 7 8.56364 7 8.64594 7C8.93398 7 9.13972 7.08587 9.34546 7.51525L9.51005 7.85875C9.6335 8.20225 9.79809 8.58869 9.83924 8.63163C9.96269 8.88925 9.96269 9.10394 9.83924 9.31862C9.79809 9.44744 9.7158 9.53331 9.6335 9.61919C9.59235 9.70506 9.5512 9.748 9.51005 9.748C9.46891 9.79094 9.46891 9.79094 9.42776 9.83388C9.5512 10.0486 9.79809 10.435 10.1273 10.7356C10.6211 11.2079 10.9914 11.3367 11.1971 11.4226C11.2794 11.3367 11.3617 11.1649 11.4852 11.0361L11.5263 10.9503C11.7321 10.6497 12.0613 10.5638 12.3904 10.6926C12.555 10.7785 13.4603 11.2079 13.4603 11.2079L13.5426 11.2508C13.666 11.3367 13.8306 11.3796 13.9129 11.5514C14.0775 11.9378 13.9541 12.496 13.8718 12.7966Z" fill="white" />
</svg>