<svg width="21" height="21" viewBox="0 0 21 21" fill="none" xmlns="http://www.w3.org/2000/svg">
  <rect x="0.5" y="0.5" width="20" height="20" rx="10" fill="#25D366" />
  <path d="M16.3077 13.9375C16.0488 14.6875 15.0781 15.3125 14.2368 15.4375C14.0426 15.5 13.8485 15.5 13.5896 15.5C13.0719 15.5 12.2953 15.375 10.9362 14.8125C9.383 14.1875 7.8298 12.875 6.60018 11.1875V11.125C6.21188 10.5625 5.5 9.5 5.5 8.375C5.5 7 6.21188 6.3125 6.47075 6C6.79433 5.6875 7.24735 5.5 7.76508 5.5C7.89452 5.5 7.95923 5.5 8.08867 5.5C8.54168 5.5 8.86527 5.625 9.18885 6.25L9.44772 6.75C9.64187 7.25 9.90073 7.8125 9.96545 7.875C10.1596 8.25 10.1596 8.5625 9.96545 8.875C9.90073 9.0625 9.7713 9.1875 9.64187 9.3125C9.57715 9.4375 9.51243 9.5 9.44772 9.5C9.383 9.5625 9.383 9.5625 9.31828 9.625C9.51243 9.9375 9.90073 10.5 10.4185 10.9375C11.1951 11.625 11.7775 11.8125 12.1011 11.9375C12.2305 11.8125 12.36 11.5625 12.5541 11.375L12.6188 11.25C12.9424 10.8125 13.4602 10.6875 13.9779 10.875C14.2368 11 15.6605 11.625 15.6605 11.625L15.79 11.6875C15.9841 11.8125 16.243 11.875 16.3724 12.125C16.6313 12.6875 16.4371 13.5 16.3077 13.9375Z" fill="white" />
</svg>