<svg width="40" height="40" viewBox="0 0 40 40" fill="none" xmlns="http://www.w3.org/2000/svg">
  <rect width="40" height="40" rx="10" fill="#FFCD28" />
  <path d="M13.8281 26.5094V24.1674C13.8281 23.8299 14.1384 23.6028 14.4167 23.7368C15.715 24.3633 17.139 24.6657 18.6888 24.6657C20.8118 24.6657 22.041 24.0152 22.041 22.868C22.041 21.8445 21.2311 21.3486 19.5828 21.3486H17.2722C17.036 21.3486 16.8452 21.1362 16.8452 20.875V18.6599C16.8452 18.3984 17.0363 18.186 17.2722 18.186H19.5828C20.9238 18.186 21.5944 17.7216 21.5944 16.8224C21.5944 15.8302 20.6444 15.3342 18.745 15.3342C17.2833 15.3342 15.9655 15.5854 14.792 16.1064C14.517 16.2284 14.2198 16.0013 14.2198 15.672V13.4381C14.2198 13.1474 14.3817 12.8912 14.6243 12.7816C15.9822 12.1684 17.6586 11.8618 19.6107 11.8618C21.315 11.8618 22.7395 12.2647 23.8846 13.0708C25.03 13.8763 25.6165 14.8998 25.6165 16.1091C25.6165 17.6918 25.0387 18.7668 23.8836 19.3099C23.7949 19.3514 23.7989 19.496 23.8889 19.534C25.2012 20.0892 26.1754 21.2914 26.1754 23.1148C26.1754 24.5727 25.5331 25.782 24.2484 26.7418C22.9908 27.6731 21.3147 28.1378 19.2477 28.1378C17.2401 28.1378 15.5794 27.8033 14.2227 27.1594C13.986 27.0478 13.8281 26.7948 13.8281 26.5094Z" fill="black" />
</svg>