<svg width="21" height="21" viewBox="0 0 21 21" fill="none" xmlns="http://www.w3.org/2000/svg">
  <rect x="0.5" y="0.5" width="20" height="20" rx="5" fill="#FFCD28" />
  <path d="M7.41406 13.7554V12.5844C7.41406 12.4157 7.56918 12.3021 7.70837 12.3691C8.35748 12.6824 9.06949 12.8336 9.84439 12.8336C10.9059 12.8336 11.5205 12.5083 11.5205 11.9347C11.5205 11.423 11.1156 11.175 10.2914 11.175H9.1361C9.01801 11.175 8.9226 11.0688 8.9226 10.9382V9.83069C8.9226 9.69992 9.01814 9.59375 9.1361 9.59375H10.2914C10.9619 9.59375 11.2972 9.36152 11.2972 8.91193C11.2972 8.41582 10.8222 8.16783 9.87252 8.16783C9.14167 8.16783 8.48274 8.29344 7.89599 8.55395C7.75852 8.61491 7.60991 8.50137 7.60991 8.33674V7.21977C7.60991 7.07443 7.69085 6.94631 7.81213 6.89153C8.4911 6.58494 9.32929 6.43164 10.3054 6.43164C11.1575 6.43164 11.8698 6.63309 12.4423 7.03614C13.015 7.4389 13.3082 7.95062 13.3082 8.55527C13.3082 9.34664 13.0194 9.88414 12.4418 10.1557C12.3975 10.1765 12.3994 10.2488 12.4444 10.2678C13.1006 10.5453 13.5877 11.1465 13.5877 12.0581C13.5877 12.7871 13.2666 13.3917 12.6242 13.8716C11.9954 14.3373 11.1573 14.5696 10.1238 14.5696C9.12004 14.5696 8.28968 14.4024 7.61137 14.0805C7.49301 14.0246 7.41406 13.8981 7.41406 13.7554Z" fill="black" />
</svg>